<?xml version="1.0" encoding="utf-8"?>
<!DOCTYPE svg PUBLIC "-//W3C//DTD SVG 20010904//EN" "http://www.w3.org/TR/2001/REC-SVG-20010904/DTD/svg10.dtd">
<svg height="853.000000pt" preserveAspectRatio="xMidYMid meet" version="1.0" viewBox="0 0 1280.000000 853.000000" width="1280.000000pt" xmlns="http://www.w3.org/2000/svg">
<metadata>
Created by potrace 1.15, written by Peter Selinger 2001-2017
</metadata>
<g fill="#FFFFFF" stroke="#FFFFFF" transform="translate(0.000000,853.000000) scale(0.100000,-0.100000)">
<path d="M4150 8279 c-151 -39 -317 -144 -405 -255 -22 -27 -42 -53 -46 -58 -4 -4 -32 3 -62 18 -76 35 -138 48 -237 48 -277 0 -507 -221 -527 -507 -10 -155 43 -292 157 -405 104 -103 217 -150 365 -150 99 0 180 20 262 65 l61 34 19 -21 c18 -20 17 -21 -7 -37 -56 -37 -91 -76 -120 -133 -75 -151 -8 -329 149 -402 66 -30 178 -29 246 2 100 46 164 134 172 235 l5 62 137 0 c151 1 219 15 330 68 36 17 68 32 71 34 3 2 13 -20 24 -48 23 -68 92 -141 158 -169 44 -19 65 -22 133 -18 89 5 124 19 186 75 85 77 121 212 85 321 -31 91 -127 176 -224 197 -29 6 -33 10 -27 28 40 125 48 168 48 282 1 132 -14 204 -63 311 -98 217 -300 381 -529 430 -97 20 -270 17 -361 -7z"/>
<path d="M1781 8225 c-69 -20 -112 -46 -155 -97 -45 -52 -66 -115 -66 -197 0 -87 30 -151 100 -214 125 -112 316 -100 428 28 54 62 76 128 70 214 -8 110 -64 193 -161 240 -77 38 -145 46 -216 26z"/>
<path d="M2463 7952 c-138 -49 -211 -162 -201 -310 8 -112 67 -200 166 -249 48 -23 69 -28 132 -27 90 0 155 29 213 93 56 62 70 97 75 187 4 72 1 89 -20 136 -14 30 -40 70 -57 91 -70 79 -208 115 -308 79z"/>
<path d="M1415 7491 c-78 -13 -135 -31 -195 -61 -227 -115 -364 -334 -364 -585 1 -155 48 -292 142 -409 l39 -48 -74 -38 c-296 -153 -510 -447 -568 -779 -87 -496 189 -1002 655 -1202 339 -145 720 -122 1025 62 37 23 68 39 69 37 2 -2 14 -28 28 -58 75 -166 232 -294 416 -341 196 -50 416 1 574 133 l47 39 -30 -73 c-128 -309 -116 -670 31 -963 l38 -75 -67 0 c-86 0 -170 -22 -249 -65 -34 -19 -64 -35 -66 -35 -2 0 -6 18 -9 39 -7 57 -49 142 -92 190 -21 22 -67 55 -103 73 -62 31 -74 33 -167 33 -89 0 -106 -3 -157 -28 -76 -37 -143 -104 -176 -175 -38 -81 -43 -203 -11 -287 31 -83 121 -173 204 -204 73 -28 188 -31 254 -7 24 9 45 16 47 16 2 0 4 -32 4 -71 0 -297 244 -539 543 -539 293 0 541 256 525 542 -2 37 -3 68 -2 68 1 0 30 -13 65 -29 80 -36 180 -67 264 -82 l65 -11 -43 -42 c-64 -62 -91 -125 -91 -216 -1 -62 4 -85 27 -132 82 -168 277 -221 447 -121 3 2 5 -23 5 -55 l0 -58 -32 22 c-156 106 -345 -81 -240 -237 51 -76 160 -96 238 -45 51 34 84 101 76 157 l-5 39 30 -21 c25 -18 28 -25 22 -53 -4 -17 -7 -67 -7 -111 3 -332 329 -578 661 -500 97 23 179 70 254 145 300 300 144 801 -277 887 -121 25 -231 9 -348 -51 l-88 -44 -46 20 c-45 20 -101 21 -147 3 -17 -8 -17 -7 0 26 9 19 19 65 22 104 6 95 -22 168 -89 235 l-49 49 58 11 c31 6 78 18 103 25 l47 13 -5 -57 c-8 -85 16 -157 73 -220 78 -86 172 -120 281 -100 240 44 331 331 160 502 -21 21 -59 48 -83 59 l-45 19 69 65 c237 218 371 524 373 849 2 307 -102 578 -311 808 l-62 67 75 0 c42 0 83 3 93 7 14 5 16 3 9 -13 -15 -33 -17 -114 -5 -145 7 -16 28 -42 46 -59 112 -98 284 -25 284 122 0 26 -4 57 -9 70 -13 35 -70 86 -102 93 -16 4 -29 10 -28 13 1 4 23 27 50 51 l49 44 0 -37 c0 -110 107 -194 211 -166 22 6 46 13 53 16 10 4 15 -16 19 -78 4 -46 14 -110 23 -143 17 -66 98 -241 136 -295 l25 -34 -71 -18 c-234 -59 -418 -244 -472 -476 -23 -98 -15 -255 18 -349 68 -193 225 -342 428 -405 111 -34 273 -32 387 6 162 53 300 172 374 321 57 118 72 189 66 315 -4 96 -14 139 -52 233 -6 15 -1 17 48 17 153 0 342 51 484 131 108 61 281 234 342 342 101 180 147 396 123 583 -41 323 -228 585 -516 724 -152 73 -210 85 -406 85 -175 0 -207 -6 -350 -61 -143 -56 -285 -162 -386 -288 -64 -80 -141 -221 -164 -303 l-13 -41 -36 23 c-50 33 -98 40 -151 21 -24 -8 -45 -14 -47 -12 -1 1 6 24 16 52 11 27 22 70 26 95 l7 46 73 -5 c126 -8 228 46 292 155 44 76 44 178 -2 286 -6 15 -4 16 20 7 77 -29 196 6 254 76 77 94 75 226 -7 321 -28 31 -92 73 -113 73 -23 0 -23 4 -3 64 34 98 0 230 -78 302 -116 110 -307 111 -418 3 -119 -115 -125 -296 -15 -417 40 -45 124 -92 164 -92 41 0 46 -10 46 -90 0 -41 4 -86 9 -99 7 -21 6 -23 -10 -16 -11 5 -56 10 -102 13 -78 4 -88 2 -147 -27 -58 -29 -99 -65 -123 -108 -8 -13 -17 -9 -58 22 -27 21 -69 47 -94 58 -25 11 -46 21 -48 22 -1 1 16 22 38 46 143 157 172 406 69 600 -42 78 -135 169 -218 213 -219 115 -463 77 -636 -98 -101 -102 -155 -226 -155 -354 l0 -54 -61 56 c-174 157 -450 228 -691 178 -171 -36 -359 -144 -459 -264 -143 -173 -204 -345 -197 -558 l3 -115 -52 17 c-29 10 -85 23 -125 28 -66 10 -102 9 -195 -6 l-33 -5 0 48 c0 81 -19 208 -46 300 -80 281 -269 520 -530 668 -43 25 -83 46 -88 48 -6 2 11 28 37 58 26 30 64 89 84 131 l37 78 31 -29 c75 -72 203 -100 303 -67 124 42 207 156 206 285 -2 116 -65 215 -171 267 -104 51 -253 29 -334 -49 l-27 -26 -22 58 c-68 182 -253 346 -440 389 -67 16 -178 22 -235 13z m3233 -1894 c6 -7 38 -26 71 -41 l60 -29 -44 -56 c-82 -106 -115 -202 -115 -336 0 -96 20 -181 60 -251 l29 -52 -58 19 c-32 9 -91 24 -131 33 -39 8 -74 17 -77 19 -2 3 14 29 36 58 55 72 105 177 132 274 17 61 23 108 23 200 1 66 -2 132 -7 148 -8 28 3 36 21 14z m-1196 -888 c23 -12 56 -26 73 -33 l32 -11 -104 -101 c-57 -55 -101 -93 -98 -85 19 48 35 132 36 188 1 35 6 63 11 63 5 0 27 -10 50 -21z"/>
<path d="M2883 6386 c-83 -38 -95 -161 -19 -207 38 -23 103 -25 134 -3 30 21 52 66 52 109 0 26 -8 44 -32 70 -38 42 -87 53 -135 31z"/>
<path d="M2335 4017 c-62 -21 -97 -42 -137 -84 -111 -114 -109 -300 5 -411 62 -61 126 -87 217 -87 122 0 213 56 272 168 19 34 23 58 23 127 0 93 -16 136 -76 204 -65 75 -209 114 -304 83z"/>
<path d="M3573 2034 c-102 -37 -182 -148 -191 -265 -7 -98 17 -159 88 -231 69 -68 138 -94 232 -85 258 23 369 349 177 521 -27 24 -70 51 -96 60 -57 20 -154 19 -210 0z"/>
<path d="M2955 1531 c-134 -35 -229 -156 -229 -291 0 -162 125 -285 289 -285 117 0 209 58 267 168 32 59 33 194 1 252 -28 54 -86 110 -140 136 -47 23 -140 33 -188 20z"/>
<path d="M4041 1509 c-193 -38 -366 -160 -451 -320 -51 -96 -71 -166 -77 -270 -20 -337 218 -623 558 -671 319 -45 640 172 714 483 19 83 19 225 -1 303 -45 176 -173 335 -334 413 -131 64 -282 87 -409 62z"/>
</g>
</svg>