<?xml version="1.0" encoding="utf-8"?>
<!DOCTYPE svg PUBLIC "-//W3C//DTD SVG 20010904//EN" "http://www.w3.org/TR/2001/REC-SVG-20010904/DTD/svg10.dtd">
<svg height="467.000000pt" preserveAspectRatio="xMidYMid meet" version="1.0" viewBox="0 0 1280.000000 467.000000" width="1280.000000pt" xmlns="http://www.w3.org/2000/svg">
<metadata>
Created by potrace 1.15, written by Peter Selinger 2001-2017
</metadata>
<g fill="#FFFFFF" stroke="#FFFFFF" transform="translate(0.000000,467.000000) scale(0.100000,-0.100000)">
<path d="M1207 4442 c-9 -9 -17 -40 -19 -67 -2 -28 -7 -50 -12 -50 -5 0 -40 -2 -77 -5 -72 -5 -79 -2 -79 41 0 32 -36 59 -79 59 l-38 0 9 -52 c12 -64 18 -72 62 -72 33 0 35 -3 46 -44 13 -51 3 -194 -36 -545 -13 -120 -24 -222 -24 -227 0 -6 -17 -11 -37 -11 -21 -1 -51 -4 -68 -8 -21 -5 -33 -2 -41 8 -10 12 -16 12 -42 2 -17 -7 -38 -21 -47 -31 -16 -18 -16 -21 4 -46 14 -18 18 -31 11 -43 -5 -9 -59 -77 -120 -151 -172 -209 -161 -180 -158 -421 l3 -204 125 -3 126 -3 11 -28 c6 -17 28 -39 52 -52 22 -13 39 -29 36 -36 -5 -15 17 -38 56 -59 31 -16 60 -8 76 20 5 9 32 17 63 21 31 4 50 3 43 -2 -7 -5 -13 -39 -15 -78 -3 -64 -5 -70 -28 -75 -20 -5 -25 -12 -24 -36 1 -16 5 -39 9 -51 6 -18 0 -26 -32 -47 -21 -14 -63 -30 -93 -36 -70 -13 -77 -21 -61 -65 17 -49 5 -61 -79 -76 -81 -14 -112 -38 -92 -69 7 -11 12 -26 12 -34 0 -25 -71 -75 -137 -97 -35 -11 -63 -26 -63 -32 0 -6 6 -26 12 -45 13 -34 12 -35 -34 -77 -26 -23 -45 -45 -42 -48 3 -3 51 10 107 29 172 58 161 45 -35 -42 -79 -35 -144 -68 -146 -74 -3 -7 8 -25 23 -40 20 -21 25 -33 18 -42 -16 -21 -36 -102 -26 -105 5 -2 7 -17 5 -34 -3 -20 -14 -34 -34 -45 -34 -17 -32 -37 3 -43 29 -4 39 -17 39 -55 0 -49 22 -96 44 -96 10 0 56 14 102 32 71 27 86 29 99 18 15 -12 10 -17 -40 -42 -63 -33 -72 -46 -55 -87 9 -23 9 -34 0 -51 -10 -18 -9 -25 3 -37 13 -14 18 -13 45 2 l30 18 52 -41 c46 -36 54 -40 76 -30 31 15 45 2 59 -54 6 -23 15 -43 21 -45 5 -2 29 13 52 33 42 36 44 36 86 24 24 -7 53 -9 64 -6 16 5 21 1 25 -24 10 -46 33 -48 76 -6 37 36 40 37 91 30 47 -6 54 -10 66 -40 8 -19 18 -34 23 -34 5 0 28 16 52 35 39 33 46 36 98 33 52 -3 56 -5 59 -30 2 -14 10 -32 17 -38 12 -10 21 -6 46 19 30 30 33 31 93 25 57 -6 63 -9 73 -35 6 -16 16 -29 22 -29 6 0 29 17 52 37 33 30 48 37 76 34 19 -1 40 3 48 9 17 14 35 -14 35 -54 0 -36 29 -34 64 3 23 24 35 29 60 25 62 -11 95 -26 101 -45 9 -28 42 -23 57 9 12 25 18 27 85 30 l72 3 9 -33 c10 -39 31 -43 48 -10 6 13 16 28 20 32 13 13 154 -10 154 -25 0 -15 38 -50 46 -42 4 4 8 17 9 29 1 13 3 26 4 31 0 4 44 6 95 5 l95 -2 8 -35 c9 -38 30 -47 44 -18 5 9 13 25 18 35 7 14 23 17 94 18 l86 1 3 -36 c2 -28 7 -36 23 -36 14 0 21 8 25 30 6 36 33 42 101 24 24 -6 56 -12 72 -13 18 -1 27 -7 27 -17 0 -20 26 -43 39 -35 5 4 12 20 16 36 4 16 11 32 15 35 5 3 39 0 75 -7 49 -9 71 -9 85 -1 22 14 40 -1 40 -33 0 -20 17 -34 41 -34 6 0 9 17 7 38 l-3 37 80 1 c44 1 85 3 90 4 25 6 34 -3 37 -37 2 -30 7 -38 23 -38 15 0 21 8 25 35 6 39 5 39 137 29 50 -4 52 -5 55 -34 2 -23 9 -31 27 -33 21 -3 23 -1 19 27 -3 18 1 36 8 42 6 5 47 8 90 7 76 -3 79 -2 82 20 6 37 30 38 67 2 30 -29 36 -31 50 -20 12 10 15 23 11 45 -8 39 1 46 72 70 45 14 54 21 59 46 8 41 23 50 63 39 53 -15 63 0 55 81 -6 60 -4 71 16 98 19 25 21 38 16 83 -6 52 -6 53 26 68 24 11 31 21 30 38 -3 22 -1 22 45 16 26 -3 162 -7 301 -8 l253 -1 22 28 c25 31 56 36 56 9 0 -11 -11 -70 -25 -132 -29 -133 -30 -155 -9 -206 23 -55 173 -301 253 -414 37 -52 75 -108 84 -123 34 -54 125 -74 141 -31 4 9 1 31 -5 48 -24 66 56 755 94 807 24 34 17 58 -32 113 -47 52 -88 180 -100 316 -9 87 -7 101 15 165 13 39 28 100 33 136 5 36 25 112 44 170 21 64 31 106 25 110 -7 4 -6 14 1 27 42 78 -30 169 -100 125 -58 -37 -105 -114 -129 -212 -24 -97 -49 -141 -81 -141 -22 0 -112 46 -143 73 -11 9 -14 17 -8 17 21 0 13 26 -13 40 -17 9 -45 11 -97 6 -85 -8 -99 -18 -163 -123 l-42 -68 -188 -3 c-161 -2 -190 0 -197 13 -7 12 -29 15 -100 15 l-90 0 7 -55 6 -55 -28 0 c-33 0 -83 47 -98 94 -6 19 -16 30 -25 29 -9 -2 -59 41 -112 95 l-97 97 9 185 c5 102 9 206 10 233 0 35 4 47 15 47 8 0 15 -9 15 -20 0 -11 5 -20 10 -20 6 0 10 9 10 20 0 10 8 24 18 30 16 9 16 11 0 20 -10 6 -14 18 -11 30 5 17 0 20 -26 20 -30 0 -32 2 -27 33 3 17 8 125 11 239 l5 206 -80 18 c-70 15 -80 20 -89 44 -9 27 -13 28 -103 37 -57 5 -99 5 -109 -1 -12 -6 -51 -2 -123 14 -94 20 -106 25 -106 44 1 33 18 98 28 105 15 10 24 81 13 95 -8 10 -4 75 15 232 14 121 27 228 29 239 3 11 22 30 44 42 32 18 40 29 45 60 14 93 18 133 14 133 -19 0 -222 -116 -232 -133 -8 -12 -21 -89 -30 -172 -28 -255 -45 -365 -62 -389 -12 -19 -14 -40 -9 -98 3 -40 2 -79 -3 -86 -14 -20 -224 25 -220 47 2 11 16 17 44 19 l41 3 1 72 c1 40 3 86 4 102 3 28 -1 31 -46 46 -32 11 -53 24 -58 38 -9 26 -24 27 -38 1 -8 -14 -21 -20 -48 -20 -20 0 -48 -6 -62 -13 -21 -11 -25 -19 -26 -67 0 -30 -4 -74 -8 -97 l-8 -42 41 -7 c23 -4 41 -11 41 -16 0 -6 -10 -8 -22 -5 -13 4 -75 18 -138 33 -63 14 -117 28 -118 29 -2 2 6 13 17 24 12 12 21 29 21 39 0 61 -45 438 -56 475 -5 16 -56 56 -105 82 -10 5 -19 18 -21 29 -2 11 -21 33 -43 48 -36 25 -53 29 -165 38 -69 6 -307 14 -530 19 l-405 10 -74 30 c-40 16 -83 39 -95 50 -12 12 -34 21 -48 21 -14 0 -39 7 -54 15 -43 22 -176 21 -197 -3z m1714 -373 c20 -100 21 -129 4 -129 -20 0 -22 8 -30 99 -5 57 -4 72 6 69 8 -3 16 -20 20 -39z m-1746 -271 c-4 -128 -9 -241 -11 -250 -7 -25 -21 -22 -39 5 -14 21 -14 32 0 102 8 44 20 140 25 215 6 74 13 141 15 148 14 40 16 -14 10 -220z m1385 101 l0 -119 -46 0 c-44 0 -46 -1 -42 -25 3 -14 1 -25 -4 -25 -5 0 -8 -12 -6 -27 2 -21 8 -27 23 -26 11 1 31 4 45 5 22 3 25 -1 30 -39 4 -27 15 -49 31 -62 l24 -20 -37 -1 c-29 0 -38 5 -44 23 -8 21 -8 21 -15 -8 -4 -16 -7 -56 -8 -88 -1 -51 -4 -59 -26 -69 -16 -7 -29 -8 -35 -2 -5 5 -12 137 -16 294 -8 318 -10 306 61 312 66 5 65 8 65 -123z m-912 65 c22 -6 22 -8 22 -185 l0 -179 -39 0 c-41 0 -51 -11 -51 -56 0 -20 -5 -24 -32 -24 l-31 0 6 137 c4 75 7 167 7 205 0 55 4 72 20 88 20 20 55 25 98 14z m1306 -131 c3 -43 9 -108 12 -144 7 -69 -7 -99 -44 -99 -15 0 -17 15 -14 152 4 143 8 167 33 168 3 0 9 -35 13 -77z m-448 -479 c-3 -9 -6 -23 -7 -32 0 -14 -2 -13 -9 3 -13 31 -11 45 6 45 11 0 14 -5 10 -16z m-16 -127 c31 -121 36 -157 21 -157 -5 0 -19 15 -30 33 -18 29 -19 38 -8 66 10 28 10 34 -6 45 -13 10 -17 28 -17 76 0 35 2 61 5 59 2 -3 18 -58 35 -122z m-37 -367 c-8 -9 -33 33 -33 54 1 16 5 13 20 -14 10 -19 16 -37 13 -40z m-1623 -320 c24 -15 7 -19 -20 -5 -15 8 -19 14 -10 14 8 1 22 -3 30 -9z m4596 -416 c-3 -9 -6 -27 -6 -40 0 -13 -4 -24 -10 -24 -5 0 -10 18 -10 40 0 30 4 40 16 40 11 0 14 -5 10 -16z m29 -124 c3 -5 2 -10 -4 -10 -5 0 -21 -19 -35 -42 -21 -36 -26 -39 -26 -20 0 50 47 102 65 72z m39 -35 c-3 -8 5 -21 20 -30 40 -26 31 -35 -34 -35 -70 0 -76 11 -30 60 28 30 55 34 44 5z m-4431 -114 c6 -26 3 -28 -34 -23 l-32 5 24 18 c30 23 36 23 42 0z m4452 -48 c-4 -10 -9 -25 -12 -35 -5 -17 -66 -34 -83 -23 -11 7 -13 35 -4 59 4 12 20 16 56 16 44 0 49 -2 43 -17z m-4435 -58 c0 -8 -7 -15 -15 -15 -16 0 -20 12 -8 23 11 12 23 8 23 -8z m-105 -14 c7 -12 -12 -24 -25 -16 -11 7 -4 25 10 25 5 0 11 -4 15 -9z m4484 -87 c-10 -12 -10 -17 0 -23 13 -8 5 -61 -9 -61 -15 0 -62 71 -56 85 3 10 19 15 42 15 32 0 35 -2 23 -16z m-4949 -288 c-8 -8 -28 -17 -45 -21 l-30 -6 35 20 c41 24 60 27 40 7z"/>
<path d="M9834 4281 c-49 -31 -95 -65 -103 -74 -8 -10 -23 -94 -37 -204 -36 -286 -42 -323 -55 -339 -7 -9 -13 -45 -13 -84 -1 -38 -4 -72 -9 -76 -4 -4 -33 -2 -64 5 -101 22 -103 23 -58 35 l40 12 5 84 c3 47 2 90 -2 96 -5 7 -29 17 -53 23 -28 7 -45 17 -45 26 0 9 -10 15 -25 15 -15 0 -25 -6 -25 -14 0 -17 -22 -26 -61 -26 -34 0 -31 -8 -68 208 -24 138 -29 157 -47 158 -87 4 -84 3 -84 28 0 47 -16 52 -227 65 -109 7 -241 10 -293 6 -106 -7 -830 37 -890 55 -20 6 -66 7 -106 4 l-72 -7 -6 -45 c-3 -24 -6 -69 -6 -98 0 -56 -6 -62 -41 -44 -20 11 -27 60 -9 60 11 0 14 49 4 74 -5 12 -20 16 -59 16 -30 0 -56 -3 -59 -8 -2 -4 -1 -23 3 -42 6 -31 11 -35 42 -38 30 -3 37 -8 45 -35 6 -22 19 -37 43 -47 l34 -15 -7 -125 c-4 -69 -15 -201 -24 -295 l-17 -170 -42 0 c-32 0 -48 -6 -71 -28 -27 -26 -33 -28 -64 -19 -53 15 -71 -3 -63 -64 l6 -49 -118 -97 c-65 -53 -130 -110 -146 -126 l-28 -29 3 -164 3 -164 55 -7 c72 -9 230 -10 305 -3 l60 6 16 -34 c17 -33 17 -33 -17 -65 -28 -27 -41 -32 -82 -32 -54 0 -92 -21 -92 -52 0 -29 -38 -78 -60 -78 -19 0 -37 -39 -32 -67 1 -6 -21 -31 -49 -56 -45 -39 -51 -49 -45 -72 8 -31 -7 -55 -35 -55 -27 0 -49 -28 -49 -64 0 -24 -10 -41 -41 -71 -31 -31 -39 -46 -36 -65 3 -14 -2 -37 -11 -52 -9 -15 -13 -30 -10 -34 4 -3 52 1 108 10 55 9 111 16 123 16 22 0 22 -1 -3 -20 -15 -11 -64 -26 -120 -36 -52 -9 -106 -23 -120 -30 -25 -12 -26 -15 -23 -101 1 -48 -3 -100 -9 -116 -7 -19 -7 -31 0 -40 6 -7 14 -32 18 -55 10 -64 18 -67 145 -54 62 7 115 9 120 6 21 -13 4 -22 -62 -33 -95 -15 -109 -24 -109 -66 0 -40 8 -65 22 -65 6 0 26 -13 45 -30 18 -16 37 -30 42 -30 5 0 11 -13 14 -29 7 -33 52 -56 95 -48 21 4 33 0 46 -15 15 -17 25 -19 58 -14 31 5 45 3 59 -10 14 -12 30 -15 64 -11 40 4 50 1 71 -20 21 -21 31 -24 60 -19 26 5 41 2 59 -12 20 -16 32 -18 67 -12 37 7 44 5 61 -16 17 -22 24 -24 68 -18 43 6 51 4 67 -16 18 -22 21 -23 66 -10 45 12 47 12 71 -14 28 -30 26 -30 69 -12 33 14 34 13 55 -15 24 -32 46 -36 96 -15 33 14 34 14 58 -17 l24 -32 55 18 c69 22 78 21 78 -2 0 -28 26 -44 57 -36 57 15 91 10 117 -18 24 -26 25 -26 67 -12 56 20 86 19 93 -3 11 -35 50 -47 107 -34 48 11 52 11 69 -10 17 -21 20 -22 77 -10 77 16 81 15 88 -8 12 -37 35 -40 125 -14 67 20 90 22 110 14 22 -9 46 -3 155 38 72 27 180 66 242 86 61 20 117 44 123 51 7 8 10 28 8 44 -4 29 -2 31 64 56 38 14 71 25 73 25 2 0 2 -89 2 -198 -1 -108 4 -280 12 -381 12 -157 17 -187 34 -204 13 -13 26 -17 45 -12 15 3 252 80 527 170 275 90 700 227 945 304 245 78 551 178 680 222 129 45 285 98 345 119 100 33 110 39 113 63 3 20 -7 37 -42 71 -24 25 -48 55 -51 68 -4 13 -25 60 -46 105 -59 129 -73 209 -66 382 6 155 20 218 76 344 26 57 28 69 22 141 -6 69 -10 81 -34 102 -42 36 -77 31 -140 -21 -53 -42 -97 -111 -97 -148 0 -10 -10 -22 -22 -27 -13 -5 -178 -36 -368 -69 -190 -34 -387 -68 -437 -77 -80 -15 -100 -15 -147 -4 -30 7 -68 10 -85 7 -30 -6 -31 -5 -33 31 0 20 0 49 1 64 2 23 -2 28 -33 34 -52 9 -136 -14 -169 -48 -32 -32 -40 -34 -57 -14 -6 8 -23 16 -38 18 -21 2 -27 8 -27 28 0 25 -1 25 -80 25 l-80 0 -3 28 c-3 28 -5 29 -55 27 -83 -4 -87 -3 -87 26 0 26 -1 27 -49 21 -39 -5 -52 -2 -65 12 -9 10 -16 23 -16 29 0 6 -8 17 -18 24 -10 7 -35 36 -56 63 l-38 50 6 195 c3 107 9 303 12 436 l6 241 -104 13 c-56 7 -116 13 -133 13 -25 -1 -160 29 -309 68 l-38 10 4 51 c3 27 10 53 15 57 14 9 24 66 13 77 -5 5 5 109 22 239 l30 230 49 46 c48 45 49 47 49 107 0 33 -4 63 -8 66 -5 3 -49 -21 -98 -53z m-777 -289 c-3 -15 -1 -35 4 -45 6 -10 21 -59 34 -110 l23 -92 1 55 c1 73 21 54 28 -29 8 -83 -10 -111 -72 -111 -50 0 -48 -4 -59 125 -22 232 -22 229 25 232 18 2 20 -2 16 -25z m-1062 -234 c-4 -112 -11 -213 -16 -226 -9 -23 -11 -23 -145 -20 -178 4 -169 -9 -160 220 4 95 9 185 12 201 l6 27 155 0 155 0 -7 -202z m601 115 c-10 -124 -10 -123 -72 -123 -52 0 -73 -15 -36 -26 9 -3 25 -10 34 -15 10 -5 25 -9 33 -9 11 0 15 -11 15 -36 0 -20 7 -51 16 -70 14 -29 14 -39 4 -64 -12 -28 -15 -30 -70 -30 -57 0 -59 1 -69 33 -5 17 -11 114 -13 215 -2 151 1 185 13 193 7 5 45 9 83 9 l69 0 -7 -77z m3889 -1489 c20 -20 15 -35 -17 -54 -22 -12 -29 -12 -42 -1 -21 18 -20 47 2 60 24 15 38 13 57 -5z"/>
</g>
</svg>