<?xml version="1.0" encoding="utf-8"?>
<!DOCTYPE svg PUBLIC "-//W3C//DTD SVG 20010904//EN" "http://www.w3.org/TR/2001/REC-SVG-20010904/DTD/svg10.dtd">
<svg height="788.000000pt" preserveAspectRatio="xMidYMid meet" version="1.0" viewBox="0 0 1280.000000 788.000000" width="1280.000000pt" xmlns="http://www.w3.org/2000/svg">
<metadata>
Created by potrace 1.15, written by Peter Selinger 2001-2017
</metadata>
<g fill="#FFFFFF" stroke="#FFFFFF" transform="translate(0.000000,788.000000) scale(0.100000,-0.100000)">
<path d="M510 7854 c-211 -55 -388 -216 -465 -424 -36 -98 -46 -270 -21 -370 62 -247 259 -442 502 -496 58 -12 103 -15 183 -11 175 9 299 64 427 192 130 129 194 281 194 462 0 123 -13 180 -67 293 -62 130 -168 238 -293 298 -47 23 -112 49 -145 57 -75 19 -241 19 -315 -1z"/>
<path d="M3753 7851 c-217 -59 -383 -216 -459 -436 -25 -71 -28 -94 -28 -205 0 -109 3 -134 26 -201 38 -109 92 -194 168 -269 127 -124 257 -181 435 -188 279 -11 504 123 626 373 92 188 90 388 -6 583 -77 155 -221 281 -385 334 -95 30 -280 35 -377 9z"/>
<path d="M7015 7854 c-114 -28 -202 -80 -300 -179 -140 -139 -196 -274 -196 -470 0 -184 58 -322 191 -456 69 -70 101 -94 170 -127 111 -54 184 -72 296 -72 186 0 337 62 470 195 141 141 202 300 191 504 -9 175 -64 299 -192 427 -63 64 -98 90 -165 122 -47 23 -112 49 -145 57 -74 19 -239 18 -320 -1z"/>
<path d="M10270 7854 c-145 -38 -288 -136 -375 -259 -274 -383 -67 -929 390 -1030 104 -23 264 -17 355 14 203 69 359 229 427 436 30 94 37 253 14 345 -61 243 -255 439 -491 494 -81 20 -247 19 -320 0z"/>
<path d="M2195 7006 c-285 -56 -495 -279 -536 -569 -38 -273 115 -557 365 -677 340 -163 729 -26 892 315 87 182 84 388 -7 575 -79 161 -251 301 -424 345 -87 22 -209 27 -290 11z"/>
<path d="M5470 7010 c-244 -39 -453 -218 -532 -455 -20 -59 -23 -90 -23 -205 0 -121 3 -143 27 -208 73 -201 217 -345 417 -416 79 -28 97 -30 211 -30 109 0 136 4 207 27 211 70 383 255 438 472 20 79 20 242 0 320 -35 134 -121 269 -222 351 -64 51 -192 115 -266 133 -68 16 -191 22 -257 11z"/>
<path d="M8705 7006 c-240 -46 -436 -219 -512 -450 -22 -69 -26 -99 -26 -201 -1 -104 3 -131 26 -200 38 -113 90 -196 179 -280 78 -75 186 -137 288 -166 70 -20 273 -17 345 5 184 55 332 180 416 352 91 187 90 392 -4 584 -56 115 -177 239 -287 292 -137 67 -290 90 -425 64z"/>
<path d="M12010 7014 c-195 -33 -336 -109 -440 -237 -101 -123 -150 -262 -150 -427 0 -117 17 -190 71 -297 76 -152 209 -267 378 -327 77 -27 98 -30 206 -31 106 0 130 3 209 29 276 91 456 340 456 630 0 158 -49 299 -145 418 -82 101 -231 196 -358 227 -54 13 -188 22 -227 15z"/>
<path d="M575 6040 c-130 -26 -241 -86 -340 -185 -124 -125 -183 -256 -192 -430 -9 -185 50 -353 170 -481 138 -148 295 -216 497 -215 254 1 473 138 585 366 49 100 69 183 68 295 0 186 -59 326 -193 461 -97 98 -183 148 -306 179 -80 21 -212 25 -289 10z"/>
<path d="M3792 6030 c-109 -29 -206 -85 -292 -166 -137 -131 -202 -279 -203 -464 -1 -123 12 -186 62 -295 82 -177 241 -308 436 -360 79 -21 232 -22 319 -1 179 42 355 183 435 348 55 113 74 206 68 328 -12 273 -188 507 -449 597 -103 35 -272 42 -376 13z"/>
<path d="M7065 6035 c-187 -41 -359 -176 -445 -349 -49 -101 -70 -187 -70 -297 0 -184 64 -334 199 -469 136 -136 274 -192 466 -191 156 0 278 41 402 135 111 84 202 223 238 361 22 82 22 243 0 325 -77 294 -345 502 -644 499 -47 0 -113 -7 -146 -14z"/>
<path d="M10304 6030 c-194 -51 -348 -177 -433 -355 -95 -197 -93 -384 6 -585 37 -77 61 -109 122 -170 84 -83 196 -147 306 -176 79 -20 242 -20 320 0 186 49 353 183 432 346 95 193 96 395 5 585 -114 236 -341 376 -604 374 -47 0 -114 -8 -154 -19z"/>
<path d="M2195 5174 c-180 -43 -352 -181 -433 -344 -51 -105 -72 -190 -72 -301 0 -181 64 -334 195 -465 133 -133 281 -195 469 -195 370 0 659 290 659 661 -1 186 -59 327 -193 461 -97 98 -183 148 -306 179 -92 24 -230 25 -319 4z"/>
<path d="M5475 5180 c-236 -50 -426 -222 -502 -455 -33 -101 -37 -262 -9 -364 64 -233 247 -414 481 -476 78 -20 241 -20 320 0 184 47 352 181 432 345 180 366 5 793 -379 927 -58 21 -96 26 -188 29 -63 2 -133 -1 -155 -6z"/>
<path d="M8692 5170 c-116 -31 -206 -83 -297 -175 -133 -132 -195 -283 -195 -469 0 -112 18 -185 72 -296 33 -69 57 -101 127 -170 136 -135 273 -191 466 -191 202 0 383 86 511 242 95 115 144 257 144 416 0 123 -13 180 -67 293 -83 173 -241 302 -429 350 -100 26 -233 26 -332 0z"/>
<path d="M12000 5184 c-349 -67 -591 -398 -542 -740 33 -224 162 -406 357 -504 107 -53 179 -71 300 -71 119 0 192 17 300 70 205 101 346 314 361 547 19 300 -169 578 -456 674 -64 22 -257 36 -320 24z"/>
<path d="M522 3990 c-121 -32 -206 -83 -303 -180 -94 -94 -145 -181 -175 -300 -22 -85 -22 -235 0 -320 75 -294 341 -500 645 -500 182 0 337 65 466 195 140 139 202 301 192 500 -8 172 -67 305 -192 430 -130 130 -258 185 -445 191 -92 3 -129 0 -188 -16z"/>
<path d="M3792 3995 c-81 -18 -192 -72 -264 -130 -255 -202 -322 -570 -156 -853 18 -32 67 -91 108 -132 124 -125 282 -190 461 -190 303 0 570 206 645 500 22 86 22 235 0 320 -31 119 -82 207 -176 301 -97 98 -183 148 -306 179 -90 23 -218 25 -312 5z"/>
<path d="M7034 3991 c-228 -62 -399 -224 -471 -446 -30 -93 -36 -252 -14 -345 32 -133 129 -284 236 -368 213 -168 523 -188 752 -50 134 81 241 214 290 361 24 72 27 98 27 207 0 109 -3 135 -27 207 -65 196 -221 351 -419 420 -102 35 -272 42 -374 14z"/>
<path d="M10287 3994 c-225 -54 -418 -249 -477 -480 -93 -362 141 -739 504 -814 349 -72 692 143 781 489 21 83 21 238 0 322 -60 234 -248 423 -481 483 -76 20 -246 20 -327 0z"/>
<path d="M2258 3149 c-132 -14 -268 -75 -368 -166 -281 -254 -293 -691 -26 -957 323 -324 869 -232 1065 179 95 197 93 384 -6 585 -121 247 -385 390 -665 359z"/>
<path d="M5504 3149 c-243 -27 -471 -215 -545 -449 -79 -253 -12 -511 180 -693 211 -199 536 -234 789 -85 31 18 91 67 132 108 125 124 190 281 190 461 0 107 -27 215 -77 312 -53 102 -182 230 -283 279 -125 61 -246 82 -386 67z"/>
<path d="M8770 3149 c-158 -17 -279 -76 -397 -194 -137 -138 -200 -300 -190 -495 16 -342 281 -609 623 -627 201 -11 359 50 505 196 134 134 192 274 193 461 0 115 -14 180 -64 285 -122 258 -386 405 -670 374z"/>
<path d="M12018 3149 c-187 -20 -362 -127 -466 -283 -94 -140 -132 -295 -113 -450 22 -164 88 -293 210 -409 211 -198 537 -234 789 -85 72 42 188 158 230 230 81 137 111 322 78 478 -43 207 -200 393 -401 477 -91 38 -218 54 -327 42z"/>
<path d="M585 2176 c-202 -47 -361 -169 -454 -349 -55 -104 -75 -203 -69 -336 8 -175 66 -307 189 -430 128 -129 281 -193 459 -195 117 0 184 13 278 55 189 85 330 254 376 449 20 83 20 239 1 315 -54 215 -226 399 -435 469 -103 34 -251 44 -345 22z"/>
<path d="M3835 2174 c-86 -18 -213 -79 -280 -134 -163 -136 -256 -349 -242 -555 23 -318 257 -569 576 -615 439 -64 824 344 737 780 -28 138 -83 239 -185 341 -70 70 -102 94 -172 128 -140 67 -285 86 -434 55z"/>
<path d="M7111 2180 c-210 -45 -384 -175 -472 -355 -53 -108 -70 -181 -70 -300 0 -117 17 -192 66 -290 87 -176 251 -308 445 -356 91 -23 250 -16 345 15 208 67 369 225 437 431 20 59 23 90 23 205 0 121 -3 143 -27 208 -97 267 -327 438 -603 448 -55 2 -120 -1 -144 -6z"/>
<path d="M10341 2174 c-138 -29 -294 -128 -377 -237 -162 -214 -188 -471 -73 -707 34 -69 58 -101 128 -170 138 -137 276 -194 466 -194 120 1 200 20 306 75 244 127 388 403 349 670 -23 164 -91 291 -213 405 -154 142 -379 203 -586 158z"/>
<path d="M2205 1314 c-233 -58 -428 -256 -486 -494 -17 -71 -17 -229 0 -300 60 -243 255 -439 491 -494 83 -20 239 -20 315 -1 308 78 521 366 502 679 -17 276 -199 515 -457 598 -86 27 -278 34 -365 12z"/>
<path d="M5452 1310 c-116 -31 -206 -83 -297 -175 -131 -131 -195 -283 -195 -465 0 -182 64 -334 195 -466 130 -131 281 -194 465 -194 195 0 326 55 465 195 140 139 196 275 196 471 -1 184 -58 321 -191 455 -135 137 -284 200 -470 198 -60 0 -122 -7 -168 -19z"/>
<path d="M8718 1315 c-193 -49 -353 -180 -440 -360 -91 -190 -89 -388 7 -583 78 -158 223 -282 390 -335 100 -32 299 -32 400 0 197 62 357 220 429 422 28 78 30 97 30 211 0 109 -3 135 -26 201 -38 109 -92 194 -168 269 -78 76 -150 121 -252 157 -91 33 -277 42 -370 18z"/>
<path d="M11993 1320 c-184 -37 -368 -179 -452 -351 -60 -123 -74 -191 -69 -329 4 -93 10 -129 33 -190 78 -210 255 -371 470 -425 76 -19 234 -19 310 0 102 26 219 90 295 162 134 125 199 267 208 446 6 138 -8 208 -65 327 -83 173 -242 302 -429 350 -81 21 -221 25 -301 10z"/>
</g>
</svg>