<?xml version="1.0" encoding="utf-8"?>
<!DOCTYPE svg PUBLIC "-//W3C//DTD SVG 20010904//EN" "http://www.w3.org/TR/2001/REC-SVG-20010904/DTD/svg10.dtd">
<svg height="853.000000pt" preserveAspectRatio="xMidYMid meet" version="1.0" viewBox="0 0 1280.000000 853.000000" width="1280.000000pt" xmlns="http://www.w3.org/2000/svg">
<metadata>
Created by potrace 1.15, written by Peter Selinger 2001-2017
</metadata>
<g fill="#FFFFFF" stroke="#FFFFFF" transform="translate(0.000000,853.000000) scale(0.100000,-0.100000)">
<path d="M5546 6935 c-100 -28 -183 -112 -212 -213 -9 -31 -26 -78 -39 -104 l-22 -47 -34 36 c-36 37 -124 93 -148 93 -7 0 -52 19 -99 41 -100 49 -171 58 -304 39 -101 -14 -140 -35 -168 -90 -20 -40 -33 -49 -45 -30 -3 5 -31 17 -63 27 -31 10 -80 32 -109 49 -64 39 -156 59 -226 50 -164 -20 -206 -38 -242 -101 -12 -22 -41 -67 -63 -99 -23 -33 -42 -64 -42 -70 0 -6 -5 -28 -11 -49 l-10 -37 -42 24 c-23 13 -60 29 -82 36 -22 7 -71 27 -109 46 -76 37 -96 41 -96 19 0 -8 8 -15 17 -15 9 0 44 -15 77 -33 34 -19 77 -37 97 -41 40 -7 129 -60 129 -76 0 -6 -10 -4 -22 4 -13 8 -41 22 -63 31 -44 19 -45 22 22 -59 37 -44 40 -58 18 -76 -8 -7 -15 -8 -15 -3 0 5 -21 34 -46 64 -34 39 -67 64 -122 92 -41 20 -83 37 -93 37 -28 0 -31 14 -32 128 0 96 -12 106 -16 15 -1 -23 -6 -33 -16 -33 -13 0 -15 9 -10 45 7 62 -12 130 -45 164 -42 42 -173 93 -240 93 -119 1 -221 -83 -244 -202 -4 -19 -18 -57 -31 -85 -19 -41 -22 -57 -15 -90 l8 -40 1 53 c1 36 7 58 19 70 11 11 22 41 25 67 19 136 144 230 275 205 79 -15 188 -74 209 -112 24 -45 23 -156 0 -173 -22 -16 -22 -35 0 -35 9 0 13 -3 10 -7 -4 -3 -1 -13 5 -21 10 -11 8 -17 -7 -28 -25 -18 -28 -18 -42 5 -9 14 -10 39 -5 83 9 73 2 121 -23 148 -27 30 -157 80 -207 80 -55 -1 -117 -29 -151 -69 -26 -32 -57 -115 -57 -156 0 -12 -9 -30 -21 -41 -16 -14 -20 -27 -16 -52 4 -22 2 -30 -5 -26 -13 8 -3 -12 19 -37 8 -9 17 -48 20 -86 5 -58 2 -75 -16 -111 -24 -46 -52 -69 -98 -78 -49 -10 -48 13 1 35 33 14 50 30 65 60 29 55 26 91 -11 168 -39 82 -44 160 -12 213 12 19 27 59 34 88 17 71 73 142 141 176 29 14 47 26 40 26 -30 0 -116 -58 -148 -99 -18 -24 -40 -70 -49 -100 -9 -31 -24 -74 -34 -96 -10 -22 -23 -51 -29 -65 -9 -20 -10 -10 -6 48 7 82 -11 161 -45 205 -27 34 -164 102 -235 117 -144 30 -294 -66 -339 -216 -9 -33 -27 -79 -39 -104 -21 -44 -25 -101 -13 -175 2 -16 5 -36 5 -42 1 -7 6 -12 13 -10 15 3 37 -57 37 -104 1 -56 -33 -98 -104 -124 -33 -12 -97 -41 -142 -64 -46 -22 -85 -41 -87 -41 -3 0 -7 10 -9 23 -3 16 -5 14 -6 -9 -1 -22 -9 -37 -27 -49 -14 -9 -28 -14 -31 -11 -4 3 -1 37 6 76 9 48 21 80 41 105 31 39 47 104 32 130 -5 10 -5 38 1 72 15 85 -2 127 -61 157 -26 13 -53 21 -59 19 -8 -3 -13 -22 -13 -46 0 -31 -3 -38 -10 -27 -5 8 -10 34 -10 58 0 23 -4 42 -8 42 -11 0 1 -89 16 -116 6 -11 18 -26 26 -34 24 -19 22 -140 -3 -188 -21 -42 -22 -42 -175 -102 -71 -28 -106 -47 -106 -57 0 -12 3 -13 14 -4 8 7 67 33 132 59 109 43 120 50 141 87 17 31 23 57 24 115 1 56 3 67 9 45 18 -70 11 -140 -19 -196 -31 -58 -17 -51 -241 -143 -57 -23 -69 -33 -95 -79 -27 -45 -39 -55 -92 -77 -74 -31 -93 -46 -93 -74 0 -11 -16 -59 -35 -106 -42 -104 -46 -184 -14 -346 11 -59 18 -117 15 -129 -4 -16 9 -43 43 -93 41 -59 49 -77 46 -109 -1 -21 0 -27 2 -13 10 53 23 43 22 -16 0 -44 -3 -54 -10 -39 -6 14 -7 5 -3 -30 3 -27 9 -54 14 -59 5 -5 5 8 0 28 -4 21 -4 36 1 36 5 0 10 -15 10 -32 1 -18 2 -40 3 -48 0 -8 15 -24 33 -35 29 -18 32 -25 33 -69 0 -27 -5 -67 -11 -90 -6 -22 -15 -59 -21 -81 -6 -22 -16 -56 -24 -77 -7 -20 -24 -92 -38 -160 -22 -111 -25 -157 -30 -478 -5 -270 -3 -377 7 -448 11 -79 11 -123 0 -275 -8 -100 -12 -200 -9 -222 3 -22 1 -67 -4 -100 -5 -33 -16 -118 -25 -190 -9 -71 -27 -186 -40 -255 -32 -168 -42 -403 -20 -455 l15 -38 -37 -44 c-45 -53 -107 -152 -100 -160 3 -3 20 19 37 48 17 30 51 78 76 107 l44 53 0 -32 c0 -23 -12 -46 -43 -83 -45 -53 -98 -134 -81 -124 5 3 18 2 29 -2 14 -5 25 -1 37 16 10 12 18 25 18 29 0 4 23 59 52 124 43 94 53 127 54 176 1 33 7 94 13 135 16 111 49 416 61 575 13 165 55 480 76 574 21 95 75 253 93 274 9 11 25 17 40 15 34 -4 60 -71 60 -158 1 -36 7 -101 15 -145 26 -144 57 -462 54 -550 -1 -38 -1 -38 -7 10 -3 28 -6 -38 -6 -145 0 -107 -4 -217 -9 -245 l-10 -50 -7 35 c-4 22 -7 -7 -8 -78 -1 -71 -9 -158 -23 -230 -18 -92 -23 -153 -23 -287 0 -93 3 -182 8 -197 6 -22 2 -33 -22 -61 -39 -44 -101 -163 -101 -194 0 -64 87 -93 292 -96 111 -1 127 1 159 20 19 12 42 35 50 49 8 15 31 44 52 63 34 32 39 43 44 96 3 33 9 65 13 70 5 6 22 48 40 95 71 190 73 195 82 174 6 -13 7 -9 3 14 -2 18 -1 31 3 28 4 -2 6 35 4 82 -3 83 -3 86 13 64 11 -15 18 -53 22 -115 5 -62 9 -84 14 -67 l7 25 1 -27 c1 -16 -4 -28 -10 -28 -8 0 -8 -4 1 -15 6 -8 9 -19 5 -25 -11 -18 -34 -11 -49 18 -8 15 -15 22 -16 16 0 -7 8 -22 19 -35 17 -22 18 -25 3 -56 -10 -21 -21 -32 -30 -28 -7 2 -10 0 -7 -5 3 -5 -6 -27 -20 -50 -30 -48 -41 -110 -20 -110 18 0 20 -20 3 -21 -7 -1 -2 -5 12 -9 14 -4 87 -8 162 -9 l136 -1 40 -39 c46 -45 83 -67 134 -76 20 -4 51 -18 69 -31 18 -13 40 -24 48 -24 9 -1 34 -9 56 -20 48 -23 143 -26 340 -9 161 13 171 15 195 39 27 27 25 79 -5 136 -14 26 -25 48 -25 50 0 6 58 20 80 19 88 -5 136 -18 146 -38 13 -30 56 -39 159 -32 128 8 173 15 178 29 2 6 3 3 2 -6 -4 -25 32 -24 40 1 4 13 19 20 53 25 39 5 51 12 66 36 19 34 15 77 -12 118 -13 20 -13 25 -1 33 23 14 32 10 26 -12 -5 -20 48 35 82 85 12 17 10 17 -12 -3 -30 -27 -32 -25 -17 13 5 14 17 26 27 26 13 0 14 3 5 12 -7 7 -11 30 -11 53 1 37 2 38 8 10 3 -16 11 -29 16 -29 6 1 25 -19 43 -44 24 -34 32 -56 32 -86 l0 -41 -19 40 c-10 22 -25 49 -33 59 -14 18 -15 17 -11 -11 4 -24 -3 -39 -29 -69 -18 -21 -39 -43 -45 -47 -7 -4 -13 -12 -13 -17 0 -25 142 2 172 32 31 31 20 96 -27 164 -42 61 -43 48 8 222 19 61 37 109 40 105 4 -3 7 -130 7 -282 0 -314 8 -390 50 -480 17 -35 30 -76 30 -91 0 -40 27 -58 115 -76 87 -18 192 -15 237 6 32 15 53 68 43 108 -3 15 -24 57 -47 94 l-40 67 16 48 c82 250 116 573 116 1118 1 335 14 655 28 664 5 3 11 13 14 21 13 36 30 -107 77 -650 5 -58 9 -125 9 -150 0 -25 0 -104 1 -176 0 -95 -5 -162 -21 -245 -18 -93 -22 -154 -23 -332 l-2 -217 -25 -28 c-47 -49 -88 -144 -87 -195 1 -25 5 -45 8 -45 3 1 24 -4 46 -10 58 -18 261 -35 325 -27 54 7 70 18 137 96 25 30 66 59 98 69 19 6 40 20 45 31 10 17 23 19 166 19 l154 0 43 -39 c23 -21 61 -48 85 -60 23 -12 42 -28 42 -36 0 -22 51 -44 117 -51 32 -3 67 -9 78 -14 38 -17 111 -18 285 -3 209 17 215 18 240 43 28 28 25 76 -10 139 -16 29 -28 57 -25 60 2 4 40 0 84 -8 61 -11 81 -19 84 -33 4 -13 15 -18 39 -18 27 1 30 2 16 11 -10 5 -18 14 -18 18 0 13 34 9 45 -6 26 -35 255 -39 248 -5 -2 7 2 12 8 12 6 0 9 -6 6 -14 -10 -26 21 -25 38 1 17 25 20 25 87 20 39 -3 68 -3 64 0 -3 4 4 17 15 29 19 20 21 31 16 77 -5 51 -4 55 19 66 14 6 33 11 42 11 9 0 24 5 32 11 21 14 -46 1 -83 -16 -24 -12 -29 -12 -33 0 -3 8 -3 19 1 25 4 7 1 10 -6 8 -21 -5 -20 7 6 65 26 59 155 452 156 477 0 8 8 -1 17 -20 14 -30 17 -82 19 -357 2 -341 9 -409 48 -496 14 -30 27 -69 29 -87 5 -44 23 -56 114 -76 87 -19 191 -15 239 10 59 30 54 109 -14 211 -30 46 -32 53 -21 82 8 20 21 34 37 38 19 5 22 8 11 15 -8 5 -18 6 -22 4 -19 -12 -5 13 22 40 17 16 30 33 30 38 0 5 5 6 11 2 7 -4 9 11 4 52 -14 135 -15 159 -6 139 5 -11 11 -36 12 -55 1 -19 6 8 11 60 13 144 15 161 27 210 6 25 13 160 17 300 8 383 55 890 101 1090 5 23 6 24 13 5 6 -13 9 -15 10 -5 0 11 3 11 11 -4 12 -20 6 -154 -11 -256 -5 -30 -14 -109 -20 -175 -5 -66 -15 -167 -21 -225 -6 -58 -14 -235 -18 -395 l-8 -290 -36 -115 c-32 -103 -35 -121 -27 -170 l9 -55 -4 55 c-2 42 5 82 32 170 l36 115 8 290 c4 160 12 337 18 395 6 58 16 159 21 225 6 66 15 144 20 174 6 30 10 75 11 100 l1 46 10 -45 c5 -25 7 -137 5 -250 -4 -179 -8 -218 -31 -310 -38 -147 -42 -203 -21 -275 14 -49 19 -124 25 -400 6 -267 11 -353 24 -399 9 -33 21 -65 27 -72 12 -15 -8 -28 -59 -39 -98 -21 -177 -170 -124 -235 17 -20 34 -24 173 -36 194 -17 289 -7 354 40 19 13 46 21 76 22 25 1 78 11 118 23 58 18 81 31 116 68 43 44 45 45 107 45 104 -1 235 26 269 55 41 35 55 25 62 -42 3 -31 11 -63 17 -70 7 -8 9 -19 5 -25 -4 -6 -4 -22 -1 -36 5 -18 27 -34 93 -65 l86 -42 121 7 c136 7 230 26 255 50 18 19 21 100 4 117 -7 7 -7 22 0 48 10 36 11 37 58 37 26 0 54 5 61 12 21 17 86 0 143 -38 17 -11 41 -25 55 -31 36 -16 197 -24 213 -11 7 6 33 12 58 12 78 1 77 0 95 58 14 44 15 62 7 96 -6 22 -9 56 -6 74 5 31 8 33 33 28 15 -3 44 -1 63 5 34 9 38 15 75 112 32 82 91 261 139 422 5 15 10 8 19 -30 10 -35 14 -129 14 -315 0 -329 10 -427 50 -522 16 -38 30 -80 30 -92 0 -34 13 -46 66 -62 114 -35 258 -28 307 14 32 28 23 99 -23 175 l-41 67 35 139 c70 279 83 434 97 1149 5 295 14 571 19 612 5 41 9 84 9 95 1 18 8 20 65 20 l65 0 10 -40 c21 -84 34 -292 28 -445 -5 -120 -13 -185 -37 -288 -35 -156 -36 -186 -10 -312 17 -81 20 -136 20 -365 0 -302 9 -384 47 -465 14 -30 28 -70 32 -89 5 -28 12 -36 44 -47 68 -24 190 -36 243 -24 78 18 94 32 94 88 0 39 -8 62 -41 116 l-40 67 15 47 c83 258 104 462 116 1137 5 275 14 557 21 627 l12 126 52 -5 c110 -11 150 37 148 182 0 57 -9 96 -47 205 -28 81 -67 230 -97 370 -27 129 -63 290 -80 357 l-30 121 48 43 c81 73 163 163 169 186 4 15 -4 34 -25 60 -59 74 -64 98 -72 348 -6 201 -12 255 -35 337 -3 11 2 17 18 20 17 2 23 10 23 27 0 19 -11 31 -44 50 -34 21 -53 43 -86 103 l-43 77 34 -16 c27 -13 36 -14 49 -3 20 16 19 47 -2 58 -14 9 -14 10 5 16 42 14 36 76 -7 76 -10 0 -25 15 -34 35 -19 40 -22 69 -7 60 6 -3 19 -3 30 0 30 9 26 53 -5 67 -18 8 -23 17 -19 32 3 15 -9 39 -41 81 -44 56 -45 60 -26 67 12 4 21 16 21 27 0 43 -115 140 -185 157 -16 4 -68 25 -114 47 -98 48 -162 56 -294 37 -100 -14 -139 -35 -167 -90 -11 -22 -22 -40 -24 -40 -2 0 -28 11 -58 25 -29 14 -58 25 -65 25 -7 0 -33 13 -58 29 -66 42 -161 65 -232 57 -158 -17 -216 -39 -243 -91 -8 -17 -34 -57 -57 -89 -24 -33 -50 -85 -59 -117 l-16 -58 -42 23 c-22 13 -59 29 -81 36 -22 7 -72 28 -112 47 -41 20 -79 33 -88 29 -18 -7 -11 -26 10 -26 7 0 44 -16 81 -35 37 -19 75 -35 84 -35 10 0 43 -13 73 -29 31 -16 57 -27 60 -25 2 2 4 -3 4 -11 0 -19 -1 -19 -39 1 -18 9 -45 20 -60 25 -27 7 -25 4 22 -49 52 -58 57 -71 39 -89 -8 -8 -24 5 -61 50 -40 51 -63 69 -126 99 -42 20 -91 40 -108 43 -30 6 -32 4 -43 -40 -6 -25 -14 -73 -17 -108 -8 -98 -11 -105 -52 -126 -40 -20 -75 -15 -85 13 -4 10 7 22 36 38 43 24 59 54 35 69 -10 6 -10 9 0 9 7 0 12 13 12 33 0 17 4 49 9 70 8 33 7 37 -10 37 -14 0 -21 -9 -25 -30 -4 -16 -11 -30 -16 -30 -6 0 -8 11 -6 25 4 17 1 25 -8 25 -18 0 -18 41 1 66 18 24 19 34 2 34 -15 0 -58 92 -77 163 -15 56 -84 138 -139 167 -20 10 -55 21 -76 24 -37 5 -36 5 8 -8 101 -30 173 -105 198 -209 6 -28 20 -65 31 -82 10 -16 18 -36 18 -42 0 -23 -26 -14 -38 12 -6 14 -16 25 -22 25 -5 0 -10 10 -10 23 0 47 -30 124 -65 164 -46 55 -115 86 -186 85 -66 0 -193 -49 -238 -91 -40 -37 -56 -100 -44 -173 6 -35 6 -63 0 -73 -10 -19 -1 -99 15 -130 6 -11 19 -29 28 -40 10 -11 24 -48 31 -81 10 -50 10 -67 -1 -94 -17 -40 -52 -64 -81 -55 -22 7 -22 8 -4 21 10 8 14 14 9 14 -6 0 -15 -5 -21 -11 -20 -20 -58 -2 -76 36 -25 52 -22 118 7 168 13 23 27 58 31 77 l8 34 17 -58 c10 -32 27 -68 38 -80 11 -11 27 -43 36 -71 14 -45 15 -46 10 -11 -6 47 -18 73 -44 106 -26 33 -38 117 -36 255 1 141 17 174 102 222 32 18 54 33 49 33 -6 0 -35 -15 -65 -32 -77 -47 -95 -86 -96 -211 0 -53 -4 -100 -7 -104 -4 -3 -7 0 -7 8 0 8 -11 37 -25 64 -13 28 -25 59 -25 70 0 29 -42 115 -75 153 -62 74 -173 111 -273 92 -80 -16 -210 -86 -239 -130 -31 -45 -46 -105 -41 -162 l5 -47 -41 33 c-45 37 -117 76 -139 76 -8 0 -44 16 -81 36 -101 53 -170 65 -290 48 -115 -16 -161 -36 -183 -78 -28 -56 -31 -57 -74 -36 -21 11 -44 20 -50 20 -7 0 -55 21 -107 47 -89 45 -101 48 -171 48 -97 0 -202 -18 -241 -41 -17 -10 -40 -37 -51 -59 -11 -22 -38 -64 -60 -94 -22 -30 -44 -73 -50 -95 -5 -23 -12 -46 -14 -53 -3 -8 -21 -2 -57 17 -29 16 -60 30 -68 30 -8 0 -52 18 -98 41 l-84 41 7 64 c9 87 -13 161 -60 203 -20 17 -39 31 -43 31 -3 0 10 -13 30 -30 46 -38 55 -64 57 -172 2 -84 1 -88 -19 -88 -16 0 -20 5 -16 18 24 84 12 158 -35 208 -35 38 -158 88 -226 92 -76 5 -124 -10 -175 -56 -46 -42 -74 -92 -89 -161 -6 -27 -17 -55 -24 -61 -35 -29 -25 -140 16 -181 10 -10 19 -31 20 -46 l1 -28 7 25 c12 42 22 7 23 -82 1 -75 -2 -88 -28 -132 -35 -59 -57 -75 -81 -60 -27 17 -25 29 6 41 18 6 42 30 61 59 24 38 30 58 29 98 l-2 51 -6 -50 c-12 -95 -83 -167 -150 -150 -24 7 -23 8 27 31 44 19 56 30 73 68 22 50 18 118 -8 148 -18 21 -43 102 -43 142 0 17 11 53 24 81 13 27 31 75 40 106 27 93 92 155 196 186 l45 13 -40 -6 c-109 -16 -210 -116 -230 -229 -4 -22 -13 -47 -20 -55 -7 -8 -20 -37 -29 -65 l-15 -50 1 90 c2 154 -26 207 -143 266 -55 27 -165 60 -199 58 -8 0 -37 -7 -64 -14z m143 -25 c96 -29 178 -78 215 -129 l31 -43 -3 -143 c-3 -159 -9 -191 -48 -247 -21 -29 -28 -53 -30 -98 -2 -36 1 -60 7 -60 6 0 7 -4 4 -10 -24 -39 -43 42 -27 118 6 29 22 67 36 83 25 29 40 80 38 129 0 14 -2 75 -4 137 -2 94 -6 116 -24 140 -26 36 -148 100 -217 114 -68 14 -151 -7 -201 -52 -42 -37 -57 -23 -16 16 28 27 116 64 154 65 10 0 49 -9 85 -20z m-3298 -4 c74 -23 182 -81 213 -116 39 -45 45 -81 39 -234 -5 -132 -10 -149 -60 -240 -18 -34 -27 -136 -12 -136 6 0 7 -5 3 -12 -10 -17 -34 20 -34 53 0 41 22 129 32 129 26 0 67 154 50 187 -6 11 -6 40 0 78 19 114 -14 176 -123 230 -133 68 -225 67 -315 -1 -26 -20 -44 -28 -44 -21 0 23 47 59 102 78 64 22 89 23 149 5z m6508 -2 c91 -27 156 -101 182 -210 6 -27 20 -62 29 -79 10 -16 20 -42 24 -57 8 -36 -11 -121 -40 -176 -40 -75 -26 -166 32 -211 27 -21 12 -35 -18 -19 -54 27 -82 200 -37 229 41 28 54 184 19 219 -11 11 -20 31 -20 45 0 13 -10 50 -21 81 -45 120 -161 190 -276 166 -29 -6 -84 -26 -123 -45 -38 -20 -70 -32 -70 -28 0 9 145 78 190 90 51 13 70 13 129 -5z m-3153 -60 c95 -42 121 -66 134 -126 9 -38 9 -69 2 -108 -6 -34 -7 -59 -1 -64 20 -22 -3 -137 -36 -171 -30 -34 -52 -134 -37 -181 9 -30 8 -36 -11 -49 -11 -8 -24 -12 -28 -9 -32 20 -7 185 36 236 29 35 27 20 30 178 3 164 -2 177 -94 223 -92 46 -148 55 -206 33 -75 -29 -126 -102 -140 -201 -4 -27 -13 -54 -19 -60 -7 -5 -18 -19 -25 -30 -11 -17 -12 -14 -7 25 2 24 11 49 19 55 7 5 19 38 27 73 38 182 182 253 356 176z m716 -7 c93 -45 108 -68 108 -161 0 -77 -6 -96 -31 -96 -16 0 -19 8 -19 55 0 80 -14 102 -93 141 -86 44 -151 53 -212 30 -77 -30 -135 -120 -135 -210 0 -15 -8 -31 -20 -38 -13 -9 -20 -24 -21 -48 l-1 -35 -9 30 c-11 36 -4 89 16 105 7 6 18 34 24 61 42 195 198 261 393 166z m3107 27 c70 -20 135 -85 156 -157 8 -28 15 -59 15 -69 0 -10 8 -26 18 -36 13 -13 19 -34 19 -68 0 -27 -2 -38 -4 -24 -3 14 -13 32 -22 40 -10 8 -23 41 -30 75 -32 169 -170 228 -337 144 -55 -27 -73 -42 -88 -73 -17 -34 -18 -46 -7 -102 8 -46 8 -69 0 -87 -14 -30 4 -100 33 -129 23 -23 48 -105 48 -161 0 -21 -9 -56 -20 -77 l-20 -40 -35 17 c-35 17 -46 33 -22 33 6 0 20 21 31 46 17 41 17 51 6 106 -7 33 -21 68 -30 77 -10 9 -22 26 -28 37 -17 32 -27 130 -14 138 7 4 7 20 0 48 -12 53 -4 133 17 164 26 40 169 105 251 113 6 1 34 -6 63 -15z m-7098 -35 c38 -18 81 -45 94 -61 30 -35 41 -103 27 -171 -6 -32 -7 -56 -1 -61 22 -23 1 -134 -32 -167 -29 -29 -55 -145 -41 -183 10 -26 9 -33 -7 -49 -10 -11 -23 -17 -29 -13 -34 21 -9 190 36 238 24 26 25 33 28 170 2 98 -1 151 -9 168 -15 31 -136 97 -195 106 -56 8 -113 -8 -156 -47 -42 -36 -64 -82 -79 -161 -6 -33 -17 -62 -24 -65 -7 -3 -13 -12 -13 -21 0 -12 -3 -13 -11 -5 -12 12 6 83 21 83 4 0 11 19 15 43 9 61 61 163 95 187 82 58 168 61 281 9z m6422 25 c32 -11 61 -32 91 -65 37 -41 47 -62 62 -124 10 -41 21 -75 25 -75 15 0 28 -65 20 -100 l-9 -35 -1 33 c-1 18 -10 41 -21 52 -12 12 -20 33 -20 55 0 119 -111 225 -221 212 -51 -6 -176 -64 -200 -93 -10 -13 -14 -51 -16 -153 -1 -139 7 -195 32 -205 19 -7 45 -99 45 -160 -1 -67 -31 -136 -61 -136 -21 0 -22 1 -4 20 13 14 16 29 12 55 -3 19 -1 37 4 40 5 4 9 17 9 31 0 37 -31 154 -41 154 -24 0 -59 130 -41 153 5 7 8 21 6 32 -13 94 -16 165 -5 165 6 0 11 11 11 24 0 14 5 28 12 32 7 5 8 3 3 -7 -8 -12 -6 -12 8 0 9 7 14 17 12 22 -6 10 80 56 140 75 55 17 93 17 148 -2z m-3517 -150 l-14 -59 -1 42 c-1 23 4 54 11 69 18 40 20 15 4 -52z m-3290 -24 l-14 -65 -1 46 c-1 25 4 61 11 80 18 50 20 14 4 -61z m2877 32 c45 -22 100 -46 123 -52 22 -7 51 -21 65 -32 l24 -19 -24 11 c-36 18 -81 30 -81 21 0 -4 9 -16 20 -26 11 -10 17 -22 13 -28 -3 -6 -1 -7 5 -3 6 4 25 -14 43 -41 18 -27 40 -53 49 -60 9 -6 30 -29 45 -50 17 -22 21 -32 10 -23 -17 14 -18 13 -12 -3 4 -10 7 -22 7 -27 0 -5 12 -23 27 -41 21 -24 22 -29 8 -21 -38 22 -52 37 -70 80 -10 23 -22 42 -27 42 -4 0 -20 19 -35 43 -42 64 -99 127 -135 148 -63 37 -114 58 -157 65 -59 9 -180 -14 -207 -40 -12 -12 -35 -33 -51 -48 l-30 -27 -22 23 -21 22 20 42 c22 46 62 72 112 73 18 0 42 5 53 10 11 5 53 7 93 5 62 -3 86 -10 155 -44z m3181 23 c21 -9 56 -27 77 -41 21 -13 47 -24 56 -24 22 0 91 -32 118 -54 16 -13 12 -13 -20 2 -86 42 -90 39 -38 -28 26 -34 72 -87 101 -118 48 -53 71 -90 37 -62 -8 7 -15 9 -15 6 0 -11 31 -70 49 -91 10 -13 5 -11 -13 5 l-28 25 7 -35 c4 -19 18 -63 30 -97 12 -35 19 -63 16 -63 -18 0 -53 86 -58 143 -6 62 -23 105 -56 142 -32 35 -102 127 -112 146 -5 11 -18 22 -27 25 -10 3 -43 20 -73 39 -69 41 -134 51 -223 35 -58 -11 -75 -20 -127 -64 -32 -28 -56 -43 -52 -34 3 10 3 17 -1 16 -4 -1 -15 2 -24 6 -12 6 -15 13 -9 24 5 10 15 30 22 45 16 34 55 57 101 58 18 1 44 5 58 10 36 12 160 2 204 -16z m396 18 c0 -5 -4 -14 -9 -21 -7 -11 -9 -11 -14 1 -3 8 -3 18 0 21 9 8 23 7 23 -1z m3025 -12 c30 -11 67 -28 82 -39 16 -11 48 -25 73 -32 48 -12 119 -50 138 -73 6 -7 -18 2 -55 20 -36 18 -68 31 -71 29 -2 -3 6 -15 18 -28 12 -13 34 -39 48 -58 14 -19 39 -48 54 -64 32 -33 99 -118 78 -98 -37 33 -33 -2 7 -55 26 -36 21 -43 -10 -15 -20 17 -20 16 -14 -16 4 -18 18 -61 32 -95 38 -91 39 -94 16 -67 -38 44 -60 97 -67 157 -8 68 -28 107 -95 188 -27 33 -57 72 -66 86 -22 34 -138 97 -203 109 -36 7 -73 6 -123 -2 -65 -11 -77 -17 -122 -60 -27 -27 -52 -48 -55 -48 -3 0 -13 11 -22 24 -16 22 -16 27 -3 60 18 44 67 76 115 77 19 0 44 4 55 9 36 15 134 11 190 -9z m-7359 -6 c27 -8 71 -28 97 -45 26 -16 53 -30 60 -30 20 0 97 -32 97 -41 0 -4 -16 -1 -35 7 -48 20 -50 18 -21 -17 26 -31 32 -50 19 -62 -9 -9 -43 22 -43 40 0 7 -6 13 -12 13 -7 0 -37 16 -67 35 -77 49 -141 61 -235 45 -72 -12 -76 -14 -140 -78 -82 -80 -122 -159 -138 -272 -11 -72 -13 -78 -24 -58 -10 19 -10 27 3 47 14 22 14 27 -2 58 -18 32 -18 36 -1 91 21 65 54 125 66 117 4 -3 14 3 21 13 13 15 12 16 -3 3 -10 -7 -18 -9 -18 -3 0 11 67 74 96 90 10 6 15 14 11 18 -4 4 -22 -3 -40 -16 l-32 -23 25 27 c19 20 42 29 90 37 36 6 66 12 69 15 10 10 111 3 157 -11z m3271 -20 c35 -15 68 -34 74 -41 6 -8 21 -14 33 -14 25 0 111 -38 104 -45 -3 -3 -21 2 -41 10 -43 18 -47 11 -12 -25 16 -17 23 -33 19 -43 -9 -25 -23 -21 -42 12 -19 34 -153 106 -216 117 -21 4 -71 1 -110 -7 -63 -12 -76 -18 -124 -64 -99 -93 -138 -169 -151 -300 -7 -68 -8 -69 -21 -42 -10 21 -11 30 -2 39 16 16 15 49 -3 75 -14 20 -13 28 6 87 13 38 26 63 32 59 6 -3 7 -1 3 6 -9 14 31 72 47 68 7 -1 11 5 9 14 -1 9 17 29 43 48 25 18 45 34 45 37 0 11 -21 1 -51 -23 -29 -25 -31 -25 -20 -5 15 28 61 52 103 53 18 0 42 5 53 10 39 17 156 4 222 -26z m3389 20 c27 -8 69 -27 94 -43 25 -15 66 -34 92 -41 26 -8 53 -21 60 -29 11 -13 11 -14 0 -8 -7 4 -26 11 -42 16 l-30 9 26 -34 c19 -25 23 -38 16 -51 -8 -14 -12 -13 -30 11 -43 54 -183 125 -248 125 -15 0 -56 -5 -91 -12 -58 -10 -70 -17 -122 -67 -32 -31 -70 -74 -84 -96 -29 -44 -67 -176 -67 -234 l-1 -36 -15 27 c-13 25 -13 30 0 50 13 20 13 27 -1 56 -15 30 -15 37 2 95 20 66 33 90 45 82 4 -3 7 3 6 13 0 9 4 16 11 15 7 -2 10 3 7 10 -5 15 60 84 87 92 11 4 19 11 19 16 0 15 -15 11 -46 -13 l-29 -21 25 27 c20 20 42 29 90 37 36 6 66 12 69 15 10 10 111 3 157 -11z m-4296 -217 c0 -16 -5 -28 -13 -28 -7 0 -14 -12 -15 -27 -3 -40 -36 -97 -58 -102 -17 -3 -17 -1 4 22 31 33 45 87 32 122 -6 15 -8 36 -5 45 9 30 55 2 55 -32z m-3235 2 c0 -13 -6 -25 -12 -27 -9 -3 -13 6 -13 27 0 21 4 30 13 28 6 -3 12 -15 12 -28z m6481 -35 c-5 -23 -19 -44 -46 -65 -37 -29 -59 -29 -24 1 21 17 44 63 44 88 0 20 22 35 29 19 1 -5 0 -24 -3 -43z m-5321 -32 c-5 -15 -9 -13 -26 13 -11 18 -17 39 -13 49 6 14 10 12 26 -14 12 -18 17 -38 13 -48z m2228 41 c23 -13 49 -24 58 -24 28 0 139 -61 139 -76 0 -13 -5 -12 -27 4 -16 10 -43 24 -61 30 l-32 11 37 -44 c20 -24 39 -42 43 -40 4 2 7 -1 7 -8 0 -7 4 -20 8 -29 5 -12 2 -20 -8 -24 -15 -5 -81 57 -100 95 -5 9 -40 32 -78 51 -61 31 -69 38 -69 63 0 33 12 32 83 -9z m-4006 -96 c9 -10 18 -41 20 -71 5 -69 -20 -110 -84 -138 -46 -19 -48 -19 -61 -2 -19 26 -7 99 24 144 25 37 53 122 55 169 0 15 6 3 15 -30 8 -30 22 -62 31 -72z m3291 -3 c45 -82 16 -162 -71 -198 -41 -17 -50 -18 -58 -6 -16 23 -3 119 20 143 23 25 45 81 56 146 l8 45 12 -45 c6 -25 21 -63 33 -85z m5140 92 c12 -20 14 -29 5 -38 -8 -8 -15 -4 -27 19 -29 57 -10 73 22 19z m-4528 13 c0 -5 -7 -10 -16 -10 -8 0 -12 5 -9 10 3 6 10 10 16 10 5 0 9 -4 9 -10z m1090 -16 c6 -14 10 -31 10 -37 -1 -16 -39 34 -40 51 0 22 20 13 30 -14z m-5650 -84 c0 -5 -2 -10 -4 -10 -3 0 -8 5 -11 10 -3 6 -1 10 4 10 6 0 11 -4 11 -10z m754 -69 c8 -75 3 -107 -24 -161 -28 -56 -55 -75 -85 -62 -34 16 -31 24 14 45 56 26 86 93 79 181 -7 88 8 85 16 -3z m6903 37 c-3 -7 -5 -2 -5 12 0 14 2 19 5 13 2 -7 2 -19 0 -25z m-7628 -30 l-2 -43 -6 35 c-7 33 -5 50 5 50 2 0 3 -19 3 -42z m3318 5 c-3 -10 -5 -4 -5 12 0 17 2 24 5 18 2 -7 2 -21 0 -30z m3626 -31 c-5 -58 -2 -75 17 -112 12 -25 29 -52 37 -62 12 -13 12 -18 1 -24 -9 -6 -4 -10 16 -14 26 -4 27 -7 13 -18 -13 -11 -19 -9 -37 10 -52 54 -74 158 -54 257 10 51 13 36 7 -37z m823 56 c4 -6 -2 -19 -13 -28 -12 -9 -23 -28 -26 -41 -4 -23 -4 -23 -6 3 -1 29 17 78 30 78 4 0 11 -5 15 -12z m-7727 -106 c1 -51 -5 -73 -28 -120 -32 -63 -43 -72 -134 -106 -34 -13 -87 -36 -116 -51 -39 -19 -56 -24 -65 -15 -8 8 -5 12 11 16 12 3 19 12 17 19 -3 8 23 25 72 46 163 72 177 81 207 134 25 45 27 58 24 120 -3 42 -1 60 3 45 4 -14 8 -53 9 -88z m1063 86 c-7 -7 -12 -8 -12 -2 0 14 12 26 19 19 2 -3 -1 -11 -7 -17z m104 -104 c-9 -23 -26 -16 -26 10 0 12 6 38 13 57 l12 34 3 -44 c2 -24 1 -50 -2 -57z m1991 -59 c-2 -5 -11 2 -20 16 -18 28 -39 118 -30 133 6 10 54 -134 50 -149z m123 13 c-10 -36 -20 -45 -32 -32 -4 3 2 24 13 47 10 23 19 58 21 77 1 30 2 29 6 -10 2 -25 -1 -62 -8 -82z m3154 46 c8 -22 8 -44 -2 -44 -4 0 -13 14 -19 30 -9 24 -9 30 2 30 7 0 16 -7 19 -16z m1186 -83 c-1 -26 -39 51 -39 79 -1 20 3 17 19 -19 11 -24 20 -51 20 -60z m-3290 52 c0 -7 -4 -13 -10 -13 -5 0 -10 12 -10 28 0 21 2 24 10 12 5 -8 10 -21 10 -27z m-4375 17 c3 -5 1 -10 -4 -10 -6 0 -11 5 -11 10 0 6 2 10 4 10 3 0 8 -4 11 -10z m1081 -12 c1 -13 6 -38 12 -56 6 -18 7 -30 2 -27 -13 8 -32 74 -26 90 8 21 11 19 12 -7z m610 -15 c-7 -7 -26 7 -26 19 0 6 6 6 15 -2 9 -7 13 -15 11 -17z m3222 -9 c-4 -3 -12 5 -18 18 -12 22 -12 22 6 6 10 -10 15 -20 12 -24z m3438 8 c-4 -3 -14 2 -24 12 -16 18 -16 18 6 6 13 -6 21 -14 18 -18z m-6682 -33 c-8 -14 -21 -10 -28 7 -10 25 5 40 20 19 7 -10 11 -22 8 -26z m3222 2 c-4 -6 -11 -11 -15 -11 -11 0 -21 37 -13 45 9 9 35 -22 28 -34z m3438 -2 c-3 -5 -12 -9 -20 -9 -14 0 -20 31 -7 44 9 9 34 -24 27 -35z m-8354 11 c0 -10 -9 -24 -21 -30 -31 -17 -36 -3 -8 25 30 29 29 29 29 5z m6427 -32 c-3 -7 -5 -2 -5 12 0 14 2 19 5 13 2 -7 2 -19 0 -25z m3462 -38 l12 -25 -19 24 -19 24 -11 -39 c-11 -36 -11 -36 -7 -5 3 18 5 48 5 65 l0 31 13 -25 c8 -14 19 -36 26 -50z m-9429 -4 c0 -8 -4 -17 -9 -21 -12 -7 -24 12 -16 25 9 15 25 12 25 -4z m3288 3 c-2 -6 -8 -10 -13 -10 -5 0 -11 4 -13 10 -2 6 4 11 13 11 9 0 15 -5 13 -11z m4021 -5 c2 -2 2 -7 -1 -10 -4 -3 -19 2 -35 11 l-28 16 30 -6 c16 -4 32 -9 34 -11z m-529 -8 c0 -2 -7 -7 -16 -10 -8 -3 -12 -2 -9 4 6 10 25 14 25 6z m-3396 -15 c17 -6 15 -9 -13 -21 -25 -10 -37 -10 -58 -1 -22 10 -24 14 -12 22 17 10 56 11 83 0z m-3274 -12 c0 -4 -13 -12 -28 -18 -35 -14 -98 3 -72 20 16 10 100 8 100 -2z m6618 -5 c2 -1 -8 -10 -23 -20 -25 -16 -28 -16 -63 0 -45 22 -29 35 36 28 26 -2 49 -6 50 -8z m2688 -91 c22 -42 54 -91 72 -110 38 -38 34 -43 -11 -11 -18 13 -35 23 -39 23 -14 0 -68 115 -68 145 0 16 2 30 4 30 2 0 21 -34 42 -77z m-3446 10 c0 -24 -25 -9 -28 17 -3 21 -2 22 12 11 9 -7 16 -20 16 -28z m-6710 -28 c0 -2 -17 -16 -37 -29 -27 -19 -40 -23 -50 -14 -20 16 -16 25 15 36 29 11 72 15 72 7z m9991 -163 c59 -74 135 -162 168 -197 62 -64 66 -71 55 -99 -9 -23 -45 -20 -151 14 -107 34 -153 38 -176 13 -9 -11 -33 -110 -61 -258 -52 -278 -51 -265 -72 -540 -20 -258 -20 -260 -107 -250 -34 3 -62 7 -63 8 -1 1 -6 15 -10 31 l-7 28 56 -3 57 -4 5 40 c2 22 10 91 15 154 6 62 18 127 26 143 12 23 12 28 2 22 -8 -5 -6 2 5 19 21 32 22 55 2 77 -13 14 -13 27 0 106 32 191 83 441 94 463 7 12 28 29 47 37 38 16 69 11 197 -31 43 -14 83 -25 90 -25 6 0 -16 28 -50 63 -61 62 -236 276 -255 310 -8 15 -6 18 8 15 10 -2 66 -63 125 -136z m-3961 118 c0 -5 -2 -10 -4 -10 -3 0 -8 5 -11 10 -3 6 -1 10 4 10 6 0 11 -4 11 -10z m3450 -29 c-1 -13 -3 -13 -15 3 -19 26 -19 42 0 26 8 -7 15 -20 15 -29z m358 -111 l0 -85 -12 100 c-7 55 -10 107 -7 115 9 26 19 -39 19 -130z m-7709 88 c4 -13 11 -60 14 -105 5 -78 4 -82 -13 -73 -28 15 -30 22 -36 115 -4 72 -2 85 11 85 9 0 19 -10 24 -22z m3219 5 c13 -24 26 -183 15 -183 -29 1 -38 23 -43 110 -4 67 -2 90 7 90 7 0 16 -8 21 -17z m3431 3 c6 -7 13 -40 16 -72 3 -32 8 -71 10 -86 3 -19 0 -28 -9 -28 -28 0 -40 32 -43 116 -4 82 3 98 26 70z m1454 -72 c41 -59 57 -152 57 -349 0 -230 16 -298 92 -407 10 -14 10 -20 0 -30 -9 -9 -15 -8 -27 8 -60 76 -75 150 -80 399 -6 248 -16 296 -75 355 -26 26 -40 49 -40 66 0 25 1 26 23 12 12 -8 34 -33 50 -54z m-186 -181 c-2 -1 -25 5 -52 13 -28 9 -71 13 -97 11 -27 -2 -48 -3 -48 -2 0 2 7 19 15 38 8 20 15 62 15 93 l0 56 85 -103 c46 -57 83 -104 82 -106z m-560 155 c-3 -7 -5 -2 -5 12 0 14 2 19 5 13 2 -7 2 -19 0 -25z m-103 -139 c-8 -13 -24 -1 -24 18 0 13 3 13 15 3 8 -7 12 -16 9 -21z m-3975 -48 c-16 -5 -29 12 -35 45 l-5 29 26 -35 c15 -21 21 -36 14 -39z m-3335 40 c16 -17 16 -19 0 -25 -20 -8 -50 17 -40 33 10 16 20 14 40 -8z m116 -32 c0 -6 -8 -5 -19 1 -11 5 -19 19 -18 31 1 21 1 21 19 -1 10 -12 18 -26 18 -31z m6540 36 c10 -12 10 -19 2 -27 -15 -15 -48 14 -38 31 10 15 21 14 36 -4z m110 -20 c7 -9 10 -18 7 -22 -8 -7 -37 15 -37 28 0 14 16 11 30 -6z m760 -6 c0 -6 -4 -7 -10 -4 -5 3 -10 11 -10 16 0 6 5 7 10 4 6 -3 10 -11 10 -16z m-151 -34 c29 -33 43 -74 21 -60 -5 3 -10 13 -10 21 0 8 -5 14 -11 14 -11 0 -48 40 -49 53 0 16 20 5 49 -28z m218 -74 c-10 -11 -13 -9 -18 10 -4 13 -7 35 -8 49 0 23 1 22 19 -10 14 -27 16 -38 7 -49z m-7547 9 c0 -9 -8 -16 -17 -17 -15 -1 -18 6 -16 35 1 20 2 39 3 42 2 10 29 -45 30 -60z m6660 -6 c0 -7 -6 -11 -14 -8 -13 5 -27 59 -18 69 6 6 32 -43 32 -61z m149 52 c7 -8 8 -17 3 -19 -4 -3 -13 3 -20 14 -14 22 0 26 17 5z m851 -18 c-4 -18 -25 -127 -46 -241 -21 -115 -40 -204 -42 -198 -3 10 41 260 55 306 5 19 5 19 -18 -2 -39 -35 -90 -36 -81 0 5 23 121 167 133 167 4 0 4 -15 -1 -32z m-4434 -33 c7 -28 6 -29 -9 -13 -9 9 -17 27 -17 39 0 30 16 14 26 -26z m4027 18 c4 -3 -2 -12 -13 -20 -15 -10 -36 -12 -80 -7 -57 6 -68 12 -53 27 8 9 138 9 146 0z m-3922 -48 c8 20 8 20 8 0 0 -20 -36 -72 -44 -63 -3 3 -2 27 2 54 6 48 7 48 16 19 9 -27 11 -28 18 -10z m-3233 -10 c-1 -19 -7 -40 -15 -46 -15 -13 -17 -1 -7 50 9 42 24 39 22 -4z m6680 10 c2 -12 -8 -31 -23 -45 l-26 -25 2 48 c2 42 5 48 23 45 12 -2 22 -12 24 -23z m699 -37 c-2 -13 -4 -3 -4 22 0 25 2 35 4 23 2 -13 2 -33 0 -45z m-104 25 c6 -32 3 -38 -12 -28 -13 8 -15 55 -2 55 5 0 11 -12 14 -27z m-823 -13 c-30 -24 -50 -25 -50 -4 0 11 6 13 19 9 11 -3 22 -1 26 5 3 5 12 10 18 10 7 0 1 -9 -13 -20z m980 -398 c17 -38 30 -78 27 -88 -6 -27 -54 78 -67 147 -6 30 -12 104 -15 164 l-4 110 13 -132 c11 -110 19 -143 46 -201z m-4273 296 c-3 -8 -6 -5 -6 6 -1 11 2 17 5 13 3 -3 4 -12 1 -19z m4783 -7 c15 -29 12 -114 -4 -137 -13 -17 -27 -19 -131 -19 -104 0 -118 2 -131 19 -16 23 -19 122 -4 131 6 4 10 -12 10 -39 l0 -46 105 0 105 0 0 55 c0 48 2 55 20 55 10 0 24 -9 30 -19z m-4760 -51 c0 -13 -1 -13 -10 0 -5 8 -10 22 -10 30 0 13 1 13 10 0 5 -8 10 -22 10 -30z m4680 15 c0 -26 -1 -26 -72 -23 -67 3 -73 5 -76 26 -3 21 0 22 72 22 75 0 76 0 76 -25z m-1241 -28 c1 -5 -3 -5 -9 -2 -5 3 -10 16 -9 28 0 21 1 21 9 2 5 -11 9 -24 9 -28z m-6665 17 c3 -8 2 -12 -4 -9 -6 3 -10 10 -10 16 0 14 7 11 14 -7z m6775 -151 c14 -53 13 -104 -4 -168 l-13 -50 -1 85 c-1 52 -9 113 -21 155 -25 87 -25 86 4 50 14 -16 29 -49 35 -72z m-3430 -63 c4 -98 -4 -102 -18 -9 -6 35 -13 82 -17 104 l-6 40 18 -25 c14 -19 20 -47 23 -110z m3347 43 c3 -48 -1 -41 -16 31 -6 26 -5 35 2 28 6 -6 12 -32 14 -59z m-6657 -2 c1 -35 -5 -22 -12 24 -5 28 -4 34 3 20 5 -11 9 -31 9 -44z m3218 7 c-3 -7 -5 -2 -5 12 0 14 2 19 5 13 2 -7 2 -19 0 -25z m4239 -360 c-14 -172 -17 -188 -37 -188 -17 0 -19 8 -19 75 0 44 6 90 15 111 9 21 10 32 3 28 -7 -5 -8 -2 -3 7 11 19 37 49 43 49 2 0 2 -37 -2 -82z m-10156 -17 c0 -26 -9 -83 -21 -127 -11 -43 -24 -93 -29 -110 -4 -18 -10 -36 -14 -42 -3 -6 -18 -63 -32 -129 -23 -104 -26 -149 -31 -383 -8 -383 -8 -413 7 -539 10 -92 11 -151 2 -300 -7 -102 -14 -224 -16 -271 -6 -120 -33 -319 -67 -495 -23 -118 -29 -179 -30 -285 0 -80 -4 -127 -9 -115 -15 38 0 304 25 430 36 182 70 454 68 540 -2 33 4 140 11 238 12 151 12 192 0 275 -11 76 -13 173 -7 452 6 337 8 361 34 480 15 69 35 150 44 180 27 88 36 131 42 197 6 72 23 75 23 4z m2317 18 c1 -15 0 -17 -3 -6 -3 9 -10 15 -15 12 -5 -4 -9 1 -9 10 0 26 25 11 27 -16z m6661 -5 c-3 -14 -5 -12 -10 9 -3 19 -2 25 4 19 6 -6 8 -18 6 -28z m1716 -89 c13 -55 45 -198 71 -318 53 -251 71 -317 115 -442 35 -97 48 -198 32 -255 -8 -31 -9 -26 -10 40 -1 57 -8 96 -32 165 -51 145 -57 167 -120 460 -33 154 -69 313 -80 353 -21 76 -27 140 -10 112 5 -9 20 -60 34 -115z m-4747 23 c-2 -18 -4 -4 -4 32 0 36 2 50 4 33 2 -18 2 -48 0 -65z m3430 -85 c-2 -32 -3 -8 -3 52 0 61 1 87 3 58 2 -29 2 -78 0 -110z m680 -10 c-2 -21 -4 -4 -4 37 0 41 2 58 4 38 2 -21 2 -55 0 -75z m-7340 -25 c-2 -24 -4 -5 -4 42 0 47 2 66 4 43 2 -24 2 -62 0 -85z m6237 37 c17 18 18 17 14 -6 -2 -18 -10 -25 -30 -27 -16 -2 -28 0 -28 5 0 4 -3 19 -7 33 l-6 25 20 -24 c18 -22 20 -23 37 -6z m-6648 -20 c-7 -20 -36 -19 -36 1 0 8 5 12 10 9 6 -3 13 2 17 11 4 12 8 14 11 6 2 -7 1 -19 -2 -27z m457 -171 c3 -20 0 -24 -19 -24 -20 0 -24 5 -24 29 0 24 4 28 19 24 10 -3 21 -16 24 -29z m3219 12 c15 -22 8 -37 -14 -34 -17 2 -24 11 -26 30 -3 23 0 27 15 21 10 -4 21 -11 25 -17z m3441 -16 c4 -16 0 -20 -19 -20 -20 0 -24 5 -24 30 0 27 2 29 19 21 10 -6 21 -20 24 -31z m782 -645 c9 -27 18 -90 20 -140 l4 -90 -9 70 c-5 39 -20 103 -34 144 -14 41 -26 79 -26 85 0 22 28 -22 45 -69z m-4155 -61 c0 -8 -5 -12 -10 -9 -6 4 -8 11 -5 16 9 14 15 11 15 -7z m3435 7 c3 -5 1 -12 -5 -16 -5 -3 -10 1 -10 9 0 18 6 21 15 7z m1302 -117 c-3 -3 -12 -4 -19 -1 -8 3 -5 6 6 6 11 1 17 -2 13 -5z m-4783 -164 c-47 -275 -97 -435 -180 -570 l-46 -75 6 69 c5 45 16 87 35 125 39 76 84 221 114 368 18 85 32 128 46 142 12 12 24 39 27 61 4 23 10 38 15 33 4 -4 -4 -73 -17 -153z m3446 68 c-32 -213 -95 -458 -142 -553 -22 -43 -89 -155 -93 -155 -2 0 -1 28 2 63 4 40 16 83 35 120 42 83 83 217 114 364 16 78 33 136 44 148 10 11 23 40 30 64 18 68 24 40 10 -51z m-6666 -34 c-18 -121 -35 -161 -27 -63 4 58 32 183 40 176 1 -2 -5 -52 -13 -113z m7927 14 c-18 -168 -22 -257 -31 -758 -5 -272 -14 -540 -20 -595 -11 -108 -50 -328 -56 -322 -2 2 5 55 15 118 32 189 42 360 52 894 8 458 15 605 35 728 12 73 15 28 5 -65z m-9796 -69 c-56 -196 -93 -442 -115 -754 -6 -82 -13 -170 -17 -195 l-7 -45 -6 45 c-3 28 -8 -15 -12 -118 -4 -90 -12 -171 -17 -180 -14 -23 -14 120 -1 248 6 52 14 165 20 250 10 163 39 409 65 548 31 165 100 351 122 329 1 -2 -13 -59 -32 -128z m3310 104 c-2 -16 -15 -68 -29 -117 -35 -118 -59 -258 -87 -496 -12 -107 -26 -197 -30 -200 -4 -3 -9 -19 -12 -35 -2 -17 -5 11 -5 60 -2 104 28 376 57 515 18 87 71 265 86 290 12 20 24 10 20 -17z m3434 -23 c0 -10 -3 -8 -9 5 -12 27 -12 43 0 25 5 -8 9 -22 9 -30z m2646 -168 c36 -273 29 -512 -20 -722 -29 -122 -30 -182 -8 -265 12 -46 17 -140 22 -405 l7 -345 32 -72 c18 -39 32 -79 32 -87 0 -9 10 -21 23 -26 32 -13 11 -12 -34 2 -30 8 -39 16 -39 33 0 12 -13 51 -29 86 -40 89 -43 125 -46 459 -2 241 -5 308 -19 365 -24 96 -22 171 9 303 45 198 51 352 23 643 -6 66 -7 141 -3 175 l8 59 14 -45 c7 -25 20 -96 28 -158z m-3450 58 c2 -36 9 -92 16 -125 10 -42 13 -129 13 -285 -2 -214 -3 -232 -33 -361 -36 -156 -36 -172 -15 -254 12 -45 18 -143 24 -400 5 -187 13 -358 19 -380 8 -31 7 -43 -3 -53 -11 -11 -16 -7 -30 22 -27 57 -35 165 -36 454 0 238 -3 284 -21 365 -23 105 -21 144 18 307 18 74 27 148 32 250 l6 145 14 -88 c8 -48 16 -85 18 -83 5 5 -12 170 -38 354 -20 141 -20 178 1 131 11 -25 10 -10 -5 86 -5 29 -5 30 6 5 6 -14 12 -54 14 -90z m812 68 c-3 -8 -6 -5 -6 6 -1 11 2 17 5 13 3 -3 4 -12 1 -19z m-4989 -48 c-17 -125 -92 -379 -116 -394 -10 -6 5 225 16 254 6 14 19 49 31 78 12 29 16 50 10 47 -6 -4 -3 7 5 24 10 18 22 28 30 25 7 -3 16 2 19 10 12 30 14 15 5 -44z m3212 -71 c-22 -110 -70 -263 -96 -307 -14 -25 -15 -19 -9 86 4 80 12 131 27 170 11 32 21 67 22 79 0 11 4 19 7 17 4 -2 10 3 13 12 4 9 2 13 -5 8 -7 -4 -6 2 1 17 17 32 25 39 17 14 -6 -16 -3 -15 16 6 12 14 23 20 25 14 2 -7 -7 -59 -18 -116z m3435 -1 c-20 -100 -79 -286 -99 -313 -14 -19 -14 -17 -11 20 3 22 6 76 9 120 2 48 13 103 26 137 12 32 18 63 14 69 -4 7 -3 9 3 6 6 -4 14 0 17 9 3 8 2 12 -4 9 -6 -4 -5 5 1 19 7 14 15 23 19 21 4 -3 14 3 21 12 13 15 14 14 17 -5 2 -12 -4 -59 -13 -104z m-1758 35 c-2 -16 -4 -5 -4 22 0 28 2 40 4 28 2 -13 2 -35 0 -50z m2460 10 c-3 -10 -5 -2 -5 17 0 19 2 27 5 18 2 -10 2 -26 0 -35z m-7281 -51 c12 -92 -60 -319 -147 -463 -41 -69 -55 -85 -45 -51 3 9 6 37 7 62 2 27 15 71 34 110 38 76 74 185 106 327 25 107 32 109 45 15z m750 1 c21 -102 31 -191 59 -533 3 -44 2 -59 -4 -45 -7 15 -10 7 -10 -35 -1 -56 -22 -148 -28 -120 -1 8 -12 119 -23 245 -22 247 -35 364 -52 462 -11 69 -6 98 17 89 8 -3 15 0 15 6 0 28 13 -6 26 -69z m4959 -141 c13 -92 29 -219 36 -283 10 -105 9 -119 -6 -143 -10 -14 -21 -24 -25 -21 -4 2 -10 57 -14 122 -4 65 -17 197 -30 293 -17 129 -21 182 -13 204 16 46 26 14 52 -172z m-6928 156 c-3 -7 -5 -2 -5 12 0 14 2 19 5 13 2 -7 2 -19 0 -25z m3491 -113 l-1 -40 -8 45 c-4 25 -7 61 -7 80 l0 35 9 -40 c4 -22 8 -58 7 -80z m4993 -51 c-6 -87 -11 -278 -11 -424 0 -290 -16 -730 -30 -825 l-9 -60 4 55 c2 30 8 273 14 540 12 593 25 889 38 876 2 -2 -1 -75 -6 -162z m-2272 55 c32 -159 34 -186 17 -211 -11 -15 -16 -18 -16 -8 0 8 -7 78 -15 155 -8 77 -15 146 -15 154 0 33 11 -1 29 -90z m-182 39 c-3 -7 -5 -2 -5 12 0 14 2 19 5 13 2 -7 2 -19 0 -25z m-2563 -40 c4 -29 13 -123 21 -208 8 -85 18 -182 21 -215 4 -46 2 -65 -10 -80 -14 -19 -15 -17 -16 35 0 48 -13 202 -36 448 -8 84 9 102 20 20z m-3267 -20 c-2 -13 -4 -3 -4 22 0 25 2 35 4 23 2 -13 2 -33 0 -45z m3211 46 c-4 -3 -2 -20 3 -37 5 -18 16 -106 24 -197 9 -91 20 -208 25 -260 8 -82 7 -104 -10 -160 -10 -36 -33 -121 -51 -190 -17 -69 -35 -131 -39 -139 -14 -26 -23 241 -16 494 8 329 30 495 64 495 3 0 3 -3 0 -6z m2717 -184 c21 -154 20 -212 -7 -263 -12 -23 -36 -78 -54 -122 -18 -44 -33 -71 -33 -60 -1 56 39 462 56 565 5 32 6 33 14 13 4 -12 15 -72 24 -133z m748 -25 c35 -302 39 -372 25 -400 -13 -24 -15 -8 -27 159 -6 103 -16 212 -21 244 -12 71 -12 186 -1 157 5 -11 16 -83 24 -160z m-4161 -23 l3 -147 -32 -66 c-18 -37 -33 -72 -33 -77 0 -6 -5 -14 -10 -17 -7 -4 -8 13 -4 52 11 110 34 298 46 372 16 106 27 65 30 -117z m4112 82 c28 -190 50 -523 38 -581 -22 -104 -55 -214 -62 -206 -15 17 -31 277 -33 523 -2 221 0 263 16 314 10 32 20 56 22 54 3 -2 11 -49 19 -104z m-7401 -51 c9 -246 5 -291 -47 -478 -26 -93 -50 -172 -53 -175 -3 -3 -3 18 1 45 3 28 10 118 16 200 18 252 56 545 70 545 4 0 10 -62 13 -137z m781 -128 c10 -121 21 -233 25 -250 5 -18 3 -46 -4 -70 -8 -24 -13 -32 -14 -19 -1 11 -10 121 -21 245 -11 123 -22 249 -24 280 -5 57 3 85 15 52 3 -10 14 -117 23 -238z m21 79 c8 -93 17 -209 20 -259 2 -49 -4 -9 -14 90 -25 250 -33 350 -26 344 3 -3 12 -82 20 -175z m1592 124 c-2 -13 -4 -5 -4 17 -1 22 1 32 4 23 2 -10 2 -28 0 -40z m4190 0 c-2 -13 -4 -5 -4 17 -1 22 1 32 4 23 2 -10 2 -28 0 -40z m-2492 -129 c15 -166 18 -236 11 -228 -4 3 -36 357 -36 392 0 6 2 8 5 5 3 -2 11 -78 20 -169z m-2515 48 c0 -67 -4 -109 -12 -120 -11 -14 -12 5 -6 100 7 131 6 123 13 123 3 0 5 -46 5 -103z m3211 -125 c-13 -21 -15 74 -3 169 7 62 7 61 10 -44 1 -59 -2 -115 -7 -125z m3444 31 c-12 -64 -21 -40 -18 45 6 135 17 175 21 72 2 -47 0 -99 -3 -117z m-7501 -18 c40 -445 40 -444 12 -557 -13 -57 -39 -141 -58 -188 l-33 -85 -11 165 c-14 194 -16 431 -5 620 6 117 11 144 35 195 20 45 29 56 36 45 4 -8 15 -96 24 -195z m5843 113 c-3 -7 -5 -2 -5 12 0 14 2 19 5 13 2 -7 2 -19 0 -25z m-5031 -93 c-4 -36 -20 -97 -35 -137 -16 -40 -40 -111 -53 -158 -20 -73 -23 -80 -26 -51 -2 19 2 55 8 80 18 74 102 331 108 331 2 0 2 -29 -2 -65z m3223 3 c-2 -42 -12 -85 -30 -128 -15 -36 -39 -108 -54 -160 -15 -52 -29 -97 -32 -100 -2 -2 -2 20 2 50 5 50 104 400 113 400 2 0 2 -28 1 -62z m3434 -10 c-3 -29 -16 -82 -30 -118 -14 -36 -38 -108 -53 -160 -27 -91 -29 -93 -29 -48 -1 30 17 103 49 205 27 87 50 164 50 171 0 7 4 11 9 8 4 -3 6 -29 4 -58z m-5816 20 c-3 -7 -5 -2 -5 12 0 14 2 19 5 13 2 -7 2 -19 0 -25z m4180 0 c-3 -7 -5 -2 -5 12 0 14 2 19 5 13 2 -7 2 -19 0 -25z m269 -124 c-4 -13 -11 -24 -16 -24 -11 0 -14 109 -3 137 10 24 27 -80 19 -113z m-4449 59 c-3 -10 -5 -4 -5 12 0 17 2 24 5 18 2 -7 2 -21 0 -30z m4170 -60 c-2 -16 -4 -3 -4 27 0 30 2 43 4 28 2 -16 2 -40 0 -55z m-7150 5 c-3 -7 -5 -2 -5 12 0 14 2 19 5 13 2 -7 2 -19 0 -25z m2980 -10 c-3 -8 -6 -5 -6 6 -1 11 2 17 5 13 3 -3 4 -12 1 -19z m-827 -176 c-9 -14 -10 -10 -6 17 3 18 7 63 8 100 2 63 2 63 5 -17 2 -49 -1 -89 -7 -100z m2257 71 c-2 -21 -4 -4 -4 37 0 41 2 58 4 38 2 -21 2 -55 0 -75z m4403 -71 c-9 -13 -10 -2 -6 47 3 35 7 80 8 100 1 20 4 -1 5 -47 2 -49 -1 -89 -7 -100z m-3427 36 c-10 -40 -11 -37 -11 42 0 79 1 82 11 43 7 -29 7 -57 0 -85z m1886 -243 c-23 -77 -44 -153 -47 -168 -2 -16 8 -90 24 -164 l28 -135 -22 -41 c-28 -54 -42 -121 -33 -155 9 -32 5 -48 -20 -73 -25 -25 -64 -26 -50 -1 5 9 14 46 21 82 16 90 22 101 31 65 8 -29 5 122 -7 378 -5 115 -3 139 21 250 15 67 41 160 59 207 l31 85 3 -95 c2 -87 -1 -107 -39 -235z m-3393 227 c-8 -114 -94 -439 -111 -421 -9 10 37 333 55 389 24 71 47 120 57 120 3 0 3 -40 -1 -88z m3261 56 c-3 -7 -5 -2 -5 12 0 14 2 19 5 13 2 -7 2 -19 0 -25z m-7150 -40 c-3 -7 -5 -2 -5 12 0 14 2 19 5 13 2 -7 2 -19 0 -25z m2990 -250 c-1 -51 -3 -12 -3 87 0 99 2 141 3 93 2 -48 2 -129 0 -180z m5172 210 c1 -23 4 -45 6 -49 3 -3 -4 -31 -14 -60 -18 -53 -18 -54 -25 -23 -12 52 7 174 27 174 2 0 4 -19 6 -42z m-2312 -20 c-3 -7 -5 -2 -5 12 0 14 2 19 5 13 2 -7 2 -19 0 -25z m3431 -39 c-5 -39 -17 -108 -28 -155 -31 -131 -34 -181 -15 -259 14 -55 19 -145 24 -425 7 -334 9 -359 30 -415 60 -162 61 -167 22 -145 -12 6 -21 19 -21 29 0 10 -13 48 -29 83 -40 88 -51 202 -51 528 0 195 -4 277 -15 332 -13 59 -14 87 -5 143 9 57 67 293 85 343 10 28 11 8 3 -59z m-4551 -11 c-2 -13 -4 -3 -4 22 0 25 2 35 4 23 2 -13 2 -33 0 -45z m2410 40 c-3 -8 -6 -5 -6 6 -1 11 2 17 5 13 3 -3 4 -12 1 -19z m-1300 -60 c-2 -13 -4 -5 -4 17 -1 22 1 32 4 23 2 -10 2 -28 0 -40z m-1145 -90 l-20 -63 5 50 c2 28 7 66 10 85 5 32 6 33 15 13 8 -16 5 -38 -10 -85z m-4077 -19 c-21 -84 -29 -86 -15 -3 16 92 22 113 27 91 3 -10 -3 -50 -12 -88z m1390 5 c-8 -27 -26 -76 -39 -109 l-25 -60 0 45 c-1 25 6 68 14 95 9 28 20 68 26 90 l11 40 14 -27 c12 -22 11 -33 -1 -74z m3230 58 c3 -16 1 -39 -4 -53 -9 -23 -10 -22 -11 11 0 19 -3 46 -7 59 -4 16 -3 22 5 17 6 -3 13 -19 17 -34z m574 -98 c-23 -122 -24 -181 -2 -276 13 -59 17 -136 18 -393 3 -327 8 -382 44 -453 19 -37 43 -112 36 -112 -18 0 -55 22 -50 30 3 5 -9 44 -26 86 -26 63 -30 80 -20 95 9 15 8 19 -4 19 -8 0 -15 9 -15 20 0 11 5 20 10 20 6 0 10 32 10 76 0 70 -1 75 -16 63 -15 -13 -16 -9 -10 46 4 33 8 98 10 145 1 47 6 94 11 105 8 18 7 19 -8 6 -15 -12 -17 -11 -17 11 0 13 6 30 13 37 6 8 7 11 1 8 -8 -4 -13 23 -18 86 -3 51 -11 110 -17 132 -15 53 -5 151 28 283 34 135 50 110 22 -34z m-4369 -68 c-6 -13 -8 18 -8 89 l1 110 8 -89 c4 -48 4 -98 -1 -110z m-1443 152 c-3 -7 -5 -2 -5 12 0 14 2 19 5 13 2 -7 2 -19 0 -25z m7892 -62 c2 -60 -6 -39 -12 34 -3 41 -2 54 3 35 4 -16 8 -48 9 -69z m-7315 17 c-14 -147 -29 -214 -62 -297 -20 -48 -38 -83 -40 -78 -11 34 21 196 57 294 23 59 41 114 41 122 0 9 2 16 5 16 3 0 3 -26 -1 -57z m1520 -41 c-20 -69 -27 -62 -12 11 7 31 16 53 20 49 4 -4 0 -31 -8 -60z m2554 27 c1 -22 4 -53 7 -69 8 -37 -17 -140 -67 -269 -40 -102 -41 -106 -35 -203 3 -56 1 -98 -4 -98 -5 0 -9 74 -9 168 0 154 2 175 25 242 14 41 37 118 52 172 14 54 27 98 28 98 2 0 3 -18 3 -41z m667 -34 c-9 -31 -18 -55 -20 -53 -3 2 0 20 5 39 6 18 10 47 10 63 0 22 3 27 11 19 8 -8 6 -27 -6 -68z m2786 -37 c-9 -31 -9 -30 -10 24 -1 31 2 65 7 75 11 29 15 -59 3 -99z m649 36 c-18 -64 -24 -46 -9 23 8 32 15 50 17 39 2 -10 -2 -38 -8 -62z m-8763 34 c-3 -7 -5 -2 -5 12 0 14 2 19 5 13 2 -7 2 -19 0 -25z m4430 -100 c-2 -18 -4 -4 -4 32 0 36 2 50 4 33 2 -18 2 -48 0 -65z m3662 -29 c1 -25 -9 -74 -20 -108 l-22 -63 26 -142 c28 -150 42 -396 27 -474 -6 -32 -4 -47 7 -58 8 -7 13 -23 11 -34 -2 -17 -9 -13 -40 26 -31 38 -36 51 -30 73 14 52 2 361 -19 473 -24 127 -21 178 17 323 28 107 29 109 36 70 4 -22 7 -61 7 -86z m-962 34 c-2 -16 -4 -5 -4 22 0 28 2 40 4 28 2 -13 2 -35 0 -50z m-5978 -32 c1 -64 -5 -47 -12 29 -4 41 -3 56 3 40 4 -14 8 -45 9 -69z m6784 -138 c3 -29 2 -55 -2 -57 -8 -5 -15 55 -26 209 l-5 70 14 -85 c7 -47 16 -108 19 -137z m-7946 150 c-3 -10 -5 -4 -5 12 0 17 2 24 5 18 2 -7 2 -21 0 -30z m1429 -93 l-14 -45 -1 45 c0 25 5 63 11 85 l13 40 3 -40 c1 -22 -4 -60 -12 -85z m-227 -160 c1 -113 -3 -159 -17 -210 l-19 -65 -6 94 c-11 144 -9 206 10 336 l18 120 6 -65 c4 -36 7 -130 8 -210z m3276 -24 c-10 -28 -22 -58 -26 -66 -15 -28 -9 159 9 263 l17 102 9 -124 c8 -108 7 -130 -9 -175z m4152 262 c-3 -8 -6 -5 -6 6 -1 11 2 17 5 13 3 -3 4 -12 1 -19z m-5350 -20 c-3 -7 -5 -2 -5 12 0 14 2 19 5 13 2 -7 2 -19 0 -25z m-3290 -25 c-3 -10 -5 -4 -5 12 0 17 2 24 5 18 2 -7 2 -21 0 -30z m2612 -129 c7 -21 14 -97 16 -169 l4 -130 -10 115 c-5 63 -16 148 -24 189 -8 40 -14 94 -14 120 2 42 2 40 9 -20 5 -36 13 -83 19 -105z m398 -1 c-2 -32 -3 -6 -3 57 0 63 1 89 3 58 2 -32 2 -84 0 -115z m-952 99 c-7 -20 -26 -64 -41 -97 -15 -33 -31 -82 -34 -110 l-7 -50 -2 55 c-1 45 7 73 41 152 23 53 45 95 49 92 5 -2 2 -21 -6 -42z m3235 27 c0 -6 -5 -20 -12 -32 -6 -12 -15 -35 -19 -52 -6 -21 -7 -15 -3 19 3 27 8 55 11 62 6 16 23 19 23 3z m2692 -46 c-10 -28 -10 -28 -11 12 -1 28 2 36 10 28 8 -8 8 -19 1 -40z m-3440 -19 c-6 -35 -12 -29 -12 14 0 23 3 32 9 24 4 -7 6 -24 3 -38z m-3142 -35 c0 -33 -14 -81 -50 -167 -33 -80 -50 -135 -50 -163 0 -71 -9 -39 -16 56 l-6 90 53 128 c54 133 69 145 69 56z m7405 -244 c3 -78 3 -155 -1 -171 l-8 -29 -7 25 c-3 14 -4 81 -2 150 4 92 1 148 -11 211 -21 113 -19 135 4 35 10 -43 21 -143 25 -221z m-3658 263 c-3 -8 -6 -5 -6 6 -1 11 2 17 5 13 3 -3 4 -12 1 -19z m2000 -110 c-2 -24 -4 -5 -4 42 0 47 2 66 4 43 2 -24 2 -62 0 -85z m1545 -128 c2 -65 0 -113 -4 -107 -4 7 -8 62 -8 122 0 101 -9 149 -25 133 -4 -3 -18 -39 -32 -79 -19 -52 -27 -100 -30 -164 -2 -49 -6 -100 -9 -113 -6 -30 -174 -194 -191 -187 -8 2 -12 17 -11 35 2 27 4 29 15 15 16 -24 33 -10 33 27 0 30 23 68 42 68 4 0 8 -9 8 -20 0 -18 3 -19 20 -10 11 6 31 28 44 48 20 31 25 54 29 137 5 100 27 183 73 279 l19 39 12 -53 c6 -29 13 -105 15 -170z m-8733 47 c-14 -67 -24 -160 -29 -272 -7 -174 -12 -163 -11 25 1 105 53 435 59 377 2 -15 -7 -73 -19 -130z m430 69 c-9 -8 -10 -7 -5 7 3 10 7 33 8 50 1 28 2 28 5 -7 3 -22 -1 -43 -8 -50z m3518 12 c-3 -8 -6 -5 -6 6 -1 11 2 17 5 13 3 -3 4 -12 1 -19z m-2656 -39 c-5 -13 -10 -19 -10 -12 -1 15 10 45 15 40 3 -2 0 -15 -5 -28z m1746 -56 c-2 -16 -4 -3 -4 27 0 30 2 43 4 28 2 -16 2 -40 0 -55z m4997 -37 c11 -52 15 -124 14 -233 l-1 -158 -7 173 c-4 99 -11 177 -17 183 -21 21 -66 -144 -73 -266 -7 -128 -11 -136 -105 -219 -63 -55 -81 -86 -51 -86 8 0 22 -7 30 -16 20 -20 21 -64 1 -64 -17 0 -49 45 -41 59 3 5 -10 18 -29 30 -19 11 -35 28 -35 38 0 21 98 115 112 107 5 -3 23 6 39 22 28 27 29 30 29 128 0 118 14 182 66 317 43 109 43 109 68 -15z m51 -229 l2 -228 25 -27 c36 -38 53 -72 36 -72 -7 0 -20 11 -28 24 -8 13 -27 39 -42 58 -24 30 -26 38 -18 73 15 65 12 314 -5 404 -19 96 -8 133 14 51 10 -39 15 -120 16 -283z m-7660 250 c-4 -24 -2 -63 5 -87 7 -24 9 -59 4 -79 l-7 -36 -12 59 c-7 33 -11 67 -9 75 2 9 6 37 9 64 3 26 8 47 11 47 3 0 2 -19 -1 -43z m4169 -91 c4 -80 7 -91 33 -118 26 -27 28 -36 31 -126 4 -104 13 -124 62 -145 23 -9 23 -11 5 -15 -14 -3 -30 7 -54 35 -33 38 -34 41 -35 130 -1 90 -2 93 -33 125 -32 33 -33 37 -33 114 0 69 6 102 16 91 2 -1 5 -42 8 -91z m-753 17 c4 -26 8 -68 9 -93 1 -35 3 -40 10 -25 7 17 9 14 9 -13 1 -24 -2 -31 -11 -26 -9 5 -9 3 1 -9 12 -15 9 -21 -18 -52 -17 -20 -31 -43 -31 -51 0 -11 -5 -14 -17 -10 -10 4 -14 4 -11 0 4 -3 -1 -23 -12 -44 -19 -36 -42 -55 -54 -43 -11 11 -6 53 9 83 8 16 22 50 31 77 9 26 25 67 37 91 16 34 19 56 15 107 -3 35 -3 67 0 70 11 11 25 -15 33 -62z m1393 19 c35 -43 36 -46 36 -127 0 -76 2 -85 29 -118 15 -20 31 -33 35 -30 3 4 13 -2 20 -13 13 -17 15 -17 21 -2 10 25 47 19 43 -7 -2 -16 -10 -20 -44 -19 -31 0 -48 8 -71 30 -46 44 -53 65 -53 157 0 72 -3 87 -21 103 -29 26 -39 5 -38 -77 1 -36 -3 -75 -9 -86 -6 -11 -44 -50 -84 -88 -40 -38 -73 -72 -73 -75 0 -3 -4 -11 -8 -17 -5 -8 -4 -13 2 -13 6 0 11 -7 11 -15 0 -17 -18 -19 -39 -6 -12 8 -12 12 -2 24 9 12 9 16 0 19 -7 2 -13 14 -14 26 -1 11 2 19 7 16 4 -3 8 5 8 18 1 21 2 21 13 -6 l13 -29 12 28 c7 15 10 35 7 45 -4 12 2 24 17 34 22 16 23 15 31 -9 8 -24 9 -24 48 21 21 25 39 51 40 57 5 134 8 167 14 186 4 12 8 21 10 19 1 -2 19 -23 39 -46z m-2004 -149 c0 -196 0 -210 13 -231 8 -12 -18 -57 -47 -81 -26 -22 -77 -131 -74 -159 4 -33 25 -39 181 -47 141 -8 196 2 225 42 13 17 21 22 26 14 14 -22 -47 -69 -100 -77 -61 -9 -284 10 -321 28 -56 26 -34 115 55 226 30 38 33 47 27 80 -14 70 -5 392 11 392 3 0 4 -84 4 -187z m32 24 c-2 -87 -7 -155 -10 -152 -7 7 -3 261 5 293 3 13 7 22 8 20 1 -2 0 -74 -3 -161z m-3321 -34 c-1 -98 3 -194 9 -213 9 -31 7 -38 -20 -70 -48 -57 -101 -160 -98 -188 4 -35 35 -41 215 -44 130 -3 144 -1 170 18 16 12 29 33 31 47 2 15 8 27 14 27 6 0 26 12 45 26 49 37 56 19 9 -22 -21 -18 -44 -43 -50 -55 -6 -12 -24 -32 -39 -43 -26 -19 -41 -21 -153 -19 -124 1 -228 16 -251 35 -33 26 3 127 75 213 31 37 33 43 27 90 -8 59 -7 306 1 353 12 65 16 20 15 -155z m7388 -49 c-6 -8 -16 -14 -21 -14 -11 0 0 43 12 48 5 2 6 22 3 45 -2 23 -1 67 4 97 7 51 8 47 11 -54 2 -71 -1 -113 -9 -122z m124 209 c-8 -23 -34 -53 -45 -53 -5 0 4 16 19 35 32 40 35 42 26 18z m-4426 -30 c-3 -10 -5 -4 -5 12 0 17 2 24 5 18 2 -7 2 -21 0 -30z m1510 -1 c7 -7 13 -34 13 -59 0 -36 6 -52 31 -80 28 -33 30 -40 29 -112 -1 -42 -1 -82 -1 -89 2 -24 83 -102 107 -102 31 0 33 -35 4 -50 -27 -15 -80 2 -108 34 -47 55 -51 69 -50 159 1 71 -2 91 -17 107 -10 11 -22 17 -26 14 -5 -3 -9 -44 -9 -92 l0 -87 -82 -79 c-46 -44 -82 -86 -80 -94 3 -12 -4 -13 -35 -7 -21 4 -39 8 -41 10 -10 9 35 69 90 120 101 94 101 95 105 204 3 93 41 262 52 230 2 -7 10 -20 18 -27z m-2555 -115 c-1 -73 0 -79 30 -113 38 -43 84 -70 91 -51 2 8 8 7 20 -5 14 -14 14 -17 2 -22 -37 -14 -118 37 -153 97 -9 15 -20 26 -23 25 -4 -2 -42 -34 -84 -73 -43 -38 -87 -73 -97 -78 -18 -6 -19 -4 -13 20 4 16 8 34 8 42 0 8 7 4 17 -9 15 -20 18 -21 23 -5 4 9 7 28 7 43 0 25 25 62 42 62 4 0 8 -9 8 -20 0 -27 11 -25 42 8 39 41 48 65 48 125 0 29 3 57 7 61 15 15 27 -33 25 -107z m1955 71 c-3 -7 -5 -2 -5 12 0 14 2 19 5 13 2 -7 2 -19 0 -25z m4600 -25 c-3 -10 -5 -4 -5 12 0 17 2 24 5 18 2 -7 2 -21 0 -30z m1140 -10 c-3 -10 -5 -2 -5 17 0 19 2 27 5 18 2 -10 2 -26 0 -35z m-7010 -35 c-2 -13 -4 -3 -4 22 0 25 2 35 4 23 2 -13 2 -33 0 -45z m2440 30 c-3 -7 -5 -2 -5 12 0 14 2 19 5 13 2 -7 2 -19 0 -25z m-3800 7 c-4 -8 9 -32 28 -56 36 -42 37 -48 37 -166 0 -68 21 -95 87 -113 28 -7 51 -17 51 -22 0 -22 -107 20 -135 54 -22 26 -25 39 -25 108 0 85 -10 123 -41 156 -17 18 -18 54 -2 54 3 0 3 -7 0 -15z m780 -27 c-3 -7 -5 -2 -5 12 0 14 2 19 5 13 2 -7 2 -19 0 -25z m8230 -10 c-3 -8 -6 -5 -6 6 -1 11 2 17 5 13 3 -3 4 -12 1 -19z m-650 -20 c-3 -8 -6 -5 -6 6 -1 11 2 17 5 13 3 -3 4 -12 1 -19z m-9253 -7 c-3 -9 -15 -41 -25 -71 -11 -30 -31 -66 -45 -81 -14 -15 -25 -35 -23 -45 3 -27 -12 -75 -21 -69 -12 7 -24 -36 -13 -44 33 -22 12 -73 -37 -86 -22 -6 -23 -6 -8 6 10 9 18 33 21 64 2 28 14 75 27 105 12 30 36 87 52 127 17 39 37 74 45 77 8 4 13 12 10 19 -3 8 1 14 9 14 10 0 13 -6 8 -16z m907 -70 c1 -20 2 -64 3 -98 1 -56 4 -65 35 -97 19 -20 44 -38 55 -41 61 -16 96 -29 96 -35 0 -13 -82 -31 -113 -25 -36 8 -91 56 -113 98 l-15 28 -84 -76 c-174 -158 -200 -93 -29 70 l84 80 0 77 c0 76 0 77 28 80 34 5 52 -16 53 -61z m-124 -48 c-2 -21 -4 -4 -4 37 0 41 2 58 4 38 2 -21 2 -55 0 -75z m1470 40 c-2 -16 -4 -5 -4 22 0 28 2 40 4 28 2 -13 2 -35 0 -50z m6990 25 c-3 -8 -6 -5 -6 6 -1 11 2 17 5 13 3 -3 4 -12 1 -19z m-5697 -8 c0 -13 -5 -18 -15 -14 -12 5 -13 10 -4 20 15 19 19 18 19 -6z m459 -84 c-5 -6 -8 15 -8 50 l2 59 7 -50 c4 -27 3 -54 -1 -59z m4321 54 c7 -16 16 -27 21 -24 13 8 29 -39 17 -51 -6 -7 -12 -5 -18 5 -5 8 -20 30 -34 49 -28 38 -37 83 -12 62 8 -6 19 -25 26 -41z m120 -10 l0 -25 -19 29 c-22 33 -18 69 5 39 7 -10 13 -29 14 -43z m-8420 46 c0 -2 -8 -10 -17 -17 -16 -13 -17 -12 -4 4 13 16 21 21 21 13z m234 -15 c8 -13 -20 -45 -33 -37 -8 5 -8 13 -1 27 11 20 25 25 34 10z m726 -104 c-6 -16 -9 -1 -8 48 0 70 0 70 8 22 5 -27 5 -59 0 -70z m3287 16 c-2 -21 -4 -6 -4 32 0 39 2 55 4 38 2 -18 2 -50 0 -70z m2675 52 c2 -10 -2 -20 -8 -22 -13 -4 -37 44 -28 58 7 12 31 -12 36 -36z m495 -17 c-2 -13 -4 -5 -4 17 -1 22 1 32 4 23 2 -10 2 -28 0 -40z m978 -26 c-11 -11 -27 17 -20 35 6 16 8 16 16 -6 5 -13 7 -26 4 -29z m-8275 -1 c-6 -12 -15 -19 -21 -16 -13 8 -11 29 3 43 18 18 32 -2 18 -27z m75 29 c4 -6 -8 -27 -25 -47 -17 -19 -36 -46 -42 -59 -10 -22 -28 -33 -28 -17 0 12 43 98 58 116 17 19 28 22 37 7z m2084 -327 c29 -68 38 -103 25 -103 -19 0 -44 24 -44 43 0 12 -10 42 -21 67 -31 66 -39 99 -27 106 7 4 6 9 -2 14 -15 9 -15 81 -1 109 6 11 12 39 12 63 1 24 7 -18 14 -92 11 -111 18 -148 44 -207z m1134 317 c-7 -25 -19 -34 -28 -20 -10 16 2 40 19 40 9 0 12 -7 9 -20z m77 12 c0 -5 -13 -21 -30 -37 -16 -15 -34 -43 -41 -62 -6 -18 -17 -33 -25 -33 -23 0 -15 22 43 118 13 21 53 32 53 14z m3335 -6 c16 -12 21 -11 33 1 11 10 17 11 28 2 28 -23 13 -33 -91 -54 -27 -6 -28 -5 -13 7 11 9 14 19 8 28 -17 28 5 38 35 16z m-5081 -2 c20 -8 11 -24 -15 -24 -10 0 -19 7 -19 15 0 16 9 19 34 9z m1073 -31 c-3 -10 -5 -4 -5 12 0 17 2 24 5 18 2 -7 2 -21 0 -30z m2267 13 c14 -5 17 -13 14 -36 -2 -16 -1 -27 4 -24 4 3 11 -2 15 -11 10 -29 1 -31 -161 -39 -36 -1 -70 39 -42 50 11 4 22 -1 32 -14 18 -27 48 -19 34 8 -13 24 -13 30 1 30 19 0 56 35 51 48 -3 10 0 11 14 3 11 -5 27 -12 38 -15z m4756 13 c0 -5 18 -40 40 -76 39 -65 51 -115 30 -128 -5 -3 -10 3 -10 14 0 11 -18 48 -40 82 -38 59 -53 119 -30 119 6 0 10 -5 10 -11z m-7995 -17 c-3 -3 -11 0 -18 7 -9 10 -8 11 6 5 10 -3 15 -9 12 -12z m1332 -14 c-3 -8 -6 -5 -6 6 -1 11 2 17 5 13 3 -3 4 -12 1 -19z m-1356 -56 l-6 -37 -66 -1 c-61 -1 -65 0 -64 22 0 35 13 40 39 15 26 -24 42 -15 31 18 -6 21 13 30 51 23 18 -3 20 -9 15 -40z m2849 -3 c27 -52 19 -60 -21 -20 -25 26 -29 34 -19 46 17 20 17 20 40 -26z m-931 -33 c-9 -8 -10 -5 -5 14 3 14 6 32 7 40 1 8 4 2 6 -14 3 -16 -1 -34 -8 -40z m-3290 -10 c-9 -8 -10 -5 -5 14 3 14 6 32 7 40 1 8 4 2 6 -14 3 -16 -1 -34 -8 -40z m925 27 c18 -37 18 -38 -1 -20 -11 9 -29 17 -41 17 -25 0 -28 10 -10 28 20 20 34 14 52 -25z m3814 1 c-2 -10 -11 -20 -20 -22 -15 -3 -15 1 -5 27 12 32 32 28 25 -5z m1972 32 c0 -2 3 -11 6 -20 4 -9 1 -16 -6 -16 -7 0 -25 -11 -41 -24 -27 -23 -103 -46 -152 -46 -38 0 2 28 63 44 35 9 62 23 75 40 17 21 55 36 55 22z m115 -24 c-2 -3 -12 -1 -22 2 -15 6 -15 9 -3 16 13 8 35 -8 25 -18z m731 11 c3 -10 10 -26 15 -35 7 -14 5 -18 -11 -18 -21 0 -45 43 -34 61 9 15 24 10 30 -8z m58 11 c16 -6 23 -64 9 -64 -11 0 -42 57 -35 64 7 7 7 7 26 0z m318 -11 c27 -25 22 -43 -12 -43 -21 0 -28 4 -24 14 3 8 0 17 -5 21 -13 7 -5 25 11 25 6 0 20 -7 30 -17z m68 -21 c0 -7 -4 -10 -10 -7 -5 3 -10 16 -10 28 0 18 2 19 10 7 5 -8 10 -21 10 -28z m-6568 -32 c-11 -12 -23 -17 -26 -12 -3 6 1 12 9 16 8 3 15 14 15 24 0 27 14 38 18 13 2 -11 -6 -30 -16 -41z m915 -63 c-24 -29 -53 -70 -65 -92 -17 -33 -22 -37 -27 -22 -9 22 32 101 89 172 41 50 41 50 44 22 3 -22 -7 -41 -41 -80z m-3285 -6 c-21 -25 -49 -65 -61 -89 -12 -23 -26 -40 -31 -37 -13 8 -13 42 -1 49 5 3 19 25 31 48 12 23 37 60 56 82 19 22 35 44 36 50 0 6 3 -4 5 -23 4 -27 -3 -41 -35 -80z m2338 99 c0 -5 -4 -10 -10 -10 -5 0 -10 5 -10 10 0 6 5 10 10 10 6 0 10 -4 10 -10z m5792 -68 c30 -35 36 -62 14 -62 -25 0 -76 75 -76 111 l0 33 17 -24 c9 -14 29 -40 45 -58z m402 62 c3 -8 2 -12 -4 -9 -6 3 -10 10 -10 16 0 14 7 11 14 -7z m-4646 -20 c2 -1 -9 -1 -23 -1 -25 0 -31 7 -18 20 3 4 13 1 22 -5 9 -7 17 -13 19 -14z m-148 -17 c0 -18 -2 -19 -10 -7 -13 20 -13 43 0 35 6 -3 10 -16 10 -28z m1360 21 c0 -10 -39 -9 -65 1 -14 6 -8 8 23 7 23 0 42 -4 42 -8z m2690 9 c0 -2 -9 -12 -21 -23 -15 -14 -20 -15 -17 -4 2 8 8 18 13 22 10 8 25 10 25 5z m-2216 -22 c4 -12 -3 -15 -29 -15 -33 0 -51 11 -38 24 12 12 61 6 67 -9z m56 5 c12 -8 9 -10 -12 -10 -16 0 -28 5 -28 10 0 13 20 13 40 0z m-3386 -15 c3 -9 0 -15 -8 -15 -8 0 -16 7 -20 15 -3 9 0 15 8 15 8 0 16 -7 20 -15z m66 5 c0 -5 -7 -10 -15 -10 -8 0 -15 5 -15 10 0 6 7 10 15 10 8 0 15 -4 15 -10z m1917 -12 c-3 -8 -6 -5 -6 6 -1 11 2 17 5 13 3 -3 4 -12 1 -19z m1238 11 c12 -19 -5 -23 -22 -6 -16 16 -16 17 -1 17 9 0 20 -5 23 -11z m1140 1 c-3 -5 -21 -12 -39 -16 -53 -9 -93 -40 -116 -85 -23 -49 -25 -72 -7 -87 18 -14 295 -35 364 -27 62 8 86 17 118 45 13 12 43 19 90 23 39 2 97 14 130 25 41 14 54 16 40 6 -32 -24 -126 -48 -182 -47 -35 1 -56 -3 -64 -13 -42 -50 -157 -69 -334 -54 -173 14 -184 17 -195 46 -11 29 16 89 62 134 33 33 150 77 133 50z m2295 -5 c0 -8 -4 -15 -9 -15 -5 0 -11 7 -15 15 -3 9 0 15 9 15 8 0 15 -7 15 -15z m-7963 -17 c-3 -8 -6 -5 -6 6 -1 11 2 17 5 13 3 -3 4 -12 1 -19z m3083 12 c19 -6 9 -8 -35 -8 -33 0 -69 3 -80 8 -26 11 80 11 115 0z m2690 -37 c0 -15 -9 -16 -27 -5 -7 5 -10 17 -6 31 6 23 7 23 20 6 7 -11 13 -25 13 -32z m-5955 27 c-27 -12 -107 -12 -125 0 -10 7 10 10 65 9 54 0 73 -3 60 -9z m6627 -1 c-22 -7 -43 -7 -60 0 -23 8 -17 9 33 9 55 0 57 -1 27 -9z m335 -46 c-4 -17 -4 -17 -12 0 -4 9 -4 25 0 35 8 16 8 16 12 0 3 -10 3 -26 0 -35z m-1088 5 l23 -27 -43 -11 c-46 -12 -89 -44 -89 -67 0 -8 -12 -13 -29 -13 -31 0 -51 18 -33 29 6 3 14 19 17 34 8 32 49 67 79 67 11 0 28 4 36 10 8 5 15 8 15 7 0 -1 11 -14 24 -29z m-3570 -168 c-1 -41 -2 -42 -8 -14 -4 17 -23 52 -40 78 -19 28 -35 65 -38 89 l-5 42 46 -75 c37 -61 46 -83 45 -120z m6622 103 c23 -33 33 -61 36 -97 l4 -51 -14 35 c-7 19 -28 57 -45 84 -21 33 -32 62 -31 85 0 32 1 34 9 13 6 -13 24 -44 41 -69z m-7696 67 c3 -6 -1 -7 -9 -4 -18 7 -21 14 -7 14 6 0 13 -4 16 -10z m4225 0 c0 -6 16 -34 35 -63 35 -53 57 -137 36 -137 -6 0 -11 8 -11 17 0 10 -16 43 -35 74 -38 61 -55 119 -36 119 6 0 11 -5 11 -10z m-4526 -52 c24 -47 21 -87 -7 -97 -36 -14 -236 -24 -216 -12 9 6 57 14 105 17 49 4 95 11 102 17 14 11 16 49 3 63 -5 5 -12 20 -16 33 -10 33 10 19 29 -21z m3226 22 c25 -51 33 -70 29 -74 -4 -5 -223 -26 -266 -26 -13 0 -23 3 -23 8 0 13 82 62 116 68 18 3 41 15 50 25 21 24 83 23 94 -1z m60 -11 c0 -10 5 -19 10 -19 21 0 10 -59 -12 -74 -22 -13 -286 -42 -296 -32 -8 9 75 25 168 31 52 4 103 11 113 16 18 10 23 39 8 55 -5 5 -12 19 -16 31 -5 18 -3 22 9 17 9 -3 16 -15 16 -25z m-741 -4 c16 -8 31 -11 35 -8 3 4 6 1 6 -5 0 -18 -21 -14 -55 8 -35 23 -27 26 14 5z m-3189 -47 c0 -8 -67 10 -102 28 -16 8 -28 16 -28 17 0 7 130 -38 130 -45z m566 32 c21 0 58 -40 47 -51 -5 -5 -61 -12 -124 -16 -107 -6 -113 -5 -100 11 29 35 151 84 159 64 2 -4 10 -8 18 -8z m1934 -62 c-26 -21 -41 -23 -36 -5 3 6 7 24 10 39 8 36 40 42 44 9 3 -17 -4 -31 -18 -43z m-3270 33 c0 -29 -11 -43 -41 -54 -14 -5 -15 0 -8 30 12 55 49 73 49 24z m4195 -1 c9 -16 23 -30 33 -31 11 0 13 -2 4 -6 -7 -3 -24 5 -37 17 -18 17 -30 20 -58 15 -55 -11 -69 6 -16 20 24 7 47 13 51 14 4 0 14 -12 23 -29z m3735 5 c18 -34 7 -42 -70 -51 l-65 -7 24 26 c20 22 75 56 92 57 3 0 12 -11 19 -25z m-7022 -15 c23 -30 15 -43 -8 -15 -7 8 -21 15 -32 15 -17 0 -18 3 -8 15 17 21 23 19 48 -15z m6634 0 c3 -20 0 -30 -9 -30 -8 0 -13 12 -13 30 0 17 4 30 9 30 5 0 11 -13 13 -30z m438 -14 c0 -13 -6 -28 -12 -34 -16 -12 -127 -36 -135 -29 -5 6 54 23 97 29 19 2 26 10 28 31 4 33 22 36 22 3z m-3817 -13 c-7 -2 -19 -2 -25 0 -7 3 -2 5 12 5 14 0 19 -2 13 -5z"/>
<path d="M4579 6689 c-23 -19 -23 -20 -2 -10 12 6 25 16 28 21 10 16 -1 12 -26 -11z"/>
<path d="M4981 6676 c10 -9 69 -36 69 -32 0 6 -55 36 -66 36 -4 0 -5 -2 -3 -4z"/>
<path d="M7804 6696 c-10 -8 -17 -17 -14 -19 3 -3 16 3 29 14 27 22 15 26 -15 5z"/>
<path d="M11234 6688 l-19 -21 28 18 c28 18 33 25 19 25 -5 0 -17 -10 -28 -22z"/>
<path d="M4823 2805 c0 -22 2 -30 4 -17 2 12 2 30 0 40 -3 9 -5 -1 -4 -23z"/>
<path d="M5380 1702 c0 -12 19 -26 26 -19 2 2 -2 10 -11 17 -9 8 -15 8 -15 2z"/>
<path d="M6333 6933 c9 -2 23 -2 30 0 6 3 -1 5 -18 5 -16 0 -22 -2 -12 -5z"/>
<path d="M2958 6923 c6 -2 18 -2 25 0 6 3 1 5 -13 5 -14 0 -19 -2 -12 -5z"/>
<path d="M3048 6923 c6 -2 18 -2 25 0 6 3 1 5 -13 5 -14 0 -19 -2 -12 -5z"/>
<path d="M6388 6923 c7 -3 16 -2 19 1 4 3 -2 6 -13 5 -11 0 -14 -3 -6 -6z"/>
<path d="M9448 6923 c6 -2 18 -2 25 0 6 3 1 5 -13 5 -14 0 -19 -2 -12 -5z"/>
<path d="M3098 6913 c7 -3 16 -2 19 1 4 3 -2 6 -13 5 -11 0 -14 -3 -6 -6z"/>
<path d="M6440 6905 c14 -8 30 -14 35 -14 6 0 -1 6 -15 14 -14 8 -29 14 -35 14 -5 0 1 -6 15 -14z"/>
<path d="M9380 6910 c-18 -12 -2 -12 25 0 13 6 15 9 5 9 -8 0 -22 -4 -30 -9z"/>
<path d="M3201 6876 c2 -2 15 -9 29 -15 24 -11 24 -11 6 3 -16 13 -49 24 -35 12z"/>
<path d="M3283 6822 c16 -16 35 -47 42 -68 8 -22 14 -31 15 -20 0 26 -38 90 -63 105 -17 11 -16 7 6 -17z"/>
<path d="M1682 6620 c93 -49 120 -102 100 -203 -6 -29 -6 -56 -2 -62 5 -5 10 -21 13 -35 2 -14 3 -9 1 10 -2 19 -4 40 -5 45 -1 6 2 35 6 66 6 45 4 64 -13 102 -17 39 -30 51 -81 76 -33 17 -64 31 -68 31 -4 -1 17 -14 49 -30z"/>
<path d="M1510 6553 c1 -54 20 -115 44 -142 23 -25 21 -108 -3 -147 -15 -25 -36 -37 -107 -63 -49 -18 -100 -39 -114 -47 -32 -19 -19 -15 112 36 89 34 110 47 128 74 30 49 27 120 -6 168 -19 28 -28 54 -31 103 -7 75 -23 88 -23 18z"/>
<path d="M9920 6570 c0 -5 9 -10 19 -10 11 0 23 5 26 10 4 6 -5 10 -19 10 -14 0 -26 -4 -26 -10z"/>
<path d="M1781 6264 c0 -11 3 -14 6 -6 3 7 2 16 -1 19 -3 4 -6 -2 -5 -13z"/>
<path d="M1766 6223 c-6 -14 -5 -15 5 -6 7 7 10 15 7 18 -3 3 -9 -2 -12 -12z"/>
<path d="M1796 6178 l-18 -33 21 25 c18 22 26 40 18 40 -1 0 -11 -15 -21 -32z"/>
<path d="M1721 6154 c0 -11 3 -14 6 -6 3 7 2 16 -1 19 -3 4 -6 -2 -5 -13z"/>
<path d="M1711 6114 c0 -11 3 -14 6 -6 3 7 2 16 -1 19 -3 4 -6 -2 -5 -13z"/>
<path d="M1115 5940 c-3 -6 1 -7 9 -4 18 7 21 14 7 14 -6 0 -13 -4 -16 -10z"/>
<path d="M1063 5836 c0 -7 -15 -50 -33 -95 -31 -79 -33 -86 -27 -179 3 -53 12 -128 20 -167 8 -38 18 -87 22 -109 3 -21 8 -36 11 -33 2 2 -5 51 -16 108 -11 57 -23 145 -27 196 -6 88 -5 94 31 182 38 95 42 111 28 111 -5 0 -9 -6 -9 -14z"/>
<path d="M1018 5829 c-10 -5 -18 -16 -18 -23 0 -7 -12 -41 -26 -77 -24 -59 -26 -72 -21 -169 5 -101 42 -304 66 -365 7 -16 27 -50 45 -75 25 -34 34 -60 39 -105 12 -119 29 -167 70 -207 35 -34 39 -42 34 -75 -6 -46 -19 -99 -42 -173 -9 -30 -30 -116 -46 -190 -28 -126 -30 -153 -35 -420 -8 -358 -8 -371 7 -508 10 -89 10 -154 -1 -316 -7 -113 -10 -212 -7 -220 4 -9 2 -40 -2 -68 -5 -29 -17 -114 -26 -188 -9 -74 -29 -205 -45 -290 -29 -164 -39 -364 -21 -428 9 -29 6 -37 -18 -65 -35 -41 -89 -130 -96 -160 -11 -40 10 -75 52 -86 48 -14 83 -14 83 -1 0 6 -11 10 -24 10 -45 0 -86 21 -93 48 -8 32 34 116 89 179 33 39 36 46 27 75 -5 18 -9 91 -9 163 0 103 6 161 29 280 40 203 61 378 71 575 5 91 12 219 15 285 5 86 2 159 -9 257 -13 112 -14 161 -6 275 6 76 9 212 8 303 -2 147 1 179 25 294 15 71 30 132 32 136 10 16 65 233 65 256 0 17 -12 36 -35 57 -40 35 -61 93 -71 196 -5 49 -14 77 -36 109 -48 70 -67 123 -93 262 -34 179 -33 279 1 367 15 38 34 74 42 81 19 14 4 16 -20 1z"/>
<path d="M1422 3530 c0 -14 2 -19 5 -12 2 6 2 18 0 25 -3 6 -5 1 -5 -13z"/>
<path d="M1391 3449 c-6 -18 -11 -37 -10 -43 0 -6 7 7 15 28 8 22 12 41 10 43 -2 2 -9 -10 -15 -28z"/>
<path d="M1365 3360 c-4 -17 -5 -34 -2 -36 2 -3 7 10 11 27 8 42 0 50 -9 9z"/>
<path d="M1345 3270 c-4 -23 -5 -43 -2 -46 2 -3 7 14 11 37 4 23 5 44 2 46 -2 2 -7 -14 -11 -37z"/>
<path d="M1430 3307 c0 -3 9 -77 19 -164 18 -140 38 -342 61 -613 5 -63 7 -72 9 -35 2 89 -71 800 -84 813 -3 3 -5 3 -5 -1z"/>
<path d="M1325 3150 c-4 -34 -5 -63 -2 -66 2 -3 7 23 11 57 4 33 5 63 3 66 -3 2 -8 -23 -12 -57z"/>
<path d="M1302 2978 c-7 -53 -12 -112 -11 -130 1 -18 7 19 15 82 8 63 13 122 11 130 -1 8 -8 -29 -15 -82z"/>
<path d="M1283 2750 c0 -36 2 -50 4 -32 2 17 2 47 0 65 -2 17 -4 3 -4 -33z"/>
<path d="M1266 2584 c-4 -53 -5 -98 -3 -101 3 -2 8 39 12 92 4 53 5 98 3 101 -3 2 -8 -39 -12 -92z"/>
<path d="M1240 2350 c-7 -67 -10 -123 -8 -126 3 -2 11 50 18 116 7 67 10 123 8 126 -3 2 -11 -50 -18 -116z"/>
<path d="M1222 2180 c0 -19 2 -27 5 -17 2 9 2 25 0 35 -3 9 -5 1 -5 -18z"/>
<path d="M1209 2123 c-4 -81 -3 -159 3 -143 7 18 8 160 1 160 -2 0 -3 -8 -4 -17z"/>
<path d="M1182 1925 c-17 -37 -14 -45 4 -12 9 16 14 31 11 33 -2 2 -9 -7 -15 -21z"/>
<path d="M1146 1845 c-9 -26 -7 -32 5 -12 6 10 9 21 6 23 -2 3 -7 -2 -11 -11z"/>
<path d="M1126 1793 c-6 -14 -5 -15 5 -6 7 7 10 15 7 18 -3 3 -9 -2 -12 -12z"/>
<path d="M1096 1725 c-9 -26 -7 -32 5 -12 6 10 9 21 6 23 -2 3 -7 -2 -11 -11z"/>
<path d="M7338 1633 c7 -3 16 -2 19 1 4 3 -2 6 -13 5 -11 0 -14 -3 -6 -6z"/>
</g>
</svg>