<?xml version="1.0" encoding="utf-8"?>
<!DOCTYPE svg PUBLIC "-//W3C//DTD SVG 20010904//EN" "http://www.w3.org/TR/2001/REC-SVG-20010904/DTD/svg10.dtd">
<svg height="1280.000000pt" preserveAspectRatio="xMidYMid meet" version="1.0" viewBox="0 0 888.000000 1280.000000" width="888.000000pt" xmlns="http://www.w3.org/2000/svg">
<metadata>
Created by potrace 1.15, written by Peter Selinger 2001-2017
</metadata>
<g fill="#FFFFFF" stroke="#FFFFFF" transform="translate(0.000000,1280.000000) scale(0.100000,-0.100000)">
<path d="M235 12791 c-82 -20 -162 -87 -206 -171 l-24 -45 -3 -662 -3 -663 295 0 c266 0 300 -2 359 -20 134 -42 248 -148 297 -278 27 -70 36 -190 21 -261 -27 -125 -121 -251 -230 -310 -99 -52 -162 -61 -468 -61 l-273 0 0 -4309 0 -4310 317 -3 318 -3 78 -37 c128 -62 216 -167 252 -303 68 -264 -111 -536 -381 -575 -38 -5 -185 -10 -327 -10 l-258 0 3 -272 3 -273 27 -50 c32 -60 87 -114 148 -146 l45 -24 4215 0 4215 0 50 27 c60 32 114 87 146 148 23 44 24 54 27 317 l3 273 -256 0 c-141 0 -289 5 -328 11 -321 49 -493 396 -339 683 42 79 120 151 209 194 l78 37 318 3 317 3 0 4310 0 4309 -267 0 c-148 0 -295 5 -328 10 -181 29 -337 180 -376 361 -15 71 -6 191 21 261 49 130 163 236 297 278 59 18 93 20 359 20 l295 0 -3 663 -3 662 -24 45 c-32 61 -86 116 -146 148 l-50 27 -415 3 c-457 3 -452 3 -482 -58 -16 -30 -18 -66 -18 -257 l0 -223 -50 0 -50 0 0 205 c0 204 0 205 -24 220 -20 14 -105 15 -710 13 -598 -3 -688 -5 -696 -18 -5 -8 -10 -98 -10 -200 0 -102 -5 -202 -11 -223 -15 -54 -56 -77 -136 -77 l-63 0 0 240 c0 227 -1 241 -20 260 -20 20 -33 20 -570 20 -332 0 -550 4 -550 9 0 27 -34 41 -100 41 -105 0 -100 15 -100 -301 l0 -269 -180 0 -179 0 -3 271 c-3 315 2 299 -109 299 -60 0 -70 -3 -87 -25 l-20 -25 -1166 0 c-1153 0 -1166 0 -1186 -20 -19 -19 -20 -33 -20 -260 l0 -240 -60 0 c-32 0 -71 5 -85 12 -50 22 -55 49 -55 268 0 187 -1 201 -20 220 -19 19 -33 20 -263 20 -203 0 -246 -3 -265 -16 -22 -15 -22 -20 -22 -220 l0 -204 -50 0 -50 0 0 223 c0 243 -7 278 -60 304 -28 14 -480 17 -535 4z m487 -437 l3 -346 33 -29 32 -29 3495 0 3495 0 32 29 33 29 3 347 3 346 337 -3 c294 -3 341 -5 368 -20 37 -20 92 -80 105 -115 5 -14 9 -254 9 -563 l0 -538 -212 -5 c-229 -5 -269 -12 -381 -65 -315 -148 -463 -516 -340 -842 68 -182 222 -329 420 -402 51 -19 85 -22 286 -26 l227 -4 0 -2734 0 -2734 -1842 0 c-1133 0 -1886 -4 -1955 -10 -300 -27 -529 -134 -730 -343 -160 -166 -239 -313 -300 -557 -15 -58 -17 -226 -22 -1625 -6 -1453 -7 -1562 -23 -1592 -25 -45 -83 -89 -134 -102 -30 -8 -390 -11 -1167 -11 -1230 0 -1177 -3 -1240 58 -63 59 -61 50 -67 487 -6 396 -6 401 -32 477 -62 186 -177 322 -339 402 -129 64 -195 76 -421 76 l-188 0 0 4104 0 4104 228 4 c200 4 234 7 285 26 199 73 352 220 422 407 121 321 -30 690 -342 837 -112 53 -152 60 -381 65 l-212 5 2 553 3 553 31 38 c68 85 91 92 311 93 l162 1 3 -346z m1498 31 l0 -205 -50 0 -50 0 0 205 0 205 50 0 50 0 0 -205z m152 0 l-3 -205 -49 0 -50 0 0 205 0 205 53 0 52 0 -3 -205z m310 0 l-3 -205 -49 0 -50 0 0 205 0 205 53 0 52 0 -3 -205z m468 0 l0 -205 -50 0 -50 0 0 205 0 205 50 0 50 0 0 -205z m150 0 l0 -205 -50 0 -50 0 0 205 0 205 50 0 50 0 0 -205z m160 0 l0 -205 -50 0 -50 0 0 205 0 205 50 0 50 0 0 -205z m150 0 l0 -205 -50 0 -50 0 0 205 0 205 50 0 50 0 0 -205z m160 0 l0 -205 -50 0 -50 0 0 205 0 205 50 0 50 0 0 -205z m1190 0 l0 -205 -55 0 -55 0 0 205 0 205 55 0 55 0 0 -205z m460 0 l0 -205 -50 0 -50 0 0 205 0 205 50 0 50 0 0 -205z m468 3 l-3 -203 -52 -3 -53 -3 0 205 0 206 55 0 55 0 -2 -202z m-3978 -28 l0 -180 -50 0 -50 0 0 180 0 180 50 0 50 0 0 -180z m158 3 l-3 -178 -52 -3 -53 -3 0 180 0 181 55 0 55 0 -2 -177z m462 -3 l0 -180 -50 0 -50 0 0 180 0 180 50 0 50 0 0 -180z m310 0 l0 -180 -50 0 -50 0 0 180 0 180 50 0 50 0 0 -180z m150 0 l0 -180 -50 0 -50 0 0 180 0 180 50 0 50 0 0 -180z m930 0 l0 -180 -50 0 -50 0 0 180 0 180 50 0 50 0 0 -180z m160 0 l0 -180 -50 0 -50 0 0 180 0 180 50 0 50 0 0 -180z m1030 0 l0 -180 -50 0 -50 0 0 180 0 180 50 0 50 0 0 -180z m160 0 l0 -180 -55 0 -55 0 0 180 0 180 55 0 55 0 0 -180z m308 3 l-3 -178 -52 -3 -53 -3 0 180 0 181 55 0 55 0 -2 -177z m152 -3 l0 -180 -50 0 -50 0 0 180 0 180 50 0 50 0 0 -180z"/>
<path d="M409 11941 c-118 -74 -132 -232 -29 -325 82 -74 189 -73 272 2 49 44 68 85 68 147 0 121 -85 205 -208 205 -47 0 -67 -6 -103 -29z m139 -104 c25 14 34 15 44 5 10 -10 9 -18 -5 -41 -16 -28 -16 -32 0 -65 23 -48 8 -64 -37 -41 -31 16 -35 16 -68 1 -48 -23 -63 -8 -38 38 17 31 17 35 1 65 -12 25 -13 36 -5 46 9 11 17 10 44 -6 32 -19 35 -19 64 -2z"/>
<path d="M8275 11953 c-73 -38 -114 -105 -115 -186 0 -63 18 -104 68 -149 83 -75 190 -76 272 -2 101 91 89 245 -24 322 -42 28 -57 32 -110 32 -36 -1 -73 -7 -91 -17z m160 -153 c-16 -31 -16 -34 1 -66 25 -46 10 -61 -38 -38 -33 15 -37 15 -68 -1 -45 -23 -60 -7 -37 41 16 33 16 37 0 65 -14 23 -15 31 -5 41 10 10 19 9 44 -5 29 -17 32 -17 62 1 25 16 34 17 44 7 12 -10 11 -18 -3 -45z"/>
<path d="M6472 11838 c-74 -20 -92 -117 -32 -170 82 -74 207 22 156 120 -9 17 -21 34 -26 37 -25 16 -67 21 -98 13z"/>
<path d="M6782 11838 c-74 -20 -92 -117 -32 -170 82 -74 207 22 156 120 -9 17 -21 34 -26 37 -25 16 -67 21 -98 13z"/>
<path d="M7092 11838 c-74 -20 -92 -117 -32 -170 82 -74 207 22 156 120 -9 17 -21 34 -26 37 -25 16 -67 21 -98 13z"/>
<path d="M7402 11838 c-38 -10 -72 -58 -72 -101 0 -43 58 -97 103 -97 44 0 93 38 102 79 6 30 -14 93 -34 106 -26 15 -68 21 -99 13z"/>
<path d="M1822 11778 c-7 -7 -12 -35 -12 -63 0 -28 5 -56 12 -63 17 -17 54 -15 72 4 18 18 21 85 6 115 -12 22 -59 26 -78 7z"/>
<path d="M1976 11774 c-23 -22 -21 -96 2 -117 23 -21 56 -22 71 -3 7 8 15 30 18 50 11 67 -49 113 -91 70z"/>
<path d="M2132 11778 c-7 -7 -12 -35 -12 -63 0 -28 5 -56 12 -63 17 -17 54 -15 72 4 18 18 21 85 6 115 -12 22 -59 26 -78 7z"/>
<path d="M2286 11774 c-23 -22 -21 -96 2 -117 22 -20 53 -22 70 -5 7 7 12 35 12 63 0 28 -5 56 -12 63 -17 17 -54 15 -72 -4z"/>
<path d="M2442 11778 c-7 -7 -12 -35 -12 -63 0 -28 5 -56 12 -63 17 -17 54 -15 72 4 18 18 21 85 6 115 -12 22 -59 26 -78 7z"/>
<path d="M2596 11774 c-23 -22 -21 -96 2 -117 22 -20 53 -22 70 -5 16 16 16 110 0 126 -17 17 -54 15 -72 -4z"/>
<path d="M2752 11778 c-16 -16 -16 -110 0 -126 18 -18 53 -15 71 6 19 21 22 83 7 113 -12 22 -59 26 -78 7z"/>
<path d="M2900 11771 c-17 -32 -12 -96 8 -114 22 -20 53 -22 70 -5 16 16 16 110 0 126 -19 19 -66 15 -78 -7z"/>
<path d="M3062 11778 c-16 -16 -16 -110 0 -126 18 -18 53 -15 71 6 19 21 22 83 7 113 -12 22 -59 26 -78 7z"/>
<path d="M3210 11771 c-17 -32 -12 -96 8 -114 22 -20 53 -22 70 -5 16 16 16 110 0 126 -19 19 -66 15 -78 -7z"/>
<path d="M3372 11778 c-16 -16 -16 -110 0 -126 18 -18 53 -15 71 6 19 21 22 83 7 113 -12 22 -59 26 -78 7z"/>
<path d="M3520 11771 c-17 -32 -12 -96 8 -114 22 -20 53 -22 70 -5 16 16 16 110 0 126 -19 19 -66 15 -78 -7z"/>
<path d="M3682 11778 c-16 -16 -16 -110 0 -126 18 -18 53 -15 71 6 22 24 22 95 1 116 -18 19 -55 21 -72 4z"/>
<path d="M3830 11771 c-17 -32 -12 -96 8 -114 22 -20 53 -22 70 -5 16 16 16 110 0 126 -19 19 -66 15 -78 -7z"/>
<path d="M3992 11778 c-16 -16 -16 -110 0 -126 18 -18 53 -15 71 6 22 24 22 95 1 116 -18 19 -55 21 -72 4z"/>
<path d="M4867 11772 c-21 -23 -22 -81 -1 -110 33 -47 94 -13 94 53 0 64 -56 98 -93 57z"/>
<path d="M5022 11778 c-7 -7 -12 -36 -12 -65 0 -41 4 -54 19 -63 49 -26 81 1 81 69 0 53 -12 71 -50 71 -14 0 -31 -5 -38 -12z"/>
<path d="M5177 11772 c-21 -23 -22 -81 -1 -110 33 -47 94 -13 94 53 0 64 -56 98 -93 57z"/>
<path d="M5332 11778 c-7 -7 -12 -36 -12 -65 0 -41 4 -54 19 -63 49 -26 81 1 81 69 0 53 -12 71 -50 71 -14 0 -31 -5 -38 -12z"/>
<path d="M5486 11774 c-23 -22 -21 -96 2 -117 41 -37 92 -5 92 58 0 62 -56 98 -94 59z"/>
<path d="M5642 11778 c-7 -7 -12 -36 -12 -65 0 -41 4 -54 19 -63 49 -26 81 1 81 69 0 53 -12 71 -50 71 -14 0 -31 -5 -38 -12z"/>
<path d="M5796 11774 c-20 -20 -21 -83 0 -112 33 -47 94 -13 94 53 0 62 -56 98 -94 59z"/>
<path d="M6554 11486 c-41 -40 -44 -47 -44 -97 0 -95 61 -159 150 -159 89 0 150 64 150 159 0 50 -3 57 -44 97 -42 43 -45 44 -106 44 -61 0 -64 -1 -106 -44z m177 -35 c64 -65 20 -171 -71 -171 -33 0 -48 6 -71 29 -64 65 -20 171 71 171 33 0 48 -6 71 -29z"/>
<path d="M2421 11454 c-28 -35 -26 -69 4 -99 60 -61 153 2 120 81 -22 52 -90 62 -124 18z"/>
<path d="M2731 11454 c-28 -35 -26 -69 4 -99 60 -61 153 2 120 81 -22 52 -90 62 -124 18z"/>
<path d="M3041 11454 c-28 -35 -26 -69 4 -99 48 -49 125 -16 125 53 0 69 -87 99 -129 46z"/>
<path d="M3351 11454 c-28 -35 -26 -69 4 -99 48 -49 125 -16 125 53 0 69 -87 99 -129 46z"/>
<path d="M3661 11454 c-28 -35 -26 -69 4 -99 48 -49 125 -16 125 53 0 69 -87 99 -129 46z"/>
<path d="M3971 11454 c-28 -35 -26 -69 4 -99 48 -49 125 -16 125 53 0 69 -87 99 -129 46z"/>
<path d="M6989 11457 c-68 -45 -90 -143 -46 -207 68 -102 210 -97 265 10 28 56 28 86 -1 140 -41 78 -146 106 -218 57z m152 -55 c70 -62 26 -172 -68 -172 -33 0 -50 6 -68 24 -96 96 35 238 136 148z"/>
<path d="M5650 11347 c0 -29 -20 -53 -188 -220 l-188 -187 -260 0 -259 0 -285 -285 -285 -285 -825 0 -825 0 -158 -158 -157 -157 -1 -1445 0 -1445 -232 -205 -232 -206 3 -124 3 -123 -103 -104 -103 -103 -180 0 -180 0 -83 -83 -82 -82 0 -1136 0 -1135 -48 -47 -48 -47 -107 0 c-65 0 -107 4 -107 10 0 6 -45 10 -115 10 l-115 0 0 -35 0 -35 115 0 c70 0 115 4 115 10 0 6 44 10 112 10 l112 0 58 57 58 57 0 1135 0 1136 72 72 72 73 181 0 180 0 108 108 107 107 1 130 1 130 231 205 232 206 3 1444 2 1445 152 152 153 153 825 0 825 0 285 285 285 285 255 0 255 0 190 190 c169 169 193 190 222 190 32 0 33 2 33 40 l0 40 -40 0 c-39 0 -40 -1 -40 -33z"/>
<path d="M2764 11220 c-28 -11 -54 -48 -54 -78 0 -30 43 -72 74 -72 14 0 37 11 52 23 62 54 3 157 -72 127z"/>
<path d="M3074 11220 c-28 -11 -54 -48 -54 -78 0 -30 43 -72 73 -72 13 0 36 9 51 21 65 51 6 159 -70 129z"/>
<path d="M3390 11223 c-59 -21 -77 -86 -35 -128 48 -49 125 -16 125 54 0 51 -47 89 -90 74z"/>
<path d="M3691 11219 c-55 -22 -68 -83 -26 -124 48 -49 125 -16 125 54 0 56 -48 90 -99 70z"/>
<path d="M4001 11219 c-55 -22 -68 -83 -26 -124 30 -30 64 -32 99 -4 65 51 4 158 -73 128z"/>
<path d="M2425 11045 c-30 -30 -32 -64 -4 -99 34 -44 102 -34 124 18 33 79 -60 142 -120 81z"/>
<path d="M3540 10930 c0 -6 -113 -10 -318 -10 l-317 0 -105 -105 -105 -105 -81 0 c-65 0 -83 3 -88 16 -4 10 -16 14 -38 12 -30 -3 -33 -6 -36 -40 l-3 -38 40 0 c23 0 41 5 41 10 0 6 35 10 85 10 l85 0 105 105 105 105 315 0 c178 0 315 -4 315 -9 0 -5 16 -11 35 -13 35 -4 35 -4 35 34 0 37 -1 38 -35 38 -19 0 -35 -4 -35 -10z"/>
<path d="M6430 10906 c0 -14 -84 -16 -823 -16 l-822 0 -285 -285 -285 -285 -830 0 -830 0 -143 -143 -142 -142 0 -1447 0 -1448 -230 -202 -229 -203 -1 -130 0 -130 -113 -113 -112 -112 -180 0 -180 0 -72 -72 -73 -72 0 -1500 0 -1499 132 -134 c123 -124 135 -133 170 -133 27 0 38 -4 38 -15 0 -12 19 -15 115 -15 l115 0 0 40 0 40 -115 0 c-70 0 -115 -4 -115 -10 0 -5 -15 -10 -33 -10 -28 0 -48 16 -155 123 l-122 122 0 1490 0 1491 63 62 63 62 179 0 180 0 118 118 117 117 0 130 1 130 234 208 235 208 0 1447 0 1447 138 138 137 137 830 0 830 0 284 285 283 285 809 0 c710 0 810 -2 815 -15 4 -10 20 -15 46 -15 l39 0 -3 38 c-3 35 -5 37 -40 40 -29 2 -38 0 -38 -12z"/>
<path d="M4520 10555 l-285 -285 -825 0 -825 0 -133 -133 -132 -132 0 -1446 0 -1446 -230 -204 -230 -204 0 -130 0 -130 -128 -128 -127 -127 -180 0 -181 0 -52 -53 -52 -53 0 -1454 0 -1455 103 -103 c93 -93 106 -102 140 -102 26 0 37 -4 37 -15 0 -12 19 -15 115 -15 l115 0 0 40 0 40 -115 0 c-96 0 -115 -3 -115 -15 0 -10 -10 -15 -27 -15 -22 0 -50 23 -130 102 l-103 103 0 1435 0 1436 53 52 53 52 179 0 180 0 128 128 127 127 0 131 0 131 235 209 235 208 0 1446 0 1445 128 128 127 127 825 0 825 0 280 280 280 280 645 0 645 0 303 -303 302 -302 0 -83 c0 -48 -4 -82 -10 -82 -5 0 -10 -18 -10 -40 0 -39 1 -40 35 -40 34 0 35 1 35 40 0 22 -4 40 -10 40 -6 0 -10 36 -10 87 l0 87 -312 313 -313 313 -655 0 -655 0 -285 -285z"/>
<path d="M2920 10750 c0 -37 2 -40 28 -40 19 0 40 -12 67 -40 l39 -40 466 0 466 0 31 -32 c18 -19 33 -46 35 -63 3 -27 7 -30 41 -33 l37 -3 0 40 c0 38 -2 41 -28 41 -19 0 -40 12 -67 40 l-39 40 -466 0 -466 0 -37 38 c-24 25 -37 47 -37 65 0 24 -4 27 -35 27 -34 0 -35 -1 -35 -40z"/>
<path d="M3045 9899 c-132 -122 -268 -247 -303 -279 l-63 -58 1 -202 2 -203 -156 -157 -156 -156 0 -880 0 -879 -230 -203 -230 -204 0 -132 0 -131 -360 -360 -360 -360 0 -1220 0 -1220 78 -78 c69 -68 82 -77 115 -77 26 0 37 -4 37 -15 0 -12 19 -15 115 -15 l115 0 0 40 0 40 -115 0 c-96 0 -115 -3 -115 -15 0 -10 -10 -15 -28 -15 -21 0 -45 18 -105 78 l-77 77 0 1205 0 1204 365 366 365 365 0 127 0 126 230 204 230 203 0 880 0 880 155 155 155 155 0 206 0 206 118 106 c64 58 196 178 292 266 l175 160 320 1 320 0 230 -230 230 -230 550 0 551 0 49 50 49 50 96 0 95 0 323 -323 c269 -270 322 -327 322 -350 0 -26 2 -28 38 -25 35 3 37 5 37 38 0 32 -3 35 -31 38 -25 2 -86 59 -349 322 l-320 320 -115 0 -116 0 -49 -50 -49 -50 -535 0 -535 0 -236 235 -236 235 -324 -1 -325 0 -240 -220z"/>
<path d="M3028 9808 l-288 -262 0 -206 0 -205 -155 -155 -155 -155 -1 -880 0 -880 -235 -208 -234 -208 0 -127 0 -127 -360 -360 -360 -360 0 -1170 0 -1171 53 -52 c44 -44 58 -52 90 -52 26 0 37 -4 37 -15 0 -12 19 -15 115 -15 l115 0 0 40 0 40 -115 0 c-96 0 -115 -3 -115 -15 0 -10 -10 -15 -28 -15 -20 0 -41 13 -75 48 l-47 48 0 1160 0 1159 360 360 360 360 1 130 1 130 229 203 229 203 0 877 0 877 155 155 155 155 0 206 0 207 282 256 283 256 225 0 225 0 162 -162 c127 -128 162 -169 165 -193 3 -27 7 -30 41 -33 l37 -3 0 40 c0 38 -2 41 -27 41 -22 0 -61 34 -198 170 l-171 170 -235 0 -234 -1 -287 -261z"/>
<path d="M4367 9933 c-4 -3 -7 -21 -7 -40 0 -29 3 -33 28 -33 21 0 47 -20 117 -90 l90 -90 295 0 296 0 49 50 49 50 306 0 305 0 188 -188 c166 -166 187 -191 187 -220 0 -31 2 -32 40 -32 l40 0 0 40 c0 37 -2 40 -28 40 -22 0 -63 36 -222 195 l-195 195 -315 0 -316 0 -54 -55 -54 -55 -276 0 -275 0 -88 88 c-73 74 -87 92 -87 120 0 30 -2 32 -33 32 -19 0 -37 -3 -40 -7z"/>
<path d="M3540 9802 c0 -23 -83 -110 -505 -532 l-505 -505 0 -1095 0 -1095 -205 -205 -205 -205 0 -550 0 -550 280 -280 281 -281 -1 -609 c0 -392 -4 -611 -10 -613 -6 -2 -10 -21 -10 -43 0 -39 0 -39 40 -39 39 0 40 1 40 35 0 22 -6 38 -15 41 -13 5 -15 84 -15 623 l0 616 -285 285 -285 285 0 530 0 530 210 210 210 210 0 1095 0 1095 503 501 c389 388 507 500 525 499 19 -2 22 2 22 36 0 38 -1 39 -35 39 -32 0 -35 -3 -35 -28z"/>
<path d="M3127 9673 c-4 -3 -7 -21 -7 -40 0 -23 5 -33 15 -33 12 0 15 -14 15 -68 l0 -67 -335 -335 -335 -335 0 -1095 0 -1095 -205 -205 -205 -205 0 -580 0 -580 280 -280 280 -280 0 -410 0 -410 -138 -138 c-109 -109 -143 -137 -165 -137 -25 0 -27 -3 -27 -40 0 -39 1 -40 35 -40 32 0 35 3 35 28 0 22 28 55 145 172 l145 145 0 420 0 420 -285 285 -285 285 0 560 0 560 205 205 205 205 0 1095 0 1095 335 335 335 335 0 73 c0 55 4 74 15 78 10 4 15 20 15 45 0 38 -1 39 -33 39 -19 0 -37 -3 -40 -7z"/>
<path d="M3846 9665 c-4 -13 -34 -15 -183 -15 l-178 0 -453 -453 -452 -452 0 -1235 0 -1235 90 -90 c70 -70 90 -96 90 -117 0 -26 3 -28 40 -28 l40 0 0 40 c0 39 -1 40 -33 40 -27 0 -45 13 -115 83 l-82 82 0 1225 0 1225 448 448 447 447 168 0 c140 0 169 -2 173 -15 4 -9 19 -15 40 -15 33 0 34 1 34 40 0 39 -1 40 -34 40 -21 0 -36 -6 -40 -15z"/>
<path d="M4242 9278 c-471 -59 -904 -349 -1145 -766 -299 -521 -267 -1179 80 -1665 438 -612 1237 -822 1922 -506 l85 39 36 -35 c39 -38 88 -53 136 -41 14 4 53 32 86 63 l59 57 -180 180 c-113 114 -182 191 -186 209 -13 51 3 87 71 159 138 147 230 308 281 493 25 91 28 115 28 275 0 191 -11 256 -67 399 -44 112 -155 290 -202 324 -25 17 -57 18 -81 3 -25 -16 -25 -16 -5 -36 11 -11 22 -31 26 -45 8 -32 -32 -163 -58 -192 -29 -31 -78 -39 -116 -19 -55 28 -64 74 -38 174 20 73 39 99 82 111 21 6 50 22 65 37 37 35 102 43 145 16 71 -45 197 -250 249 -406 41 -121 56 -219 57 -356 1 -311 -101 -566 -322 -805 -39 -41 -70 -82 -70 -90 0 -36 37 -79 195 -230 155 -148 167 -157 183 -142 15 16 7 26 -126 160 -182 183 -190 206 -105 308 310 372 385 836 204 1259 -122 284 -409 557 -678 644 -47 16 -54 16 -82 2 -21 -11 -33 -28 -40 -53 -10 -34 -8 -40 14 -63 29 -31 33 -79 11 -152 -21 -67 -33 -86 -66 -103 -42 -22 -74 -19 -108 10 -41 34 -45 66 -23 153 21 80 39 107 86 126 23 10 34 24 43 54 17 55 60 86 122 86 37 0 72 -12 162 -56 731 -359 933 -1268 423 -1903 -93 -115 -94 -109 72 -277 76 -76 142 -137 147 -135 5 2 14 11 20 20 9 14 -9 36 -102 130 -109 110 -112 115 -112 158 0 38 9 57 66 139 113 164 182 319 221 503 25 115 25 380 0 497 -53 249 -162 459 -329 635 -250 264 -578 405 -944 405 -155 0 -156 0 -195 -140 -31 -112 -35 -140 -19 -140 5 0 17 -15 26 -32 16 -31 16 -37 -2 -107 -21 -86 -51 -128 -98 -137 -38 -7 -89 15 -106 45 -14 27 -12 76 4 139 19 71 38 98 80 113 33 12 35 15 62 123 47 182 62 191 302 183 224 -7 358 -40 545 -133 321 -160 565 -438 677 -773 47 -139 62 -225 67 -386 10 -304 -59 -541 -232 -802 -41 -61 -75 -122 -75 -134 0 -33 209 -243 227 -228 22 19 15 32 -57 104 -105 104 -110 147 -32 262 97 143 178 349 208 531 20 125 15 395 -10 507 -88 394 -333 731 -673 925 -242 139 -524 201 -810 179 -117 -10 -338 -59 -360 -82 -7 -7 -49 -143 -92 -302 l-80 -290 24 -25 c12 -14 25 -34 29 -45 6 -21 -22 -134 -43 -173 -27 -51 -117 -65 -154 -24 -34 38 -38 69 -18 149 20 79 47 117 87 127 27 7 18 -19 119 351 36 131 73 248 83 258 27 30 64 46 174 72 265 63 520 55 779 -25 521 -160 907 -606 995 -1150 20 -123 20 -347 -1 -465 -33 -188 -106 -380 -204 -532 -66 -104 -67 -127 -4 -194 26 -28 60 -60 76 -71 l29 -21 49 49 c27 26 56 67 65 91 16 40 15 44 -5 86 -12 24 -32 54 -46 67 l-24 23 33 66 c44 86 88 213 114 326 152 658 -149 1350 -733 1685 -293 169 -642 240 -973 198z m352 -938 c111 -28 189 -74 277 -160 83 -83 122 -143 154 -240 12 -35 29 -69 38 -74 10 -7 61 -3 159 13 79 12 152 19 162 15 27 -10 36 -47 36 -143 0 -265 -101 -507 -294 -704 -95 -98 -116 -133 -116 -197 0 -65 24 -106 126 -213 89 -94 95 -102 77 -114 -44 -33 -236 -124 -318 -151 -172 -57 -241 -67 -460 -67 -181 1 -211 3 -313 28 -275 64 -514 198 -712 398 -294 297 -446 718 -409 1134 6 66 13 122 15 124 2 2 174 -26 381 -62 208 -37 388 -67 399 -67 26 0 40 16 49 55 20 84 78 180 159 260 162 162 373 221 590 165z"/>
<path d="M4313 8136 c-85 -28 -172 -96 -221 -174 -73 -114 -83 -276 -23 -395 115 -236 402 -309 613 -157 65 46 131 138 153 213 45 151 -7 329 -127 431 -78 67 -140 90 -253 93 -65 2 -115 -2 -142 -11z"/>
<path d="M6070 8970 c0 -22 5 -40 10 -40 6 0 10 -53 10 -137 l1 -138 160 -187 160 -188 140 0 c86 0 139 -4 139 -10 0 -5 16 -10 35 -10 34 0 35 1 35 40 0 39 -1 40 -35 40 -24 0 -35 -5 -35 -15 0 -13 -22 -15 -134 -15 l-134 0 -151 176 -151 175 0 135 c0 83 4 134 10 134 6 0 10 18 10 40 0 39 -1 40 -35 40 -34 0 -35 -1 -35 -40z"/>
<path d="M6220 8970 c0 -39 1 -40 36 -40 30 0 53 -14 146 -90 l110 -90 517 0 517 0 47 -48 47 -48 0 -81 c0 -64 -3 -82 -16 -87 -10 -4 -14 -16 -11 -38 3 -30 7 -33 40 -36 l37 -3 0 40 c0 23 -4 41 -10 41 -6 0 -10 36 -10 88 l0 88 -53 52 -53 52 -520 0 -521 0 -112 91 c-96 78 -111 94 -111 120 0 27 -2 29 -40 29 l-40 0 0 -40z"/>
<path d="M946 8964 c-32 -31 -11 -84 32 -84 35 0 52 17 52 52 0 43 -53 64 -84 32z m60 -25 c8 -14 -21 -43 -35 -35 -6 4 -11 16 -11 27 0 21 34 27 46 8z"/>
<path d="M740 8860 c-23 -23 -25 -39 -7 -64 14 -19 62 -25 77 -10 20 22 21 53 1 73 -26 26 -46 26 -71 1z m58 -33 c4 -20 -25 -34 -40 -19 -15 15 -1 44 19 40 10 -2 19 -11 21 -21z"/>
<path d="M942 8758 c-33 -33 6 -96 52 -84 29 7 45 49 29 75 -13 20 -64 26 -81 9z m58 -23 c15 -17 5 -35 -20 -35 -22 0 -33 23 -17 39 15 15 22 14 37 -4z"/>
<path d="M734 8645 c-15 -23 -15 -27 0 -50 10 -15 26 -25 41 -25 15 0 31 10 41 25 15 23 15 27 0 50 -10 15 -26 25 -41 25 -15 0 -31 -10 -41 -25z m57 -39 c-16 -19 -41 -10 -41 14 0 24 21 31 39 14 11 -10 12 -16 2 -28z"/>
<path d="M947 8552 c-34 -37 -15 -82 33 -82 49 0 68 51 32 83 -24 22 -45 21 -65 -1z m56 -26 c9 -22 -19 -42 -37 -26 -19 15 -10 40 14 40 10 0 20 -6 23 -14z"/>
<path d="M730 8440 c-14 -26 -5 -57 21 -71 46 -24 93 24 64 67 -20 31 -69 33 -85 4z m68 -23 c4 -20 -25 -34 -40 -19 -15 15 -1 44 19 40 10 -2 19 -11 21 -21z"/>
<path d="M946 8344 c-32 -31 -8 -84 38 -84 30 0 46 18 46 52 0 43 -53 64 -84 32z m60 -25 c8 -14 -21 -43 -35 -35 -6 4 -11 16 -11 27 0 21 34 27 46 8z"/>
<path d="M740 8240 c-23 -23 -25 -40 -7 -62 22 -28 47 -29 73 -3 13 13 24 29 24 35 0 15 -38 50 -55 50 -8 0 -24 -9 -35 -20z m58 -33 c4 -20 -25 -34 -40 -19 -15 15 -1 44 19 40 10 -2 19 -11 21 -21z"/>
<path d="M942 8138 c-18 -18 -15 -53 6 -71 24 -22 45 -21 65 1 34 37 15 82 -33 82 -14 0 -31 -5 -38 -12z m58 -23 c15 -17 5 -35 -20 -35 -22 0 -33 23 -17 39 15 15 22 14 37 -4z"/>
<path d="M734 8025 c-15 -23 -15 -27 0 -50 10 -15 26 -25 41 -25 15 0 31 10 41 25 15 23 15 27 0 50 -10 15 -26 25 -41 25 -15 0 -31 -10 -41 -25z m57 -39 c-16 -19 -41 -10 -41 14 0 24 21 31 39 14 11 -10 12 -16 2 -28z"/>
<path d="M947 7932 c-34 -37 -15 -82 33 -82 32 0 50 17 50 46 0 48 -52 70 -83 36z m59 -23 c3 -6 -1 -18 -9 -27 -13 -12 -19 -13 -31 -3 -8 7 -12 19 -9 27 6 17 39 19 49 3z"/>
<path d="M753 7839 c-42 -16 -38 -80 7 -94 40 -13 79 29 60 65 -15 27 -41 39 -67 29z m45 -42 c4 -20 -25 -34 -40 -19 -15 15 -1 44 19 40 10 -2 19 -11 21 -21z"/>
<path d="M6887 7159 c-21 -13 -47 -61 -47 -89 0 -12 7 -35 17 -50 32 -55 102 -66 151 -25 51 43 51 107 1 154 -25 23 -90 28 -122 10z m108 -34 c24 -24 31 -57 19 -90 -10 -24 -60 -46 -89 -39 -57 14 -75 97 -29 133 35 28 69 26 99 -4z"/>
<path d="M6907 7102 c-22 -24 -21 -45 2 -66 26 -23 63 -17 78 14 25 50 -42 94 -80 52z"/>
<path d="M7129 7141 c-62 -62 -17 -170 71 -171 44 0 78 23 95 64 18 42 8 81 -27 111 -43 36 -100 34 -139 -4z m134 -22 c25 -31 21 -66 -13 -101 -25 -24 -36 -29 -58 -23 -43 11 -62 34 -62 76 0 72 86 103 133 48z"/>
<path d="M7166 7104 c-22 -21 -20 -47 4 -69 44 -40 107 25 69 71 -15 19 -54 18 -73 -2z"/>
<path d="M2140 6660 c-45 -45 -9 -130 54 -130 36 0 76 41 76 78 0 61 -86 96 -130 52z"/>
<path d="M6373 6641 c-33 -21 -46 -48 -45 -93 2 -92 116 -129 176 -57 74 87 -34 211 -131 150z m97 -21 c28 -15 40 -61 25 -97 -14 -33 -32 -43 -75 -43 -34 0 -70 40 -70 77 0 52 71 89 120 63z"/>
<path d="M6397 6592 c-23 -26 -21 -58 5 -76 12 -9 26 -16 30 -16 14 0 48 39 48 55 0 19 -35 55 -53 55 -8 0 -21 -8 -30 -18z"/>
<path d="M7424 6650 c-76 -31 -85 -142 -14 -183 36 -22 69 -21 100 0 38 26 49 45 50 80 0 47 -18 80 -55 98 -37 17 -50 18 -81 5z m87 -39 c52 -42 17 -131 -51 -131 -44 0 -74 31 -74 75 0 44 30 75 74 75 15 0 38 -8 51 -19z"/>
<path d="M7432 6594 c-30 -21 -29 -59 3 -80 23 -15 27 -15 50 0 32 21 33 59 3 80 -12 9 -25 16 -28 16 -3 0 -16 -7 -28 -16z"/>
<path d="M6875 6367 c-41 -41 -45 -75 -16 -123 42 -69 143 -63 177 9 31 64 -10 134 -83 144 -39 5 -46 2 -78 -30z m122 -19 c31 -29 30 -72 -2 -103 -30 -30 -64 -32 -99 -4 -33 26 -36 79 -6 109 27 27 77 26 107 -2z"/>
<path d="M6910 6330 c-34 -34 -17 -80 30 -80 51 0 72 55 32 88 -22 17 -39 15 -62 -8z"/>
<path d="M7134 6366 c-45 -45 -47 -95 -5 -136 38 -38 71 -46 114 -25 104 49 67 195 -50 195 -15 0 -38 -13 -59 -34z m125 -22 c28 -35 26 -69 -4 -99 -50 -51 -125 -18 -125 55 0 29 6 43 22 54 35 25 83 20 107 -10z"/>
<path d="M7165 6330 c-15 -16 -17 -26 -9 -48 17 -50 94 -39 94 14 0 49 -52 70 -85 34z"/>
<path d="M6371 6124 c-30 -21 -51 -71 -44 -107 8 -41 56 -77 105 -77 75 0 119 73 86 145 -23 50 -101 71 -147 39z m112 -32 c28 -25 23 -86 -10 -112 -72 -57 -168 46 -100 107 39 36 73 37 110 5z"/>
<path d="M6391 6076 c-16 -19 -10 -66 10 -79 26 -16 68 0 75 29 12 47 -55 87 -85 50z"/>
<path d="M8164 6106 c-38 -38 -43 -70 -19 -116 19 -36 43 -50 90 -50 47 0 81 24 95 65 15 44 4 80 -32 110 -44 37 -91 34 -134 -9z m136 -26 c27 -50 -11 -120 -65 -120 -51 0 -89 63 -69 115 18 45 111 48 134 5z"/>
<path d="M8194 6065 c-15 -23 -15 -27 0 -50 10 -15 26 -25 41 -25 15 0 31 10 41 25 15 23 15 27 0 50 -10 15 -26 25 -41 25 -15 0 -31 -10 -41 -25z"/>
<path d="M2457 6113 c-4 -3 -7 -18 -7 -32 0 -20 -32 -58 -140 -166 l-140 -140 0 -345 0 -345 285 -285 285 -285 0 -515 0 -516 50 -49 50 -49 0 -207 c0 -175 -2 -208 -15 -213 -9 -3 -15 -19 -15 -41 0 -34 1 -35 40 -35 l40 0 0 40 c0 22 -4 40 -10 40 -6 0 -10 78 -10 213 l0 213 -55 54 -55 54 0 516 0 515 -285 285 -285 285 0 325 0 325 143 143 c114 113 148 142 170 142 25 0 27 3 27 40 0 39 -1 40 -33 40 -19 0 -37 -3 -40 -7z"/>
<path d="M1265 6065 c-49 -48 -16 -125 53 -125 69 0 99 87 46 129 -35 28 -69 26 -99 -4z"/>
<path d="M4787 5770 c-110 -33 -169 -175 -118 -285 58 -126 227 -155 327 -57 153 152 -1 404 -209 342z m35 -126 c28 -15 33 -14 64 2 46 25 61 10 38 -38 -15 -33 -15 -37 1 -68 23 -45 7 -61 -39 -36 -33 18 -35 18 -65 0 -25 -15 -33 -16 -43 -6 -10 10 -9 19 4 43 16 28 17 33 2 61 -14 27 -13 58 1 58 3 0 20 -7 37 -16z"/>
<path d="M6525 5762 c-70 -33 -125 -115 -125 -187 0 -105 100 -205 205 -205 121 0 205 85 205 207 0 72 -28 125 -88 167 -54 38 -137 46 -197 18z m54 -118 c25 -15 30 -15 60 0 25 13 36 15 46 6 12 -10 11 -17 -5 -43 -19 -31 -19 -32 0 -64 16 -28 17 -33 4 -44 -12 -10 -21 -9 -44 4 -27 16 -31 16 -64 0 -49 -23 -66 -7 -40 36 17 29 17 32 1 66 -26 54 -9 69 42 39z"/>
<path d="M6620 5081 c-38 -37 -45 -70 -26 -115 31 -75 134 -82 177 -12 29 47 25 82 -15 122 -45 45 -95 47 -136 5z m120 -21 c30 -30 27 -83 -6 -109 -35 -28 -69 -26 -99 4 -31 30 -32 71 -3 102 27 29 80 31 108 3z"/>
<path d="M6650 5040 c-26 -26 -25 -36 4 -65 16 -16 31 -23 43 -19 22 8 43 33 43 51 0 18 -37 53 -55 53 -8 0 -24 -9 -35 -20z"/>
<path d="M490 4270 l0 -40 115 0 c96 0 115 3 115 15 0 12 17 15 89 15 70 0 90 -3 95 -15 3 -9 19 -15 41 -15 34 0 35 1 35 40 l0 40 -40 0 c-29 0 -40 -4 -40 -15 0 -12 -16 -15 -85 -15 -67 0 -87 3 -91 15 -5 12 -28 15 -120 15 l-114 0 0 -40z"/>
<path d="M1420 4270 l0 -40 115 0 115 0 0 40 0 40 -115 0 -115 0 0 -40z"/>
<path d="M490 4140 l0 -40 115 0 c96 0 115 3 115 15 0 11 11 15 40 15 30 0 40 -4 40 -16 0 -12 9 -14 38 -12 35 3 37 5 40 41 l3 37 -39 0 c-26 0 -42 -5 -46 -15 -3 -9 -18 -15 -36 -15 -18 0 -33 6 -36 15 -5 12 -28 15 -120 15 l-114 0 0 -40z"/>
<path d="M1420 4140 l0 -40 115 0 115 0 0 40 0 40 -115 0 -115 0 0 -40z"/>
<path d="M490 4010 l0 -40 115 0 c96 0 115 3 115 15 0 12 17 15 89 15 70 0 90 -3 95 -15 3 -9 19 -15 41 -15 34 0 35 1 35 40 l0 40 -40 0 c-22 0 -40 -4 -40 -10 0 -6 -37 -10 -90 -10 -53 0 -90 4 -90 10 0 6 -45 10 -115 10 l-115 0 0 -40z"/>
<path d="M1420 4010 l0 -40 115 0 115 0 0 40 0 40 -115 0 -115 0 0 -40z"/>
<path d="M490 3885 l0 -35 115 0 c70 0 115 4 115 10 0 6 18 10 40 10 22 0 40 -4 40 -10 0 -5 18 -10 40 -10 39 0 40 1 40 35 0 34 -1 35 -40 35 -22 0 -40 -4 -40 -10 0 -5 -18 -10 -40 -10 -22 0 -40 5 -40 10 0 6 -45 10 -115 10 l-115 0 0 -35z"/>
<path d="M1420 3885 l0 -35 115 0 c70 0 115 4 115 10 0 6 18 10 40 10 22 0 40 -4 40 -10 0 -5 18 -10 40 -10 39 0 40 1 40 35 0 34 -1 35 -40 35 -22 0 -40 -4 -40 -10 0 -5 -18 -10 -40 -10 -22 0 -40 5 -40 10 0 6 -45 10 -115 10 l-115 0 0 -35z"/>
<path d="M1420 3755 l0 -35 115 0 c70 0 115 4 115 10 0 6 37 10 90 10 53 0 90 -4 90 -10 0 -5 18 -10 40 -10 39 0 40 1 40 35 0 34 -1 35 -40 35 -22 0 -40 -4 -40 -10 0 -6 -37 -10 -90 -10 -53 0 -90 4 -90 10 0 6 -45 10 -115 10 l-115 0 0 -35z"/>
<path d="M497 3663 c-4 -3 -7 -21 -7 -40 l0 -33 115 0 115 0 0 40 0 40 -108 0 c-60 0 -112 -3 -115 -7z"/>
<path d="M1427 3663 c-4 -3 -7 -21 -7 -40 l0 -33 115 0 c70 0 115 4 115 10 0 6 34 10 83 10 l83 0 72 -73 72 -72 2 -195 3 -194 306 -286 c169 -157 330 -307 358 -333 l51 -48 0 -417 c0 -275 -3 -418 -10 -420 -5 -2 -10 -19 -10 -38 0 -33 1 -34 40 -34 39 0 40 1 40 35 0 24 -5 35 -15 35 -13 0 -15 54 -15 425 l0 424 -359 333 -360 333 0 195 -1 195 -83 83 -82 82 -88 0 c-71 0 -87 3 -87 15 0 12 -19 15 -108 15 -60 0 -112 -3 -115 -7z"/>
<path d="M497 3533 c-4 -3 -7 -21 -7 -40 l0 -33 115 0 c70 0 115 4 115 10 0 6 18 10 40 10 22 0 40 -4 40 -10 0 -5 18 -10 41 -10 l40 0 -3 38 c-3 35 -5 37 -40 40 -29 2 -38 0 -38 -12 0 -12 -10 -16 -40 -16 -29 0 -40 4 -40 15 0 12 -19 15 -108 15 -60 0 -112 -3 -115 -7z"/>
<path d="M1420 3500 l0 -40 115 0 c70 0 115 4 115 10 0 6 39 10 98 10 98 0 98 0 130 -33 l32 -33 0 -181 0 -181 310 -283 309 -284 1 -327 c0 -291 -2 -328 -16 -328 -12 0 -14 -9 -12 -37 3 -36 5 -38 38 -38 33 0 35 2 38 38 2 21 -1 37 -7 37 -8 0 -11 104 -11 328 0 248 -3 332 -12 344 -7 8 -147 137 -310 287 l-298 273 0 181 0 181 -42 43 -42 43 -103 0 c-85 0 -103 3 -103 15 0 12 -19 15 -115 15 l-115 0 0 -40z"/>
<path d="M490 3370 l0 -40 114 0 c77 0 116 4 118 12 5 14 171 12 176 -3 2 -5 21 -9 43 -9 39 0 39 0 39 40 0 39 -1 40 -35 40 -22 0 -38 -6 -41 -15 -5 -12 -25 -15 -95 -15 -72 0 -89 3 -89 15 0 12 -19 15 -115 15 l-115 0 0 -40z"/>
<path d="M1420 3370 l0 -40 115 0 115 0 0 40 0 40 -115 0 -115 0 0 -40z"/>
<path d="M490 3240 l0 -40 115 0 115 0 0 40 0 40 -115 0 -115 0 0 -40z"/>
<path d="M490 3110 l0 -40 115 0 115 0 0 40 0 40 -115 0 -115 0 0 -40z"/>
<path d="M490 2980 l0 -40 115 0 115 0 0 40 0 40 -115 0 -115 0 0 -40z"/>
<path d="M490 2850 l0 -40 115 0 c96 0 115 3 115 15 0 12 17 15 93 15 l93 0 37 -38 37 -38 0 -269 0 -269 42 -43 42 -43 308 0 c199 0 308 -4 308 -10 0 -5 18 -10 40 -10 39 0 40 1 40 35 0 34 -1 35 -40 35 -22 0 -40 -4 -40 -10 0 -6 -108 -10 -303 -10 l-303 0 -32 33 -32 33 0 270 0 270 -47 46 -48 47 -95 -1 c-59 0 -96 4 -98 11 -2 7 -45 11 -118 11 l-114 0 0 -40z"/>
<path d="M492 2723 l3 -38 113 -3 c95 -2 112 0 112 13 0 12 14 15 68 15 65 0 69 -1 105 -38 l37 -38 0 -220 0 -220 53 -52 53 -52 155 0 155 0 37 -38 c24 -25 37 -47 37 -65 0 -25 3 -27 40 -27 l40 0 0 40 c0 39 -1 40 -33 40 -25 0 -42 9 -72 40 l-39 40 -157 0 -156 0 -47 50 -47 50 1 216 1 217 -42 43 c-43 44 -43 44 -116 44 -42 0 -73 4 -73 10 0 6 -45 10 -116 10 l-115 0 3 -37z"/>
<path d="M1420 2720 l0 -40 115 0 c96 0 115 3 115 15 0 12 16 15 83 15 l83 0 46 -47 c30 -31 48 -59 50 -78 3 -27 6 -30 38 -30 33 0 35 2 38 38 3 34 1 37 -24 37 -19 0 -44 16 -85 55 l-58 55 -85 0 c-51 0 -86 4 -86 10 0 6 -45 10 -115 10 l-115 0 0 -40z"/>
<path d="M492 2593 l3 -38 113 -3 c95 -2 112 0 112 13 0 11 11 15 43 15 37 0 48 -6 80 -38 l37 -38 0 -230 0 -230 53 -52 53 -52 112 0 c93 0 112 -3 112 -15 0 -11 11 -15 40 -15 l40 0 0 40 c0 39 -1 40 -35 40 -22 0 -38 -6 -41 -15 -5 -12 -27 -15 -108 -15 l-102 0 -52 53 -52 53 0 230 0 230 -43 42 c-38 37 -48 42 -90 42 -26 0 -47 5 -47 10 0 6 -45 10 -116 10 l-115 0 3 -37z"/>
<path d="M1422 2593 l3 -38 113 -3 c95 -2 112 0 112 13 0 21 76 21 84 -1 4 -10 16 -14 38 -11 30 3 33 7 36 40 l3 37 -40 0 c-23 0 -41 -4 -41 -10 0 -5 -18 -10 -40 -10 -22 0 -40 5 -40 10 0 6 -45 10 -116 10 l-115 0 3 -37z"/>
<path d="M2090 2602 c0 -20 -13 -41 -48 -75 l-48 -47 -172 0 c-108 0 -172 4 -172 10 0 6 -45 10 -115 10 l-115 0 0 -35 0 -35 115 0 c70 0 115 4 115 10 0 6 66 10 178 10 l178 0 48 49 c34 35 59 51 80 53 28 3 31 7 34 41 l3 37 -40 0 c-38 0 -41 -2 -41 -28z"/>
<path d="M490 2465 l0 -35 115 0 115 0 0 35 0 35 -115 0 -115 0 0 -35z"/>
<path d="M1514 1321 c-86 -39 -137 -142 -114 -233 42 -164 251 -212 358 -83 137 167 -47 405 -244 316z m56 -116 c26 -14 33 -13 65 2 49 24 65 7 37 -39 -21 -34 -21 -34 -2 -63 11 -17 20 -33 20 -36 0 -16 -34 -18 -59 -3 -25 15 -30 15 -60 0 -25 -14 -36 -15 -47 -5 -12 10 -11 16 6 43 19 31 19 33 1 62 -18 29 -18 54 0 54 6 0 23 -7 39 -15z"/>
<path d="M3325 1321 c-70 -31 -125 -113 -125 -186 0 -43 23 -98 56 -135 127 -140 354 -52 354 137 0 150 -149 246 -285 184z m54 -118 c22 -15 26 -15 57 2 27 15 36 16 49 5 13 -11 12 -16 -6 -41 l-21 -29 20 -35 c17 -28 18 -36 7 -45 -10 -8 -21 -7 -46 5 -30 16 -34 16 -65 -1 -46 -25 -62 -9 -39 36 16 31 16 36 1 67 -25 52 -4 69 43 36z"/>
<path d="M0 10790 l0 -360 295 0 c346 0 365 4 464 96 171 158 151 431 -42 559 -88 58 -136 65 -444 65 l-273 0 0 -360z m511 177 c51 -27 98 -95 106 -154 16 -121 -86 -233 -213 -233 -49 0 -132 47 -162 92 -52 80 -39 202 30 264 65 59 161 72 239 31z"/>
<path d="M8270 11134 c-211 -56 -324 -293 -235 -492 36 -80 121 -162 200 -191 52 -20 76 -21 350 -21 l295 0 0 360 0 360 -277 -1 c-211 0 -291 -4 -333 -15z m288 -163 c79 -41 116 -106 110 -196 -5 -83 -38 -133 -109 -169 -87 -43 -168 -30 -235 38 -67 66 -80 145 -40 232 23 49 59 84 107 103 42 17 127 12 167 -8z"/>
<path d="M0 1240 l0 -361 308 3 307 3 58 29 c71 37 140 109 175 184 21 47 26 72 26 137 -1 148 -71 263 -202 327 l-67 33 -302 3 -303 3 0 -361z m533 164 c104 -74 115 -221 22 -311 -82 -78 -194 -80 -277 -5 -50 45 -68 85 -68 154 1 164 187 257 323 162z"/>
<path d="M8269 1586 c-106 -28 -201 -113 -240 -215 -33 -83 -32 -197 3 -273 35 -75 107 -151 177 -185 l56 -28 308 -3 307 -3 0 360 0 361 -282 -1 c-191 0 -298 -4 -329 -13z m321 -185 c73 -59 101 -161 67 -244 -27 -64 -121 -127 -191 -127 -43 0 -103 27 -142 65 -78 74 -84 182 -17 273 62 83 201 99 283 33z"/>
</g>
</svg>