<?xml version="1.0" encoding="utf-8"?>
<!DOCTYPE svg PUBLIC "-//W3C//DTD SVG 20010904//EN" "http://www.w3.org/TR/2001/REC-SVG-20010904/DTD/svg10.dtd">
<svg height="721.000000pt" preserveAspectRatio="xMidYMid meet" version="1.0" viewBox="0 0 1280.000000 721.000000" width="1280.000000pt" xmlns="http://www.w3.org/2000/svg">
<metadata>
Created by potrace 1.15, written by Peter Selinger 2001-2017
</metadata>
<g fill="#FFFFFF" stroke="#FFFFFF" transform="translate(0.000000,721.000000) scale(0.100000,-0.100000)">
<path d="M1765 7196 c-142 -45 -243 -157 -274 -304 -8 -38 -11 -911 -11 -3157 l0 -3105 -740 0 -740 0 0 -194 c0 -194 0 -195 25 -225 26 -30 135 -91 163 -91 8 0 51 -17 96 -39 44 -21 106 -47 136 -57 53 -18 231 -19 5950 -22 3857 -1 5914 1 5950 8 30 5 96 29 145 54 50 24 113 51 140 60 58 19 108 48 159 93 l36 32 0 191 0 190 -735 0 -735 0 -2 3143 -3 3143 -38 76 c-43 87 -98 142 -186 185 l-56 28 -4620 2 c-3713 1 -4628 -1 -4660 -11z"/>
</g>
</svg>