<?xml version="1.0" encoding="utf-8"?>
<!DOCTYPE svg PUBLIC "-//W3C//DTD SVG 20010904//EN" "http://www.w3.org/TR/2001/REC-SVG-20010904/DTD/svg10.dtd">
<svg height="640.000000pt" preserveAspectRatio="xMidYMid meet" version="1.0" viewBox="0 0 1280.000000 640.000000" width="1280.000000pt" xmlns="http://www.w3.org/2000/svg">
<metadata>
Created by potrace 1.15, written by Peter Selinger 2001-2017
</metadata>
<g fill="#FFFFFF" stroke="#FFFFFF" transform="translate(0.000000,640.000000) scale(0.100000,-0.100000)">
<path d="M8505 5254 c-875 -504 -1601 -927 -1614 -939 l-23 -23 131 -1138 c116 -1010 131 -1157 131 -1301 0 -89 4 -172 9 -185 7 -18 299 -191 1208 -715 659 -379 1206 -693 1215 -696 11 -4 82 31 195 97 1251 719 3003 1734 3021 1749 21 20 22 27 22 188 0 145 -2 169 -17 187 -10 10 -481 286 -1048 612 -566 326 -1036 599 -1044 606 -15 14 -19 43 -191 1549 -50 435 -88 728 -95 741 -11 18 -248 161 -295 179 -10 3 -642 -356 -1605 -911z"/>
<path d="M2541 6070 c-73 -43 -138 -83 -144 -89 -6 -6 -70 -521 -143 -1151 -72 -627 -133 -1142 -135 -1144 -2 -2 -470 -273 -1039 -601 -569 -329 -1045 -607 -1058 -618 -21 -20 -22 -27 -22 -187 0 -118 4 -171 12 -182 13 -17 3152 -1833 3199 -1851 23 -9 140 56 1220 678 657 378 1204 698 1217 712 21 23 22 32 22 191 -1 151 12 278 131 1310 129 1119 131 1144 113 1162 -35 33 -3197 1850 -3218 1849 -12 0 -81 -36 -155 -79z"/>
</g>
</svg>