<?xml version="1.0" encoding="utf-8"?>
<!DOCTYPE svg PUBLIC "-//W3C//DTD SVG 20010904//EN" "http://www.w3.org/TR/2001/REC-SVG-20010904/DTD/svg10.dtd">
<svg height="905.000000pt" preserveAspectRatio="xMidYMid meet" version="1.0" viewBox="0 0 1280.000000 905.000000" width="1280.000000pt" xmlns="http://www.w3.org/2000/svg">
<metadata>
Created by potrace 1.15, written by Peter Selinger 2001-2017
</metadata>
<g fill="#FFFFFF" stroke="#FFFFFF" transform="translate(0.000000,905.000000) scale(0.100000,-0.100000)">
<path d="M3174 8430 c-72 -13 -173 -51 -241 -91 -136 -80 -295 -279 -421 -525 -34 -67 -68 -124 -77 -128 -9 -3 -15 -18 -15 -35 0 -61 0 -61 -146 -61 l-134 0 0 -130 0 -130 70 0 c39 0 70 -2 70 -5 0 -2 -7 -19 -14 -37 -8 -18 -35 -106 -60 -195 -25 -89 -71 -231 -102 -315 -162 -440 -194 -560 -194 -718 0 -67 5 -90 36 -162 81 -191 191 -361 326 -503 57 -60 85 -97 76 -99 -7 -3 -238 -55 -513 -116 -554 -123 -574 -128 -660 -175 -166 -91 -265 -247 -299 -467 -58 -381 -59 -619 -6 -1063 23 -189 33 -322 37 -487 l6 -227 71 -68 72 -69 34 -159 c34 -158 35 -164 40 -468 l5 -309 24 -19 c14 -12 39 -19 65 -19 l41 0 28 -139 c32 -166 73 -297 128 -407 37 -77 43 -83 90 -102 54 -23 196 -58 273 -67 l48 -7 -7 -186 c-3 -103 -10 -286 -16 -407 -5 -121 -9 -246 -9 -277 l0 -58 1895 0 c1361 0 1895 3 1895 11 0 6 -27 95 -60 197 -83 262 -109 369 -121 506 -10 124 -20 158 -69 237 -39 64 -58 128 -63 219 l-5 75 14 -65 c31 -140 101 -242 190 -276 l43 -17 68 61 c38 33 148 141 246 241 l179 181 82 0 c50 0 87 -5 94 -12 9 -9 12 -9 12 0 0 17 216 17 223 0 4 -10 6 -10 6 0 1 9 30 12 110 12 78 0 111 -4 114 -12 4 -10 6 -10 6 0 1 9 30 12 110 12 78 0 111 -4 115 -12 5 -10 7 -10 12 -1 8 18 210 18 218 1 5 -11 7 -11 12 0 8 17 210 17 218 0 5 -10 7 -10 12 0 8 17 210 17 218 0 5 -11 7 -11 12 0 4 8 37 12 114 12 77 0 110 -4 113 -12 4 -10 6 -10 6 0 1 9 30 12 110 12 78 0 111 -4 114 -12 4 -10 6 -10 6 0 1 17 217 17 224 0 4 -10 6 -10 6 0 1 9 30 12 110 12 78 0 111 -4 115 -12 5 -10 7 -10 12 0 8 17 210 17 218 0 5 -10 7 -10 12 0 4 8 36 12 109 12 73 0 105 -4 109 -12 5 -10 7 -10 12 0 8 17 210 17 218 0 5 -11 7 -11 12 0 8 17 220 17 227 0 4 -10 6 -10 6 0 1 17 221 17 221 0 0 -9 3 -9 12 0 17 17 214 17 222 0 5 -11 7 -11 12 0 8 17 210 17 218 0 5 -10 7 -10 12 0 8 17 210 17 218 0 5 -11 7 -11 12 0 4 8 36 12 109 12 73 0 105 -4 109 -12 5 -10 7 -10 12 0 3 6 19 12 35 12 16 0 29 5 29 10 0 6 -13 10 -30 10 l-30 0 0 105 c0 105 0 105 24 105 14 0 28 5 31 10 4 6 -7 10 -24 10 l-31 0 0 105 c0 105 0 105 24 105 14 0 28 5 31 10 4 6 -7 10 -24 10 l-31 0 0 110 0 110 33 1 32 1 -30 7 -30 6 -3 108 -3 107 31 0 c16 0 30 5 30 10 0 6 -13 10 -30 10 l-30 0 0 105 0 105 30 0 c17 0 30 5 30 10 0 6 -13 10 -30 10 l-30 0 0 105 0 105 30 0 c17 0 30 5 30 10 0 6 -13 10 -30 10 l-30 0 0 105 0 105 30 0 c17 0 30 5 30 10 0 6 -13 10 -30 10 l-30 0 0 105 c0 105 0 105 24 105 14 0 28 5 31 10 4 6 -7 10 -24 10 l-31 0 0 105 c0 105 0 105 24 105 14 0 28 5 31 10 4 6 -7 10 -24 10 l-31 0 0 110 0 110 33 1 32 1 -30 7 -30 6 -3 108 -3 107 31 0 c16 0 30 5 30 10 0 6 -13 10 -30 10 l-30 0 0 105 0 105 30 0 c17 0 30 5 30 10 0 6 -13 10 -30 10 l-30 0 0 105 0 105 30 0 c17 0 30 5 30 10 0 6 -13 10 -30 10 l-30 0 0 105 0 105 30 0 c17 0 30 5 30 10 0 6 -14 10 -30 10 l-31 0 3 107 c3 104 4 106 27 110 37 5 38 13 3 13 l-32 0 0 110 0 110 32 0 c17 0 28 3 24 8 -8 7 -13 8 -41 11 -12 1 -15 20 -15 106 l0 105 33 1 32 1 -30 7 -30 6 -3 108 -3 107 31 0 c16 0 30 5 30 10 0 6 -13 10 -30 10 l-30 0 0 105 0 105 33 0 c19 0 48 -7 65 -16 37 -18 67 -11 86 19 23 35 309 1135 302 1161 -12 49 -12 49 -722 -39 -368 -46 -686 -86 -706 -90 l-38 -5 0 85 c0 83 0 85 24 85 14 0 28 5 31 10 4 6 -7 10 -24 10 l-31 0 0 109 0 110 33 4 32 4 -32 1 -33 2 0 109 0 110 33 4 32 4 -32 1 -33 2 0 110 0 110 31 0 c17 0 28 4 24 10 -4 7 -853 10 -2515 10 l-2510 0 -49 98 c-46 92 -162 273 -213 334 -35 40 -210 154 -323 209 -148 72 -255 100 -400 106 -85 3 -140 0 -190 -10 -53 -12 -71 -13 -77 -4 -9 15 -153 19 -224 7z m1566 -800 c0 -36 -3 -40 -25 -40 -19 0 -28 8 -40 36 -8 20 -15 38 -15 40 0 2 18 4 40 4 l40 0 0 -40z m230 0 l0 -40 -107 0 -108 0 2 37 c1 21 2 39 2 41 1 1 48 2 106 2 l105 0 0 -40z m230 0 l0 -40 -105 0 -105 0 0 40 0 40 105 0 105 0 0 -40z m230 0 l0 -40 -105 0 -105 0 0 40 0 40 105 0 105 0 0 -40z m230 0 l0 -40 -105 0 -105 0 0 40 0 40 105 0 105 0 0 -40z m238 -2 l3 -38 -110 0 -111 0 0 40 0 41 108 -3 107 -3 3 -37z m232 2 l0 -40 -110 0 -110 0 0 33 c0 19 3 37 7 40 3 4 53 7 110 7 l103 0 0 -40z m230 0 l0 -40 -105 0 -105 0 0 40 0 40 105 0 105 0 0 -40z m230 0 l0 -40 -105 0 -105 0 0 40 0 40 105 0 105 0 0 -40z m230 0 l0 -40 -105 0 -105 0 0 40 0 40 105 0 105 0 0 -40z m230 0 l0 -40 -105 0 -105 0 0 40 0 40 105 0 105 0 0 -40z m230 0 l0 -40 -105 0 -105 0 0 40 0 40 105 0 105 0 0 -40z m238 -2 l3 -38 -110 0 -111 0 0 40 0 41 108 -3 107 -3 3 -37z m232 2 l0 -40 -110 0 -110 0 0 33 c0 19 3 37 7 40 3 4 53 7 110 7 l103 0 0 -40z m230 0 l0 -40 -105 0 -105 0 0 40 0 40 105 0 105 0 0 -40z m230 0 l0 -40 -105 0 -105 0 0 40 0 40 105 0 105 0 0 -40z m230 0 l0 -40 -105 0 -105 0 0 40 0 40 105 0 105 0 0 -40z m230 0 l0 -40 -105 0 -105 0 0 40 0 40 105 0 105 0 0 -40z m240 0 l0 -40 -110 0 -110 0 0 40 0 40 110 0 110 0 0 -40z m228 -2 l3 -38 -110 0 -111 0 0 33 c0 19 3 37 7 41 4 4 52 5 107 4 l101 -3 3 -37z m230 -70 c-2 -86 -3 -96 -5 -40 l-4 72 -104 0 -105 0 0 33 c0 19 3 37 7 40 3 4 53 7 110 7 l103 0 -2 -112z m232 2 l0 -110 -105 0 -105 0 0 110 0 110 105 0 105 0 0 -110z m0 -230 l0 -110 -105 0 -105 0 0 110 0 110 105 0 105 0 0 -110z m-230 -5 l0 -106 -107 3 -108 3 -3 53 -3 52 105 0 106 0 0 50 c0 28 2 50 5 50 3 0 5 -47 5 -105z m-232 -45 c-4 -67 -22 -69 -26 -2 -2 42 0 52 13 52 13 0 15 -10 13 -50z m2 -186 c0 -86 -3 -104 -15 -104 -12 0 -15 18 -15 103 0 57 3 107 6 110 17 17 24 -13 24 -109z m228 4 l3 -108 -111 0 -110 0 0 103 c0 57 3 107 7 111 4 4 52 5 107 4 l101 -3 3 -107z m232 2 l0 -110 -105 0 -105 0 0 110 0 110 105 0 105 0 0 -110z m-460 -235 c0 -87 -3 -105 -15 -105 -12 0 -15 18 -15 105 0 87 3 105 15 105 12 0 15 -18 15 -105z m230 6 l0 -98 -31 -7 c-17 -3 -67 -6 -110 -6 l-79 0 0 105 0 105 110 0 110 0 0 -99z m230 15 c0 -96 9 -89 -115 -101 -33 -4 -68 -9 -77 -11 -16 -5 -18 4 -18 95 l0 101 105 0 105 0 0 -84z m-460 -251 c0 -87 -3 -105 -15 -105 -12 0 -15 18 -15 105 0 87 3 105 15 105 12 0 15 -18 15 -105z m102 75 c-5 -37 14 -61 80 -98 39 -22 48 -32 48 -54 l0 -28 -110 0 -110 0 0 105 0 105 48 0 c48 0 49 0 44 -30z m198 -170 c12 -7 8 -10 -17 -10 -27 0 -33 4 -33 20 0 21 7 20 50 -10z m-302 -41 c-2 -6 -8 -10 -13 -10 -5 0 -11 4 -13 10 -2 6 4 11 13 11 9 0 15 -5 13 -11z m232 -4 c0 -13 -16 -15 -107 -13 -74 2 -108 7 -111 16 -3 9 23 12 107 12 93 0 111 -2 111 -15z m146 0 c17 -13 12 -14 -53 -15 -58 0 -73 3 -73 15 0 21 99 21 126 0z m-376 -116 c0 -64 -3 -79 -15 -79 -12 0 -15 15 -15 78 0 43 3 82 6 85 17 16 24 -10 24 -84z m50 6 c0 -78 -2 -85 -20 -85 -18 0 -20 7 -20 78 0 80 3 92 27 92 10 0 13 -21 13 -85z m178 -2 l3 -83 -81 0 -80 0 0 78 c0 43 3 82 7 86 4 4 39 5 78 4 l70 -3 3 -82z m60 -1 c3 -77 2 -82 -18 -82 -19 0 -20 6 -20 84 0 75 2 84 18 82 14 -2 17 -16 20 -84z m150 75 c20 -9 22 -17 22 -84 l0 -73 -80 0 -80 0 0 78 c0 43 3 82 7 86 10 10 103 5 131 -7z m82 -80 c0 -31 -15 -57 -32 -57 -4 0 -8 25 -8 55 0 53 1 55 20 45 14 -7 20 -21 20 -43z m40 3 c0 -5 -4 -10 -10 -10 -5 0 -10 5 -10 10 0 6 5 10 10 10 6 0 10 -4 10 -10z m-560 -115 c0 -8 -7 -15 -15 -15 -8 0 -15 7 -15 15 0 8 7 15 15 15 8 0 15 -7 15 -15z m50 0 c0 -8 -9 -15 -20 -15 -11 0 -20 7 -20 15 0 8 9 15 20 15 11 0 20 -7 20 -15z m180 0 c0 -12 -16 -15 -80 -15 -64 0 -80 3 -80 15 0 12 16 15 80 15 64 0 80 -3 80 -15z m53 0 c1 -5 -6 -11 -15 -13 -11 -2 -18 3 -18 13 0 17 30 18 33 0z m143 0 c-27 -21 -126 -21 -126 0 0 12 15 15 73 15 65 -1 70 -2 53 -15z m-426 -115 c0 -64 -3 -80 -15 -80 -12 0 -15 16 -15 80 0 64 3 80 15 80 12 0 15 -16 15 -80z m50 0 c0 -73 -2 -80 -20 -80 -18 0 -20 7 -20 80 0 73 2 80 20 80 18 0 20 -7 20 -80z m180 18 c0 -84 -14 -98 -97 -98 l-63 0 0 80 0 80 80 0 80 0 0 -62z m60 24 c0 -26 -7 -45 -20 -57 -20 -18 -20 -17 -20 38 0 50 2 57 20 57 17 0 20 -7 20 -38z m60 8 c-44 -37 -50 -37 -50 0 0 29 2 30 42 30 l42 0 -34 -30z m-350 -171 c0 -5 -7 -9 -15 -9 -15 0 -20 12 -9 23 8 8 24 -1 24 -14z m50 6 c0 -8 -6 -15 -14 -15 -17 0 -28 14 -19 24 12 12 33 6 33 -9z m110 6 c0 -12 -26 -21 -61 -21 -19 0 -29 5 -29 15 0 11 12 15 45 15 25 0 45 -4 45 -9z m-162 -93 c-4 -74 -28 -77 -28 -4 0 44 3 56 16 56 12 0 14 -10 12 -52z m52 24 c0 -27 -15 -52 -32 -52 -4 0 -8 18 -8 40 0 33 3 40 20 40 15 0 20 -7 20 -28z m60 23 c0 -2 -9 -9 -20 -15 -16 -9 -20 -8 -20 5 0 8 9 15 20 15 11 0 20 -2 20 -5z m1100 -125 l0 -80 -87 0 -88 1 85 79 c47 44 86 80 88 80 1 0 2 -36 2 -80z m230 -62 c0 -16 -12 -18 -105 -18 l-105 0 0 80 0 79 105 -62 c68 -41 105 -68 105 -79z m50 -14 c0 -2 -7 -4 -15 -4 -8 0 -15 4 -15 10 0 5 7 7 15 4 8 -4 15 -8 15 -10z m-280 -129 l0 -105 -105 0 -105 0 0 105 0 105 105 0 105 0 0 -105z m230 0 l0 -105 -105 0 -105 0 0 105 0 105 105 0 105 0 0 -105z m-463 -102 c-3 -2 -49 -2 -103 -1 l-98 3 100 88 99 88 3 -87 c2 -48 1 -88 -1 -91z m-231 -230 c-4 -10 -32 -13 -106 -13 -129 0 -129 5 5 127 l100 91 3 -96 c1 -53 0 -102 -2 -109z m232 100 l-3 -108 -102 -3 -103 -3 0 111 0 110 105 0 106 0 -3 -107z m232 -3 l0 -110 -105 0 -105 0 0 110 0 110 105 0 105 0 0 -110z m230 0 l0 -110 -105 0 -105 0 0 110 0 110 105 0 105 0 0 -110z m-920 -205 c0 -78 -2 -85 -20 -85 -18 0 -20 7 -20 78 0 80 3 92 27 92 10 0 13 -21 13 -85z m230 -20 l0 -105 -105 0 -105 0 0 105 0 105 105 0 105 0 0 -105z m230 0 l0 -105 -105 0 -105 0 0 105 0 105 105 0 105 0 0 -105z m230 0 l0 -105 -105 0 -105 0 0 105 0 105 105 0 105 0 0 -105z m230 0 l0 -105 -105 0 -105 0 0 105 0 105 105 0 105 0 0 -105z m-980 5 l0 -70 -77 0 -78 1 75 69 c41 38 76 69 78 70 1 0 2 -31 2 -70z m-170 -99 c0 -5 -7 -11 -15 -15 -15 -5 -20 5 -8 17 9 10 23 9 23 -2z m170 -1 c0 -6 -33 -10 -80 -10 -47 0 -80 4 -80 10 0 6 33 10 80 10 47 0 80 -4 80 -10z m60 0 c0 -5 -9 -10 -20 -10 -11 0 -20 5 -20 10 0 6 9 10 20 10 11 0 20 -4 20 -10z m-232 -118 c3 -77 2 -82 -18 -82 -19 0 -20 6 -20 86 0 76 2 85 18 82 14 -3 17 -16 20 -86z m172 3 l0 -85 -80 0 -80 0 0 78 c0 43 3 82 7 85 3 4 39 7 80 7 l73 0 0 -85z m60 0 c0 -78 -2 -85 -20 -85 -18 0 -20 7 -20 85 0 78 2 85 20 85 18 0 20 -7 20 -85z m230 -25 l0 -110 -105 0 -105 0 0 110 0 110 105 0 105 0 0 -110z m230 0 l0 -110 -105 0 -105 0 0 110 0 110 105 0 105 0 0 -110z m230 0 l0 -110 -105 0 -105 0 0 110 0 110 105 0 105 0 0 -110z m230 0 l0 -110 -105 0 -105 0 0 110 0 110 105 0 105 0 0 -110z m-1210 20 l0 -80 -81 0 c-65 0 -80 3 -77 14 2 12 146 146 155 146 2 0 3 -36 3 -80z m-180 -115 c0 -8 -6 -15 -14 -15 -17 0 -28 14 -19 24 12 12 33 6 33 -9z m180 0 c0 -12 -16 -15 -80 -15 -64 0 -80 3 -80 15 0 12 16 15 80 15 64 0 80 -3 80 -15z m53 0 c1 -5 -6 -11 -15 -13 -11 -2 -18 3 -18 13 0 17 30 18 33 0z m177 0 c0 -13 -13 -15 -77 -13 -50 2 -78 7 -81 16 -3 9 17 12 77 12 66 0 81 -3 81 -15z m60 0 c0 -8 -9 -15 -20 -15 -11 0 -20 7 -20 15 0 8 9 15 20 15 11 0 20 -7 20 -15z m-470 -117 c0 -80 -2 -89 -17 -86 -15 3 -19 16 -21 77 -3 84 0 98 22 98 13 0 16 -15 16 -89z m175 2 l0 -85 -75 0 -75 0 -3 74 c-2 41 -1 80 2 87 3 9 27 12 78 11 l73 -2 0 -85z m60 -1 c0 -72 -2 -84 -17 -87 -16 -3 -18 6 -18 86 0 80 2 90 18 88 15 -3 17 -15 17 -87z m173 -2 l3 -88 -78 3 -78 3 -3 74 c-2 41 -1 80 2 87 3 9 27 12 78 11 l73 -2 3 -88z m57 2 c0 -72 -2 -84 -17 -87 -16 -3 -18 6 -18 86 0 80 2 90 18 88 15 -3 17 -15 17 -87z m233 -21 l3 -108 -106 0 -105 0 0 109 0 110 103 -2 102 -2 3 -107z m230 0 l3 -108 -106 0 -105 0 0 109 0 110 103 -2 102 -2 3 -107z m232 2 l0 -110 -105 0 -105 0 0 109 0 109 105 1 105 2 0 -111z m230 -1 l0 -109 -105 0 -105 0 0 103 c0 57 3 106 6 110 3 3 50 5 105 5 l99 0 0 -109z m-1442 21 c-4 -107 -22 -108 -26 -2 -2 69 0 82 13 82 13 0 15 -13 13 -80z m2 -121 c0 -5 -7 -9 -15 -9 -15 0 -20 12 -9 23 8 8 24 -1 24 -14z m50 6 c0 -8 -9 -15 -20 -15 -20 0 -26 11 -13 23 12 13 33 7 33 -8z m180 0 c0 -12 -16 -15 -80 -15 -64 0 -80 3 -80 15 0 12 16 15 80 15 64 0 80 -3 80 -15z m53 0 c1 -5 -6 -11 -15 -13 -11 -2 -18 3 -18 13 0 17 30 18 33 0z m177 0 c0 -12 -16 -15 -80 -15 -73 0 -91 6 -73 23 3 4 39 7 80 7 58 0 73 -3 73 -15z m60 0 c0 -8 -9 -15 -20 -15 -11 0 -20 7 -20 15 0 8 9 15 20 15 11 0 20 -7 20 -15z m-522 -115 c-4 -107 -22 -108 -26 -2 -2 69 0 82 13 82 13 0 15 -13 13 -80z m52 -4 c0 -75 -2 -84 -17 -82 -15 2 -18 16 -21 84 -3 77 -2 82 18 82 19 0 20 -6 20 -84z m178 2 l-3 -83 -75 0 -75 0 -3 83 -3 82 81 0 81 0 -3 -82z m60 0 c-3 -68 -6 -82 -20 -84 -16 -2 -18 7 -18 82 0 78 1 84 20 84 20 0 21 -5 18 -82z m172 -3 l0 -86 -77 3 -78 3 -3 83 -3 82 81 0 80 0 0 -85z m58 3 c-3 -70 -6 -83 -20 -86 -16 -3 -18 6 -18 82 0 80 1 86 20 86 20 0 21 -5 18 -82z m232 -23 l0 -105 -105 0 -105 0 0 105 0 105 105 0 105 0 0 -105z m230 0 l0 -105 -105 0 -105 0 0 105 0 105 105 0 105 0 0 -105z m230 0 l0 -105 -105 0 -105 0 0 105 0 105 105 0 105 0 0 -105z m230 0 l0 -105 -105 0 -105 0 0 105 0 105 105 0 105 0 0 -105z m-1440 -96 c0 -5 -7 -9 -15 -9 -15 0 -20 12 -9 23 8 8 24 -1 24 -14z m50 6 c0 -8 -9 -15 -20 -15 -20 0 -26 11 -13 23 12 13 33 7 33 -8z m180 0 c0 -12 -16 -15 -80 -15 -64 0 -80 3 -80 15 0 12 16 15 80 15 64 0 80 -3 80 -15z m58 -2 c2 -8 -5 -13 -17 -13 -12 0 -21 6 -21 16 0 18 31 15 38 -3z m172 2 c0 -12 -16 -15 -80 -15 -73 0 -91 6 -73 23 3 4 39 7 80 7 58 0 73 -3 73 -15z m60 0 c0 -8 -9 -15 -20 -15 -11 0 -20 7 -20 15 0 8 9 15 20 15 11 0 20 -7 20 -15z m-522 -115 c-4 -107 -22 -108 -26 -2 -2 69 0 82 13 82 13 0 15 -13 13 -80z m52 -6 c0 -76 -2 -85 -17 -82 -15 3 -18 16 -21 86 -3 77 -2 82 18 82 19 0 20 -6 20 -86z m180 1 l0 -85 -80 0 -80 0 0 85 0 85 80 0 80 0 0 -85z m58 3 c-3 -70 -6 -83 -20 -86 -16 -3 -18 6 -18 82 0 80 1 86 20 86 20 0 21 -5 18 -82z m172 -3 l0 -85 -80 0 -80 0 0 85 0 85 80 0 80 0 0 -85z m60 0 c0 -78 -2 -85 -20 -85 -18 0 -20 7 -20 85 0 78 2 85 20 85 18 0 20 -7 20 -85z m230 -20 l0 -105 -105 0 -105 0 0 105 0 105 105 0 105 0 0 -105z m230 0 l0 -105 -105 0 -105 0 0 105 0 105 105 0 105 0 0 -105z m230 0 l0 -105 -105 0 -105 0 0 105 0 105 105 0 105 0 0 -105z m230 0 l0 -105 -105 0 -105 0 0 105 0 105 105 0 105 0 0 -105z m-1440 -95 c0 -5 -7 -10 -15 -10 -8 0 -15 5 -15 10 0 6 7 10 15 10 8 0 15 -4 15 -10z m50 0 c0 -5 -9 -10 -20 -10 -11 0 -20 5 -20 10 0 6 9 10 20 10 11 0 20 -4 20 -10z m180 0 c0 -6 -33 -10 -80 -10 -47 0 -80 4 -80 10 0 6 33 10 80 10 47 0 80 -4 80 -10z m60 0 c0 -5 -9 -10 -20 -10 -11 0 -20 5 -20 10 0 6 9 10 20 10 11 0 20 -4 20 -10z m170 0 c0 -6 -33 -10 -80 -10 -47 0 -80 4 -80 10 0 6 33 10 80 10 47 0 80 -4 80 -10z m60 0 c0 -5 -9 -10 -20 -10 -11 0 -20 5 -20 10 0 6 9 10 20 10 11 0 20 -4 20 -10z m-520 -115 c0 -69 -3 -85 -15 -85 -12 0 -15 16 -15 85 0 69 3 85 15 85 12 0 15 -16 15 -85z m50 0 c0 -78 -2 -85 -20 -85 -18 0 -20 7 -20 85 0 78 2 85 20 85 18 0 20 -7 20 -85z m180 0 l0 -85 -80 0 -80 0 0 85 0 85 80 0 80 0 0 -85z m58 3 c-3 -70 -6 -83 -20 -86 -16 -3 -18 6 -18 82 0 80 1 86 20 86 20 0 21 -5 18 -82z m172 -3 l0 -85 -80 0 -80 0 0 85 0 85 80 0 80 0 0 -85z m60 0 c0 -78 -2 -85 -20 -85 -18 0 -20 7 -20 85 0 78 2 85 20 85 18 0 20 -7 20 -85z m230 -20 l0 -105 -105 0 -105 0 0 105 0 105 105 0 105 0 0 -105z m230 0 l0 -105 -105 0 -105 0 0 105 0 105 105 0 105 0 0 -105z m230 0 l0 -105 -105 0 -105 0 0 105 0 105 105 0 105 0 0 -105z m230 0 l0 -105 -105 0 -105 0 0 105 0 105 105 0 105 0 0 -105z m-1440 -95 c0 -5 -7 -10 -15 -10 -8 0 -15 5 -15 10 0 6 7 10 15 10 8 0 15 -4 15 -10z m50 0 c0 -5 -9 -10 -20 -10 -11 0 -20 5 -20 10 0 6 9 10 20 10 11 0 20 -4 20 -10z m180 0 c0 -6 -33 -10 -80 -10 -47 0 -80 4 -80 10 0 6 33 10 80 10 47 0 80 -4 80 -10z m60 0 c0 -5 -9 -10 -20 -10 -11 0 -20 5 -20 10 0 6 9 10 20 10 11 0 20 -4 20 -10z m170 0 c0 -6 -33 -10 -80 -10 -47 0 -80 4 -80 10 0 6 33 10 80 10 47 0 80 -4 80 -10z m60 0 c0 -5 -9 -10 -20 -10 -11 0 -20 5 -20 10 0 6 9 10 20 10 11 0 20 -4 20 -10z m-520 -115 c0 -69 -3 -85 -15 -85 -12 0 -15 16 -15 85 0 69 3 85 15 85 12 0 15 -16 15 -85z m50 0 c0 -78 -2 -85 -20 -85 -18 0 -20 7 -20 85 0 78 2 85 20 85 18 0 20 -7 20 -85z m180 0 l0 -85 -80 0 -80 0 0 85 0 85 80 0 80 0 0 -85z m55 0 c0 -68 -3 -80 -17 -83 -16 -3 -18 6 -18 83 0 77 2 86 18 83 14 -3 17 -15 17 -83z m175 0 l0 -85 -80 0 -80 0 0 85 0 85 80 0 80 0 0 -85z m60 0 c0 -78 -2 -85 -20 -85 -18 0 -20 7 -20 85 0 78 2 85 20 85 18 0 20 -7 20 -85z m230 -25 l0 -110 -105 0 -105 0 0 110 0 110 105 0 105 0 0 -110z m228 3 l-3 -108 -102 -3 -103 -3 0 111 0 110 105 0 106 0 -3 -107z m232 -3 l0 -110 -105 0 -105 0 0 110 0 110 105 0 105 0 0 -110z m230 0 l0 -110 -105 0 -105 0 0 110 0 110 105 0 105 0 0 -110z m-1442 -91 c-2 -6 -8 -10 -13 -10 -5 0 -11 4 -13 10 -2 6 4 11 13 11 9 0 15 -5 13 -11z m52 -5 c0 -9 -7 -14 -17 -12 -25 5 -28 28 -4 28 12 0 21 -6 21 -16z m178 4 c-3 -9 -28 -13 -78 -13 -50 0 -75 4 -77 13 -4 9 16 12 77 12 61 0 81 -3 78 -12z m60 0 c-7 -19 -38 -22 -38 -4 0 10 9 16 21 16 12 0 19 -5 17 -12z m172 -3 c0 -13 -13 -15 -77 -13 -50 2 -78 7 -81 16 -3 9 17 12 77 12 66 0 81 -3 81 -15z m58 3 c-7 -19 -38 -22 -38 -4 0 10 9 16 21 16 12 0 19 -5 17 -12z m-518 -119 c0 -64 -3 -79 -15 -79 -12 0 -15 15 -15 78 0 43 3 82 6 85 17 16 24 -10 24 -84z m50 6 c0 -78 -2 -85 -20 -85 -18 0 -20 7 -20 78 0 80 3 92 27 92 10 0 13 -21 13 -85z m180 0 l0 -85 -80 0 -80 0 0 85 0 85 80 0 80 0 0 -85z m58 -3 c3 -77 2 -82 -18 -82 -19 0 -20 6 -20 86 0 76 2 85 18 82 14 -3 17 -16 20 -86z m172 3 l0 -85 -80 0 -80 0 0 78 c0 43 3 82 7 85 3 4 39 7 80 7 l73 0 0 -85z m60 0 c0 -78 -2 -85 -20 -85 -18 0 -20 7 -20 85 0 78 2 85 20 85 18 0 20 -7 20 -85z m230 -25 l0 -110 -105 0 -105 0 0 110 0 110 105 0 105 0 0 -110z m230 0 l0 -110 -105 0 -105 0 0 110 0 110 105 0 105 0 0 -110z m230 0 l0 -110 -105 0 -105 0 0 110 0 110 105 0 105 0 0 -110z m230 0 l0 -110 -105 0 -105 0 0 110 0 110 105 0 105 0 0 -110z m-1442 -92 c-6 -18 -28 -21 -28 -4 0 9 7 16 16 16 9 0 14 -5 12 -12z m52 -4 c0 -9 -7 -14 -17 -12 -25 5 -28 28 -4 28 12 0 21 -6 21 -16z m180 1 c0 -12 -16 -15 -80 -15 -64 0 -80 3 -80 15 0 12 16 15 80 15 64 0 80 -3 80 -15z m58 3 c-7 -19 -38 -22 -38 -4 0 10 9 16 21 16 12 0 19 -5 17 -12z m172 -3 c0 -12 -16 -15 -80 -15 -64 0 -80 3 -80 15 0 12 16 15 80 15 64 0 80 -3 80 -15z m60 0 c0 -8 -9 -15 -20 -15 -11 0 -20 7 -20 15 0 8 9 15 20 15 11 0 20 -7 20 -15z m-520 -80 c0 -33 -4 -45 -15 -45 -11 0 -15 12 -15 45 0 33 4 45 15 45 11 0 15 -12 15 -45z m50 0 c0 -38 -3 -45 -20 -45 -17 0 -20 7 -20 45 0 38 3 45 20 45 17 0 20 -7 20 -45z m180 0 l0 -45 -80 0 -80 0 0 45 0 45 80 0 80 0 0 -45z m60 -35 c0 -73 -2 -80 -20 -80 -18 0 -20 7 -20 80 0 73 2 80 20 80 18 0 20 -7 20 -80z m170 0 l0 -80 -80 0 -80 0 0 80 0 80 80 0 80 0 0 -80z m60 0 c0 -73 -2 -80 -20 -80 -18 0 -20 7 -20 80 0 73 2 80 20 80 18 0 20 -7 20 -80z m230 -25 l0 -105 -105 0 -105 0 0 105 0 105 105 0 105 0 0 -105z m230 0 l0 -105 -105 0 -105 0 0 105 0 105 105 0 105 0 0 -105z m230 0 l0 -105 -105 0 -105 0 0 105 0 105 105 0 105 0 0 -105z m230 0 l0 -105 -105 0 -105 0 0 105 0 105 105 0 105 0 0 -105z m-1157 -90 c1 -5 -6 -11 -15 -13 -11 -2 -18 3 -18 13 0 17 30 18 33 0z m177 0 c0 -13 -13 -15 -77 -13 -50 2 -78 7 -81 16 -3 9 17 12 77 12 66 0 81 -3 81 -15z m60 0 c0 -8 -9 -15 -20 -15 -11 0 -20 7 -20 15 0 8 9 15 20 15 11 0 20 -7 20 -15z m-232 -117 c-3 -70 -6 -83 -20 -86 -16 -3 -18 6 -18 82 0 80 1 86 20 86 20 0 21 -5 18 -82z m172 -3 l0 -86 -77 3 -78 3 -3 83 -3 82 81 0 80 0 0 -85z m58 3 c-3 -70 -6 -83 -20 -86 -16 -3 -18 6 -18 82 0 80 1 86 20 86 20 0 21 -5 18 -82z m232 -23 l0 -105 -105 0 -105 0 0 105 0 105 105 0 105 0 0 -105z m230 0 l0 -105 -105 0 -105 0 0 105 0 105 105 0 105 0 0 -105z m230 0 l0 -105 -105 0 -105 0 0 105 0 105 105 0 105 0 0 -105z m230 0 l0 -105 -105 0 -105 0 0 105 0 105 105 0 105 0 0 -105z m-3760 -40 c0 -21 -5 -25 -31 -25 -24 0 -30 3 -25 16 3 9 6 20 6 25 0 5 11 9 25 9 20 0 25 -5 25 -25z m58 3 c-5 -34 -38 -37 -38 -4 0 20 5 26 21 26 15 0 20 -5 17 -22z m172 -3 c0 -24 -2 -25 -75 -25 -73 0 -75 1 -75 25 0 24 2 25 75 25 73 0 75 -1 75 -25z m60 -1 c0 -33 -33 -30 -38 4 -3 17 2 22 17 22 16 0 21 -6 21 -26z m170 1 c0 -24 -2 -25 -75 -25 -73 0 -75 1 -75 25 0 24 2 25 75 25 73 0 75 -1 75 -25z m60 -1 c0 -33 -33 -30 -38 4 -3 17 2 22 17 22 16 0 21 -6 21 -26z m178 4 c-3 -21 -9 -23 -80 -26 -78 -3 -78 -3 -78 23 0 25 1 25 81 25 78 0 80 -1 77 -22z m52 -4 c0 -33 -33 -30 -38 4 -3 17 2 22 17 22 16 0 21 -6 21 -26z m178 4 c-3 -21 -9 -23 -80 -26 -78 -3 -78 -3 -78 23 0 25 1 25 81 25 78 0 80 -1 77 -22z m57 0 c-2 -34 -35 -37 -35 -4 0 19 5 26 18 26 13 0 18 -7 17 -22z m175 -3 c0 -26 0 -26 -77 -23 -72 3 -78 5 -81 26 -3 21 -1 22 77 22 80 0 81 0 81 -25z m58 3 c-5 -34 -38 -37 -38 -4 0 20 5 26 21 26 15 0 20 -5 17 -22z m172 -3 c0 -26 0 -26 -77 -23 -71 3 -77 5 -78 26 -2 21 2 22 77 22 77 0 78 0 78 -25z m58 3 c-5 -34 -38 -37 -38 -4 0 20 5 26 21 26 15 0 20 -5 17 -22z m172 -3 c0 -26 0 -26 -77 -23 -72 3 -78 5 -81 26 -3 21 -1 22 77 22 80 0 81 0 81 -25z m58 3 c-5 -34 -38 -37 -38 -4 0 20 5 26 21 26 15 0 20 -5 17 -22z m172 -3 c0 -24 -2 -25 -75 -25 -73 0 -75 1 -75 25 0 24 2 25 75 25 73 0 75 -1 75 -25z m60 -1 c0 -33 -33 -30 -38 4 -3 17 2 22 17 22 16 0 21 -6 21 -26z m178 4 c-3 -21 -9 -23 -80 -26 -78 -3 -78 -3 -78 23 0 25 1 25 81 25 78 0 80 -1 77 -22z m52 -4 c0 -33 -33 -30 -38 4 -3 17 2 22 17 22 16 0 21 -6 21 -26z m178 4 c-3 -22 -8 -23 -78 -23 -70 0 -75 1 -78 23 -3 21 -1 22 78 22 79 0 81 -1 78 -22z m52 -4 c0 -33 -33 -30 -38 4 -3 17 2 22 17 22 16 0 21 -6 21 -26z m178 4 c-3 -22 -8 -23 -78 -23 -70 0 -75 1 -78 23 -3 21 -1 22 78 22 79 0 81 -1 78 -22z m-2548 -53 c0 -12 -15 -15 -77 -14 -74 1 -77 1 -48 14 42 20 125 20 125 0z m60 0 c0 -8 -9 -15 -20 -15 -11 0 -20 7 -20 15 0 8 9 15 20 15 11 0 20 -7 20 -15z m170 0 c0 -12 -15 -15 -75 -15 -60 0 -75 3 -75 15 0 12 15 15 75 15 60 0 75 -3 75 -15z m60 0 c0 -8 -9 -15 -20 -15 -11 0 -20 7 -20 15 0 8 9 15 20 15 11 0 20 -7 20 -15z m170 0 c0 -12 -15 -15 -75 -15 -60 0 -75 3 -75 15 0 12 15 15 75 15 60 0 75 -3 75 -15z m60 0 c0 -8 -9 -15 -20 -15 -11 0 -20 7 -20 15 0 8 9 15 20 15 11 0 20 -7 20 -15z m178 -2 c3 -10 -17 -13 -77 -13 -66 0 -81 3 -81 15 0 13 13 15 77 13 50 -2 78 -7 81 -15z m52 2 c0 -8 -9 -15 -20 -15 -20 0 -26 11 -13 23 12 13 33 7 33 -8z m180 0 c0 -12 -16 -15 -80 -15 -64 0 -80 3 -80 15 0 12 16 15 80 15 64 0 80 -3 80 -15z m53 0 c1 -5 -6 -11 -15 -13 -11 -2 -18 3 -18 13 0 17 30 18 33 0z m177 0 c0 -12 -16 -15 -80 -15 -73 0 -91 6 -73 23 3 4 39 7 80 7 58 0 73 -3 73 -15z m58 -2 c2 -8 -5 -13 -17 -13 -12 0 -21 6 -21 16 0 18 31 15 38 -3z m172 2 c0 -12 -15 -15 -74 -15 -69 0 -95 8 -79 24 3 3 39 6 80 6 58 0 73 -3 73 -15z m58 -2 c2 -8 -5 -13 -17 -13 -12 0 -21 6 -21 16 0 18 31 15 38 -3z m172 2 c0 -12 -15 -15 -74 -15 -69 0 -95 8 -79 24 3 3 39 6 80 6 58 0 73 -3 73 -15z m60 0 c0 -8 -9 -15 -20 -15 -11 0 -20 7 -20 15 0 8 9 15 20 15 11 0 20 -7 20 -15z m170 0 c0 -12 -15 -15 -75 -15 -60 0 -75 3 -75 15 0 12 15 15 75 15 60 0 75 -3 75 -15z m60 0 c0 -8 -9 -15 -20 -15 -11 0 -20 7 -20 15 0 8 9 15 20 15 11 0 20 -7 20 -15z m178 -2 c3 -10 -17 -13 -77 -13 -66 0 -81 3 -81 15 0 13 13 15 77 13 50 -2 78 -7 81 -15z m52 2 c0 -8 -6 -15 -14 -15 -17 0 -28 14 -19 24 12 12 33 6 33 -9z m178 -2 c3 -10 -17 -13 -77 -13 -66 0 -81 3 -81 15 0 13 13 15 77 13 50 -2 78 -7 81 -15z m52 2 c0 -8 -9 -15 -20 -15 -20 0 -26 11 -13 23 12 13 33 7 33 -8z m180 0 c0 -12 -16 -15 -80 -15 -64 0 -80 3 -80 15 0 12 16 15 80 15 64 0 80 -3 80 -15z m53 0 c1 -5 -6 -11 -15 -13 -11 -2 -18 3 -18 13 0 17 30 18 33 0z m177 0 c0 -12 -16 -15 -80 -15 -73 0 -91 6 -73 23 3 4 39 7 80 7 58 0 73 -3 73 -15z m58 -2 c2 -8 -5 -13 -17 -13 -12 0 -21 6 -21 16 0 18 31 15 38 -3z m-3068 -119 c0 -54 -4 -83 -10 -79 -5 3 -10 42 -10 86 0 46 4 79 10 79 6 0 10 -35 10 -86z m58 4 c-3 -70 -6 -83 -20 -86 -16 -3 -18 6 -18 82 0 80 1 86 20 86 20 0 21 -5 18 -82z m172 -3 l0 -86 -77 3 -78 3 -3 83 -3 82 81 0 80 0 0 -85z m58 3 c-2 -66 -6 -83 -18 -83 -12 0 -16 17 -18 83 -3 77 -2 82 18 82 20 0 21 -5 18 -82z m172 -3 l0 -85 -75 0 -75 0 0 85 0 85 75 0 75 0 0 -85z m60 -1 c0 -76 -2 -85 -17 -82 -15 3 -18 16 -21 86 -3 77 -2 82 18 82 19 0 20 -6 20 -86z m170 1 l0 -85 -75 0 -75 0 0 85 0 85 75 0 75 0 0 -85z m60 -1 c0 -76 -2 -85 -17 -82 -15 3 -18 16 -21 86 -3 77 -2 82 18 82 19 0 20 -6 20 -86z m178 4 l-3 -83 -77 -3 -78 -3 0 86 0 85 80 0 81 0 -3 -82z m52 -4 c0 -76 -2 -85 -17 -82 -15 3 -18 16 -21 86 -3 77 -2 82 18 82 19 0 20 -6 20 -86z m178 4 l-3 -83 -75 0 -75 0 -3 83 -3 82 81 0 81 0 -3 -82z m55 0 c-1 -67 -4 -84 -17 -86 -14 -3 -16 9 -16 82 0 75 2 86 18 86 15 0 17 -10 15 -82z m177 -3 l0 -86 -77 3 -78 3 -3 83 -3 82 81 0 80 0 0 -85z m58 3 c-3 -70 -6 -83 -20 -86 -16 -3 -18 6 -18 82 0 80 1 86 20 86 20 0 21 -5 18 -82z m170 0 l-3 -83 -73 0 -74 0 -1 83 -2 82 78 0 78 0 -3 -82z m60 0 c-3 -70 -6 -83 -20 -86 -16 -3 -18 6 -18 82 0 80 1 86 20 86 20 0 21 -5 18 -82z m172 -3 l0 -86 -77 3 -78 3 -3 83 -3 82 81 0 80 0 0 -85z m58 3 c-2 -66 -6 -83 -18 -83 -12 0 -16 17 -18 83 -3 77 -2 82 18 82 20 0 21 -5 18 -82z m172 -3 l0 -85 -75 0 -75 0 0 85 0 85 75 0 75 0 0 -85z m60 -1 c0 -76 -2 -85 -17 -82 -15 3 -18 16 -21 86 -3 77 -2 82 18 82 19 0 20 -6 20 -86z m178 4 l-3 -83 -77 -3 -78 -3 0 86 0 85 80 0 81 0 -3 -82z m52 -4 c0 -76 -2 -85 -17 -82 -15 3 -18 16 -21 86 -3 77 -2 82 18 82 19 0 20 -6 20 -86z m178 4 l-3 -83 -75 0 -75 0 -3 83 -3 82 81 0 81 0 -3 -82z m52 -4 c0 -76 -2 -85 -17 -82 -15 3 -18 16 -21 86 -3 77 -2 82 18 82 19 0 20 -6 20 -86z m178 4 l-3 -83 -75 0 -75 0 -3 83 -3 82 81 0 81 0 -3 -82z m60 0 c-3 -70 -6 -83 -20 -86 -16 -3 -18 6 -18 82 0 80 1 86 20 86 20 0 21 -5 18 -82z m172 -3 l0 -86 -77 3 -78 3 -3 83 -3 82 81 0 80 0 0 -85z m58 3 c-3 -70 -6 -83 -20 -86 -16 -3 -18 6 -18 82 0 80 1 86 20 86 20 0 21 -5 18 -82z m232 -23 l0 -105 -105 0 -105 0 0 105 0 105 105 0 105 0 0 -105z m230 0 l0 -105 -105 0 -105 0 0 105 0 105 105 0 105 0 0 -105z m230 0 l0 -105 -105 0 -105 0 0 105 0 105 105 0 105 0 0 -105z m230 0 l0 -105 -105 0 -105 0 0 105 0 105 105 0 105 0 0 -105z m-3990 -90 c0 -8 -4 -15 -10 -15 -5 0 -10 7 -10 15 0 8 5 15 10 15 6 0 10 -7 10 -15z m58 -2 c2 -8 -5 -13 -17 -13 -12 0 -21 6 -21 16 0 18 31 15 38 -3z m172 2 c0 -12 -16 -15 -80 -15 -73 0 -91 6 -73 23 3 4 39 7 80 7 58 0 73 -3 73 -15z m60 0 c0 -8 -9 -15 -20 -15 -11 0 -20 7 -20 15 0 8 9 15 20 15 11 0 20 -7 20 -15z m170 0 c0 -12 -15 -15 -75 -15 -60 0 -75 3 -75 15 0 12 15 15 75 15 60 0 75 -3 75 -15z m60 0 c0 -8 -9 -15 -20 -15 -11 0 -20 7 -20 15 0 8 9 15 20 15 11 0 20 -7 20 -15z m170 0 c0 -12 -15 -15 -75 -15 -60 0 -75 3 -75 15 0 12 15 15 75 15 60 0 75 -3 75 -15z m60 0 c0 -8 -9 -15 -20 -15 -11 0 -20 7 -20 15 0 8 9 15 20 15 11 0 20 -7 20 -15z m178 -2 c3 -10 -17 -13 -77 -13 -66 0 -81 3 -81 15 0 13 13 15 77 13 50 -2 78 -7 81 -15z m52 2 c0 -8 -9 -15 -20 -15 -20 0 -26 11 -13 23 12 13 33 7 33 -8z m180 0 c0 -12 -16 -15 -80 -15 -64 0 -80 3 -80 15 0 12 16 15 80 15 64 0 80 -3 80 -15z m58 -2 c2 -8 -5 -13 -17 -13 -12 0 -21 6 -21 16 0 18 31 15 38 -3z m172 2 c0 -12 -16 -15 -80 -15 -64 0 -80 3 -80 15 0 12 16 15 80 15 64 0 80 -3 80 -15z m60 0 c0 -8 -9 -15 -20 -15 -11 0 -20 7 -20 15 0 8 9 15 20 15 11 0 20 -7 20 -15z m170 0 c0 -12 -16 -15 -80 -15 -73 0 -91 6 -73 23 3 4 39 7 80 7 58 0 73 -3 73 -15z m58 -2 c2 -8 -5 -13 -17 -13 -12 0 -21 6 -21 16 0 18 31 15 38 -3z m172 2 c0 -12 -16 -15 -80 -15 -73 0 -91 6 -73 23 3 4 39 7 80 7 58 0 73 -3 73 -15z m60 0 c0 -8 -9 -15 -20 -15 -11 0 -20 7 -20 15 0 8 9 15 20 15 11 0 20 -7 20 -15z m170 0 c0 -12 -15 -15 -75 -15 -60 0 -75 3 -75 15 0 12 15 15 75 15 60 0 75 -3 75 -15z m60 0 c0 -8 -9 -15 -20 -15 -11 0 -20 7 -20 15 0 8 9 15 20 15 11 0 20 -7 20 -15z m178 -2 c3 -10 -17 -13 -77 -13 -66 0 -81 3 -81 15 0 13 13 15 77 13 50 -2 78 -7 81 -15z m52 2 c0 -8 -9 -15 -20 -15 -20 0 -26 11 -13 23 12 13 33 7 33 -8z m178 -2 c3 -10 -17 -13 -77 -13 -66 0 -81 3 -81 15 0 13 13 15 77 13 50 -2 78 -7 81 -15z m52 2 c0 -8 -9 -15 -20 -15 -20 0 -26 11 -13 23 12 13 33 7 33 -8z m180 0 c0 -12 -16 -15 -80 -15 -64 0 -80 3 -80 15 0 12 16 15 80 15 64 0 80 -3 80 -15z m58 -2 c2 -8 -5 -13 -17 -13 -12 0 -21 6 -21 16 0 18 31 15 38 -3z m172 2 c0 -12 -16 -15 -80 -15 -73 0 -91 6 -73 23 3 4 39 7 80 7 58 0 73 -3 73 -15z m60 0 c0 -8 -9 -15 -20 -15 -11 0 -20 7 -20 15 0 8 9 15 20 15 11 0 20 -7 20 -15z m-3070 -121 c0 -47 -4 -83 -9 -80 -12 8 -14 166 -2 166 7 0 11 -32 11 -86z m58 4 c-3 -70 -6 -83 -20 -86 -16 -3 -18 6 -18 82 0 80 1 86 20 86 20 0 21 -5 18 -82z m172 -3 l0 -86 -77 3 -78 3 -3 83 -3 82 81 0 80 0 0 -85z m60 0 c0 -78 -2 -85 -20 -85 -18 0 -20 7 -20 85 0 78 2 85 20 85 18 0 20 -7 20 -85z m170 0 l0 -85 -75 0 -75 0 0 85 0 85 75 0 75 0 0 -85z m60 0 c0 -78 -2 -85 -20 -85 -18 0 -20 7 -20 85 0 78 2 85 20 85 18 0 20 -7 20 -85z m170 0 l0 -85 -75 0 -75 0 0 85 0 85 75 0 75 0 0 -85z m60 0 c0 -78 -2 -85 -20 -85 -18 0 -20 7 -20 85 0 78 2 85 20 85 18 0 20 -7 20 -85z m178 3 l-3 -83 -77 -3 -78 -3 0 86 0 85 80 0 81 0 -3 -82z m52 -4 c0 -76 -2 -85 -17 -82 -15 3 -18 16 -21 86 -3 77 -2 82 18 82 19 0 20 -6 20 -86z m180 1 l0 -85 -80 0 -80 0 0 85 0 85 80 0 80 0 0 -85z m52 0 c0 -65 -3 -81 -16 -83 -14 -3 -16 9 -16 83 0 74 2 86 16 83 13 -2 16 -18 16 -83z m178 0 l0 -85 -80 0 -80 0 0 85 0 85 80 0 80 0 0 -85z m60 0 c0 -78 -2 -85 -20 -85 -18 0 -20 7 -20 85 0 78 2 85 20 85 18 0 20 -7 20 -85z m170 0 l0 -86 -76 3 -76 3 0 78 c1 42 1 79 2 82 0 3 34 5 75 5 l75 0 0 -85z m60 0 c0 -78 -2 -85 -20 -85 -18 0 -20 7 -20 85 0 78 2 85 20 85 18 0 20 -7 20 -85z m170 0 l0 -86 -77 3 -78 3 -3 83 -3 82 81 0 80 0 0 -85z m60 0 c0 -78 -2 -85 -20 -85 -18 0 -20 7 -20 85 0 78 2 85 20 85 18 0 20 -7 20 -85z m170 0 l0 -85 -75 0 -75 0 0 85 0 85 75 0 75 0 0 -85z m60 0 c0 -78 -2 -85 -20 -85 -18 0 -20 7 -20 85 0 78 2 85 20 85 18 0 20 -7 20 -85z m178 3 l-3 -83 -77 -3 -78 -3 0 86 0 85 80 0 81 0 -3 -82z m52 -4 c0 -76 -2 -85 -17 -82 -15 3 -18 16 -21 86 -3 77 -2 82 18 82 19 0 20 -6 20 -86z m178 4 l-3 -83 -77 -3 -78 -3 0 86 0 85 80 0 81 0 -3 -82z m52 -4 c0 -76 -2 -85 -17 -82 -15 3 -18 16 -21 86 -3 77 -2 82 18 82 19 0 20 -6 20 -86z m180 1 l0 -85 -80 0 -80 0 0 85 0 85 80 0 80 0 0 -85z m58 3 c-3 -70 -6 -83 -20 -86 -16 -3 -18 6 -18 82 0 80 1 86 20 86 20 0 21 -5 18 -82z m172 -3 l0 -85 -80 0 -80 0 0 85 0 85 80 0 80 0 0 -85z m60 0 c0 -78 -2 -85 -20 -85 -18 0 -20 7 -20 85 0 78 2 85 20 85 18 0 20 -7 20 -85z m230 -20 l0 -105 -105 0 -105 0 0 105 0 105 105 0 105 0 0 -105z m230 0 l0 -105 -105 0 -105 0 0 105 0 105 105 0 105 0 0 -105z m230 0 l0 -105 -105 0 -105 0 0 105 0 105 105 0 105 0 0 -105z m230 0 l0 -105 -105 0 -105 0 0 105 0 105 105 0 105 0 0 -105z m-3930 -95 c0 -5 -9 -10 -20 -10 -11 0 -20 5 -20 10 0 6 9 10 20 10 11 0 20 -4 20 -10z m170 0 c0 -6 -33 -10 -80 -10 -47 0 -80 4 -80 10 0 6 33 10 80 10 47 0 80 -4 80 -10z m60 0 c0 -5 -9 -10 -20 -10 -11 0 -20 5 -20 10 0 6 9 10 20 10 11 0 20 -4 20 -10z m175 0 c4 -6 -23 -10 -74 -10 -47 0 -81 4 -81 10 0 6 31 10 74 10 41 0 78 -4 81 -10z m55 0 c0 -5 -9 -10 -20 -10 -11 0 -20 5 -20 10 0 6 9 10 20 10 11 0 20 -4 20 -10z m175 0 c4 -6 -23 -10 -74 -10 -47 0 -81 4 -81 10 0 6 31 10 74 10 41 0 78 -4 81 -10z m55 0 c0 -5 -9 -10 -20 -10 -11 0 -20 5 -20 10 0 6 9 10 20 10 11 0 20 -4 20 -10z m180 0 c0 -6 -33 -10 -80 -10 -47 0 -80 4 -80 10 0 6 33 10 80 10 47 0 80 -4 80 -10z m50 0 c0 -5 -9 -10 -20 -10 -11 0 -20 5 -20 10 0 6 9 10 20 10 11 0 20 -4 20 -10z m180 0 c0 -6 -33 -10 -80 -10 -47 0 -80 4 -80 10 0 6 33 10 80 10 47 0 80 -4 80 -10z m55 0 c-3 -5 -15 -10 -26 -10 -11 0 -17 5 -14 10 3 6 15 10 26 10 11 0 17 -4 14 -10z m175 0 c0 -6 -33 -10 -80 -10 -47 0 -80 4 -80 10 0 6 33 10 80 10 47 0 80 -4 80 -10z m60 0 c0 -5 -9 -10 -20 -10 -11 0 -20 5 -20 10 0 6 9 10 20 10 11 0 20 -4 20 -10z m170 0 c0 -6 -31 -10 -74 -10 -41 0 -78 5 -81 10 -4 6 23 10 74 10 47 0 81 -4 81 -10z m60 0 c0 -5 -9 -10 -20 -10 -11 0 -20 5 -20 10 0 6 9 10 20 10 11 0 20 -4 20 -10z m170 0 c0 -6 -33 -10 -80 -10 -47 0 -80 4 -80 10 0 6 33 10 80 10 47 0 80 -4 80 -10z m60 0 c0 -5 -9 -10 -20 -10 -11 0 -20 5 -20 10 0 6 9 10 20 10 11 0 20 -4 20 -10z m175 0 c4 -6 -23 -10 -74 -10 -47 0 -81 4 -81 10 0 6 31 10 74 10 41 0 78 -4 81 -10z m55 0 c0 -5 -9 -10 -20 -10 -11 0 -20 5 -20 10 0 6 9 10 20 10 11 0 20 -4 20 -10z m180 0 c0 -6 -33 -10 -80 -10 -47 0 -80 4 -80 10 0 6 33 10 80 10 47 0 80 -4 80 -10z m50 0 c0 -5 -9 -10 -20 -10 -11 0 -20 5 -20 10 0 6 9 10 20 10 11 0 20 -4 20 -10z m180 0 c0 -6 -33 -10 -80 -10 -47 0 -80 4 -80 10 0 6 33 10 80 10 47 0 80 -4 80 -10z m50 0 c0 -5 -9 -10 -20 -10 -11 0 -20 5 -20 10 0 6 9 10 20 10 11 0 20 -4 20 -10z m180 0 c0 -6 -33 -10 -80 -10 -47 0 -80 4 -80 10 0 6 33 10 80 10 47 0 80 -4 80 -10z m60 0 c0 -5 -12 -10 -26 -10 -14 0 -23 4 -19 10 3 6 15 10 26 10 10 0 19 -4 19 -10z m170 0 c0 -6 -33 -10 -80 -10 -47 0 -80 4 -80 10 0 6 33 10 80 10 47 0 80 -4 80 -10z m60 0 c0 -5 -9 -10 -20 -10 -11 0 -20 5 -20 10 0 6 9 10 20 10 11 0 20 -4 20 -10z m-3010 -135 l0 -105 -35 0 -35 0 0 105 0 105 35 0 35 0 0 -105z m230 0 l0 -105 -110 0 -110 0 0 105 0 105 110 0 110 0 0 -105z m230 0 l0 -105 -105 0 -105 0 0 105 0 105 105 0 105 0 0 -105z m230 0 l0 -105 -105 0 -105 0 0 105 0 105 105 0 105 0 0 -105z m230 0 l0 -105 -105 0 -105 0 0 105 0 105 105 0 105 0 0 -105z m233 -3 l2 -102 -107 0 -108 0 0 105 0 106 106 -3 106 -3 1 -103z m237 3 l0 -105 -110 0 -110 0 0 105 0 105 110 0 110 0 0 -105z m230 0 l0 -105 -107 0 -108 0 2 102 c1 57 2 104 3 106 0 1 47 2 105 2 l105 0 0 -105z m230 0 l0 -105 -110 0 -110 0 0 105 0 105 110 0 110 0 0 -105z m230 0 l0 -105 -105 0 -105 0 0 105 0 105 105 0 105 0 0 -105z m230 0 l0 -105 -105 0 -105 0 0 105 0 105 105 0 105 0 0 -105z m230 0 l0 -105 -105 0 -105 0 0 105 0 105 105 0 105 0 0 -105z m240 0 l0 -105 -110 0 -110 0 0 105 0 105 110 0 110 0 0 -105z m230 0 l0 -105 -110 0 -110 0 0 105 0 105 110 0 110 0 0 -105z m230 0 l0 -105 -105 0 -105 0 0 105 0 105 105 0 105 0 0 -105z m230 0 l0 -105 -105 0 -105 0 0 105 0 105 105 0 105 0 0 -105z m230 0 l0 -105 -105 0 -105 0 0 105 0 105 105 0 105 0 0 -105z m230 0 l0 -105 -105 0 -105 0 0 105 0 105 105 0 105 0 0 -105z m-3932 -232 l-3 -108 -30 0 -30 0 -3 108 -3 107 36 0 36 0 -3 -107z m230 0 l-3 -108 -105 0 -105 0 -3 94 c-1 52 -1 100 2 108 4 10 33 13 111 13 l106 0 -3 -107z m232 -3 l0 -110 -105 0 -105 0 0 110 0 110 105 0 105 0 0 -110z m230 0 l0 -110 -105 0 -105 0 0 110 0 110 105 0 105 0 0 -110z m230 0 l0 -110 -105 0 -105 0 0 110 0 110 105 0 105 0 0 -110z m232 0 l0 -105 -106 -3 -106 -3 0 111 0 111 106 -3 106 -3 0 -105z m236 3 l-3 -108 -105 0 -105 0 -3 108 -3 107 111 0 111 0 -3 -107z m230 0 l-3 -108 -103 0 -104 0 1 103 c0 56 0 104 1 107 0 3 47 5 105 5 l106 0 -3 -107z m230 0 l-3 -108 -105 0 -105 0 -3 94 c-1 52 -1 100 2 108 4 10 33 13 111 13 l106 0 -3 -107z m232 -3 l0 -110 -105 0 -105 0 0 110 0 110 105 0 105 0 0 -110z m230 0 l0 -110 -105 0 -105 0 0 110 0 110 105 0 105 0 0 -110z m230 0 l0 -111 -102 3 -103 3 -3 108 -3 107 106 0 105 0 0 -110z m235 0 l0 -105 -105 0 -105 0 -3 108 -3 108 108 -3 108 -3 0 -105z m233 3 l-3 -108 -105 0 -105 0 -3 108 -3 107 111 0 111 0 -3 -107z m232 -3 l0 -110 -105 0 -105 0 0 110 0 110 105 0 105 0 0 -110z m230 0 l0 -110 -105 0 -105 0 0 110 0 110 105 0 105 0 0 -110z m230 0 l0 -110 -105 0 -105 0 0 110 0 110 105 0 105 0 0 -110z m230 0 l0 -110 -105 0 -105 0 0 110 0 110 105 0 105 0 0 -110z m-3932 -232 l3 -108 -30 0 -29 0 -7 99 c-4 55 -4 105 0 111 4 6 19 10 33 8 l27 -3 3 -107z m232 2 l0 -111 -107 3 -108 3 -3 94 c-1 52 -1 100 2 108 4 10 32 13 111 13 l105 0 0 -110z m230 0 l0 -110 -105 0 -105 0 0 110 0 110 105 0 105 0 0 -110z m230 0 l0 -110 -105 0 -105 0 0 110 0 110 105 0 105 0 0 -110z m230 0 l0 -110 -105 0 -105 0 0 110 0 110 105 0 105 0 0 -110z m232 0 l0 -105 -106 -3 -106 -3 0 111 0 111 106 -3 106 -3 0 -105z m236 -2 l3 -108 -111 0 -110 0 0 103 c0 57 3 107 7 111 4 4 52 5 107 4 l101 -3 3 -107z m230 -1 l3 -108 -106 3 -107 3 1 103 c0 56 0 104 1 107 0 3 46 4 103 3 l102 -3 3 -108z m232 3 l0 -111 -107 3 -108 3 -3 94 c-1 52 -1 100 2 108 4 10 32 13 111 13 l105 0 0 -110z m230 0 l0 -110 -105 0 -105 0 0 110 0 110 105 0 105 0 0 -110z m230 0 l0 -110 -105 0 -105 0 0 110 0 110 105 0 105 0 0 -110z m230 0 l0 -110 -105 0 -105 0 0 110 0 110 105 0 105 0 0 -110z m235 0 l0 -105 -107 -3 -108 -3 0 111 0 111 108 -3 107 -3 0 -105z m233 -2 l3 -108 -111 0 -110 0 0 103 c0 57 3 107 7 111 4 4 52 5 107 4 l101 -3 3 -107z m232 2 l0 -110 -105 0 -105 0 0 110 0 110 105 0 105 0 0 -110z m230 0 l0 -110 -105 0 -105 0 0 110 0 110 105 0 105 0 0 -110z m230 0 l0 -110 -105 0 -105 0 0 110 0 110 105 0 105 0 0 -110z m230 0 l0 -110 -105 0 -105 0 0 110 0 110 105 0 105 0 0 -110z m-3932 -232 l-3 -103 -105 0 -105 0 -3 46 -3 47 63 7 c74 8 98 26 98 72 0 30 3 33 30 33 l31 0 -3 -102z m232 -3 l0 -106 -107 3 -108 3 -3 103 -3 102 111 0 110 0 0 -105z m230 0 l0 -105 -105 0 -105 0 0 105 0 105 105 0 105 0 0 -105z m230 0 l0 -105 -105 0 -105 0 0 105 0 105 105 0 105 0 0 -105z m230 0 l0 -105 -105 0 -105 0 0 105 0 105 105 0 105 0 0 -105z m233 3 l-1 -103 -106 -3 -106 -3 0 106 0 105 108 0 107 0 -2 -102z m237 -3 l0 -105 -110 0 -110 0 0 105 0 105 110 0 110 0 0 -105z m230 0 l0 -106 -106 3 -106 3 -1 103 -2 102 108 0 107 0 0 -105z m230 0 l0 -106 -107 3 -108 3 -3 103 -3 102 111 0 110 0 0 -105z m230 0 l0 -105 -105 0 -105 0 0 105 0 105 105 0 105 0 0 -105z m230 0 l0 -105 -105 0 -105 0 0 105 0 105 105 0 105 0 0 -105z m230 0 l0 -105 -105 0 -105 0 0 105 0 105 105 0 105 0 0 -105z m238 3 l-3 -103 -107 -3 -108 -3 0 106 0 105 110 0 111 0 -3 -102z m232 -3 l0 -105 -110 0 -110 0 0 105 0 105 110 0 110 0 0 -105z m230 0 l0 -105 -105 0 -105 0 0 105 0 105 105 0 105 0 0 -105z m230 0 l0 -105 -105 0 -105 0 0 105 0 105 105 0 105 0 0 -105z m230 0 l0 -105 -105 0 -105 0 0 105 0 105 105 0 105 0 0 -105z m230 0 l0 -105 -105 0 -105 0 0 105 0 105 105 0 105 0 0 -105z m-4160 -55 l0 -50 -91 0 c-99 0 -98 -2 -45 62 29 35 35 38 84 38 l52 0 0 -50z m-1167 -199 c4 -53 3 -81 -3 -75 -5 5 -12 54 -15 109 -6 119 9 91 18 -34z m1167 24 l0 -105 -110 0 -110 0 0 98 c0 54 3 102 7 105 3 4 53 7 110 7 l103 0 0 -105z m230 0 l0 -106 -107 3 -108 3 -3 103 -3 102 111 0 110 0 0 -105z m230 0 l0 -105 -110 0 -110 0 0 105 0 105 110 0 110 0 0 -105z m230 0 l0 -105 -105 0 -105 0 0 105 0 105 105 0 105 0 0 -105z m230 0 l0 -105 -105 0 -105 0 0 105 0 105 105 0 105 0 0 -105z m230 0 l0 -105 -105 0 -105 0 0 105 0 105 105 0 105 0 0 -105z m233 3 l-1 -103 -106 -3 -106 -3 0 106 0 105 108 0 107 0 -2 -102z m237 -3 l0 -105 -110 0 -110 0 0 105 0 105 110 0 110 0 0 -105z m230 0 l0 -106 -106 3 -106 3 -1 103 -2 102 108 0 107 0 0 -105z m230 0 l0 -106 -107 3 -108 3 -3 103 -3 102 111 0 110 0 0 -105z m230 0 l0 -105 -105 0 -105 0 0 105 0 105 105 0 105 0 0 -105z m230 0 l0 -105 -105 0 -105 0 0 105 0 105 105 0 105 0 0 -105z m230 0 l0 -105 -105 0 -105 0 0 105 0 105 105 0 105 0 0 -105z m238 3 l-3 -103 -107 -3 -108 -3 0 106 0 105 110 0 111 0 -3 -102z m232 -3 l0 -105 -110 0 -110 0 0 105 0 105 110 0 110 0 0 -105z m230 0 l0 -105 -105 0 -105 0 0 105 0 105 105 0 105 0 0 -105z m230 0 l0 -105 -105 0 -105 0 0 105 0 105 105 0 105 0 0 -105z m230 0 l0 -105 -105 0 -105 0 0 105 0 105 105 0 105 0 0 -105z m230 0 l0 -105 -105 0 -105 0 0 105 0 105 105 0 105 0 0 -105z m-4400 -25 l0 -80 -76 0 -76 0 73 80 c39 44 73 80 75 80 2 0 4 -36 4 -80z m-911 -179 c1 -51 -5 -34 -12 29 -4 36 -3 46 3 30 4 -14 8 -40 9 -59z"/>
</g>
</svg>