<?xml version="1.0" encoding="utf-8"?>
<!DOCTYPE svg PUBLIC "-//W3C//DTD SVG 20010904//EN" "http://www.w3.org/TR/2001/REC-SVG-20010904/DTD/svg10.dtd">
<svg height="853.000000pt" preserveAspectRatio="xMidYMid meet" version="1.0" viewBox="0 0 1280.000000 853.000000" width="1280.000000pt" xmlns="http://www.w3.org/2000/svg">
<metadata>
Created by potrace 1.15, written by Peter Selinger 2001-2017
</metadata>
<g fill="#FFFFFF" stroke="#FFFFFF" transform="translate(0.000000,853.000000) scale(0.100000,-0.100000)">
<path d="M3730 7137 c-136 -69 -174 -132 -195 -320 -6 -54 -9 -59 -43 -76 -74 -38 -142 -132 -163 -226 -10 -44 -8 -60 11 -125 31 -101 31 -162 1 -194 -25 -27 -94 -46 -164 -46 -31 0 -38 -3 -27 -10 8 -5 33 -10 54 -10 85 0 -16 -35 -144 -50 -105 -12 -115 -19 -131 -82 -6 -29 -21 -65 -32 -80 -11 -14 -16 -31 -12 -37 7 -12 -62 -105 -95 -128 -10 -7 -24 -30 -31 -51 -7 -20 -36 -65 -66 -100 -29 -35 -53 -69 -53 -76 0 -6 -16 -27 -35 -46 -19 -18 -44 -54 -56 -79 -12 -25 -30 -57 -40 -70 -11 -13 -19 -32 -19 -41 0 -10 -7 -23 -15 -30 -35 -29 0 -166 90 -355 98 -203 282 -416 414 -479 55 -26 78 -33 92 -26 25 14 29 13 29 -10 0 -13 7 -20 20 -20 32 0 35 -27 10 -109 -20 -67 -23 -104 -27 -321 -7 -314 1 -358 148 -822 43 -135 74 -255 80 -303 19 -158 22 -170 40 -194 18 -22 18 -25 2 -52 -14 -23 -15 -32 -5 -55 11 -22 10 -31 -8 -61 -11 -20 -20 -52 -20 -76 l0 -42 -942 -527 c-518 -289 -944 -530 -945 -535 -2 -5 3 -17 10 -27 14 -19 -27 -42 1506 816 195 109 355 197 357 195 1 -1 4 -46 5 -101 l3 -98 -455 -254 c-249 -140 -455 -258 -457 -262 -1 -4 4 -16 12 -27 13 -18 38 -5 456 229 243 136 445 245 448 242 3 -3 7 -30 9 -59 l4 -52 -195 -108 c-108 -60 -196 -114 -196 -120 1 -43 19 -38 206 67 104 58 192 106 195 106 4 0 25 -96 49 -214 39 -201 41 -222 37 -343 -5 -137 -26 -218 -88 -349 -46 -97 -46 -112 -5 -177 20 -31 46 -62 58 -68 29 -15 132 -5 164 16 32 20 61 84 79 172 8 36 17 69 22 73 4 4 50 3 101 -3 114 -12 135 -5 163 59 19 42 19 47 4 64 -9 10 -30 21 -47 24 -43 8 -120 89 -136 142 -18 62 -15 140 13 281 24 127 24 129 7 198 -12 48 -16 84 -11 115 4 25 8 91 8 146 l1 102 541 302 541 302 84 -10 85 -10 482 270 c265 148 723 404 1018 569 l537 299 111 -13 c61 -8 113 -16 115 -18 3 -2 -91 -58 -207 -123 -117 -65 -519 -289 -893 -498 l-682 -381 -127 -273 c-71 -151 -133 -278 -139 -283 -6 -5 -198 -114 -426 -241 -228 -128 -417 -234 -419 -235 -1 -2 3 -13 11 -24 14 -19 29 -11 444 220 236 132 433 244 437 249 5 4 66 131 136 280 l127 273 670 374 c368 206 783 437 921 515 l253 140 132 -15 132 -16 519 290 c286 159 521 288 522 287 7 -8 15 -124 15 -218 l0 -105 43 45 c89 95 568 642 565 645 -2 1 -129 -19 -283 -46 -154 -27 -347 -61 -430 -75 -82 -14 -158 -28 -169 -31 -14 -4 12 -25 103 -86 67 -44 118 -84 114 -88 -4 -4 -231 -131 -503 -283 l-495 -277 -70 6 c-111 10 -114 12 -53 48 l52 32 127 270 126 270 504 282 c277 155 505 280 508 278 2 -3 7 -69 10 -147 l6 -143 303 342 c166 188 302 344 302 346 0 3 -33 -2 -72 -9 -40 -8 -82 -14 -93 -14 -17 0 843 488 870 493 5 1 14 -72 21 -171 7 -95 14 -178 16 -184 3 -9 618 718 626 740 1 4 -210 -23 -470 -60 -260 -37 -479 -68 -486 -68 -23 0 -4 -17 128 -111 72 -51 128 -94 126 -96 -2 -2 -236 -134 -520 -293 l-515 -288 -243 -42 c-134 -23 -253 -45 -266 -48 -20 -6 -13 -13 58 -61 l80 -54 -28 -17 c-15 -9 -179 -101 -365 -205 l-339 -188 -99 13 c-55 7 -102 16 -104 19 -2 4 81 53 185 111 l187 105 129 273 129 274 165 92 c91 51 537 300 993 554 455 255 834 465 842 468 12 5 15 -8 16 -77 1 -46 4 -112 8 -145 l6 -62 301 342 c166 187 301 342 300 343 -1 1 -51 -6 -111 -17 -554 -97 -749 -130 -765 -130 -11 0 -20 -4 -20 -8 0 -5 59 -48 132 -97 l131 -87 -69 -40 c-38 -21 -498 -278 -1022 -571 l-954 -533 -127 -272 -128 -273 -213 -119 -213 -119 -180 29 -180 30 -446 -249 c-245 -136 -831 -463 -1301 -726 -470 -263 -926 -517 -1012 -566 -87 -48 -158 -85 -158 -82 0 15 85 239 94 250 6 6 126 75 266 153 140 79 581 325 980 548 399 222 727 408 730 412 3 5 52 139 110 298 l105 290 45 25 c25 13 465 259 979 546 513 287 935 521 936 519 1 -2 10 -75 19 -163 9 -87 18 -160 20 -162 1 -2 127 157 280 353 152 196 276 358 273 360 -4 5 -887 -93 -893 -99 -2 -2 59 -52 136 -112 77 -59 140 -111 140 -115 0 -3 -278 -161 -617 -351 -339 -189 -786 -438 -992 -554 l-376 -210 -106 -295 c-71 -195 -113 -298 -125 -306 -11 -6 -453 -253 -984 -549 -531 -296 -970 -544 -976 -552 -7 -8 -31 -69 -55 -136 -73 -210 -67 -199 -161 -252 l-83 -46 -54 -135 -55 -134 -74 -41 c-40 -22 -76 -39 -78 -36 -2 2 2 20 10 39 8 19 22 64 30 101 9 38 45 123 84 199 163 320 256 739 232 1049 -5 68 -10 154 -10 190 0 64 1 67 26 73 21 6 25 11 19 29 -3 12 -13 47 -22 77 -8 30 -21 67 -29 82 -8 15 -14 50 -14 78 0 32 -15 96 -40 174 -22 67 -40 136 -40 152 0 69 54 190 71 162 5 -7 20 -48 35 -91 44 -132 146 -237 216 -222 41 9 118 47 178 89 66 45 299 255 343 309 21 26 51 54 67 62 32 17 95 124 106 180 5 28 1 49 -17 86 l-23 50 42 38 c46 42 47 44 32 71 -8 15 -2 26 30 58 54 53 53 72 -3 72 -50 0 -91 -26 -172 -109 -41 -43 -55 -51 -85 -51 -20 0 -43 -6 -52 -12 -28 -24 -76 -103 -83 -138 -4 -19 -22 -51 -39 -70 -18 -19 -42 -51 -54 -70 -30 -52 -65 -80 -103 -86 -32 -5 -36 -2 -61 39 -16 25 -28 59 -28 78 0 19 -9 61 -19 94 -15 47 -18 79 -14 150 5 96 -11 190 -46 271 -25 55 -68 83 -233 151 -159 64 -192 85 -218 137 -21 44 -18 60 12 53 38 -10 66 9 74 50 4 21 23 67 44 103 50 86 62 128 59 197 -2 43 2 65 15 85 27 41 34 89 24 154 -30 196 -201 343 -417 359 -56 4 -73 2 -111 -18z m-647 -1767 c10 -34 39 -121 67 -194 53 -144 85 -297 75 -361 -7 -52 -39 -105 -62 -105 -10 0 -36 12 -58 25 -22 14 -48 25 -57 25 -22 0 -36 26 -48 92 -12 60 -31 86 -68 90 -23 3 -30 13 -54 77 -14 40 -36 83 -47 95 -24 25 -13 46 25 46 28 0 36 11 63 88 17 47 37 78 79 121 31 32 60 58 63 59 3 1 13 -25 22 -58z m5739 -370 c-15 -9 -250 -141 -523 -293 l-496 -277 -127 -273 -127 -272 -77 -43 -77 -43 -167 18 -166 19 -1016 -568 c-983 -549 -1061 -590 -1080 -559 -3 5 198 122 447 261 248 138 457 257 464 263 6 7 68 134 138 283 98 211 132 274 153 286 15 9 366 205 781 437 l754 421 153 -25 152 -25 393 220 393 219 27 -16 28 -17 -27 -16z m-1324 -307 c61 -10 112 -20 112 -23 0 -3 -341 -195 -758 -428 l-757 -422 -129 -278 -129 -277 -490 -273 -489 -274 -222 25 -221 25 -169 -95 c-92 -52 -170 -92 -172 -90 -3 2 5 29 17 60 21 55 24 58 115 109 l94 53 46 127 c26 70 52 132 58 137 13 10 2217 1242 2286 1277 25 13 180 100 345 193 165 93 311 170 325 170 14 1 76 -7 138 -16z m-3719 -1198 c7 -132 19 -325 27 -430 16 -185 13 -326 -6 -435 -6 -30 -8 12 -7 125 2 145 -8 375 -39 895 -4 70 -3 102 4 95 6 -5 15 -118 21 -250z m502 -570 c-26 -71 -34 -83 -72 -107 -24 -14 -47 -27 -50 -27 -4 -1 10 40 31 90 32 79 43 94 76 113 22 12 40 20 42 16 1 -3 -11 -41 -27 -85z m307 -231 c81 -9 153 -20 160 -23 8 -5 -180 -114 -470 -276 -266 -148 -486 -270 -490 -272 -5 -2 -7 24 -6 59 1 46 2 52 5 23 6 -59 20 -63 28 -8 10 67 15 74 88 113 63 33 66 36 96 110 l31 75 192 107 c106 59 199 108 206 108 8 0 80 -7 160 -16z m-586 -109 c-25 -60 -32 -67 -85 -96 -32 -17 -61 -28 -64 -25 -4 3 3 24 15 45 12 21 22 45 22 53 0 12 109 84 132 87 4 1 -5 -28 -20 -64z m-202 -115 c0 -27 -4 -50 -10 -50 -11 0 -14 59 -4 84 10 27 14 18 14 -34z m129 -57 c-5 -16 -26 -38 -49 -51 -39 -22 -40 -22 -40 -3 0 22 10 33 55 61 41 25 45 24 34 -7z m-142 -90 c-3 -10 -5 -4 -5 12 0 17 2 24 5 18 2 -7 2 -21 0 -30z"/>
<path d="M3337 1694 c-4 -87 -11 -127 -36 -199 l-32 -90 35 -75 c42 -88 56 -155 56 -256 0 -56 3 -74 14 -74 9 0 15 19 20 63 4 34 16 100 27 146 25 102 22 165 -21 351 -15 69 -31 145 -35 170 -14 84 -22 73 -28 -36z"/>
</g>
</svg>