<?xml version="1.0" encoding="UTF-8" standalone="no"?>
<!-- Created with Inkscape (http://www.inkscape.org/) -->

<svg
   width="200"
   height="100"
   viewBox="0 0 52.916665 26.458333"
   version="1.1"
   id="svg1"
   xml:space="preserve"
   xmlns="http://www.w3.org/2000/svg"
   xmlns:svg="http://www.w3.org/2000/svg"><defs
     id="defs1"><filter
       style="color-interpolation-filters:sRGB"
       id="filter2"
       x="-0.00063528674"
       y="-0.011943897"
       width="1.0021038"
       height="1.0131973"><feColorMatrix
         type="hueRotate"
         values="180"
         result="color1"
         id="feColorMatrix1" /><feColorMatrix
         values="-1 0 0 0 1 0 -1 0 0 1 0 0 -1 0 1 -0.21 -0.72 -0.07 2 0 "
         result="color2"
         id="feColorMatrix2" /></filter></defs><g
     id="layer3"><g
       id="g2"><g
         id="g1"
         transform="translate(-0.09255414,-0.96659771)"
         style="filter:url(#filter2)"><g
           id="g72"
           transform="matrix(0.54140555,0,0,0.5399904,69.558727,-60.531489)"
           style="fill:#000000;stroke:#000000;stroke-width:0.924731;stroke-dasharray:none"><path
             id="path71"
             style="font-style:normal;font-variant:normal;font-weight:100;font-stretch:normal;font-size:30.1578px;line-height:1;font-family:Raleway;-inkscape-font-specification:'Raleway Thin';text-decoration-color:#000000;letter-spacing:0px;word-spacing:0px;fill:#000000;stroke:#000000;stroke-width:0.924731;stroke-linecap:square;stroke-dasharray:none"
             d="m -107.87723,117.93477 -3.60063,8.3299 0.34656,0.58157 3.63099,-8.02942 5.30748,12.27386 -6.33062,-0.008 0.28602,0.52578 6.31609,0.0855 3.347599,7.66021 h 0.66337 l -9.318969,-21.41201 z"
             transform="scale(0.99166545,1.0084046)" /><path
             d="m -90.020031,138.94106 q 0,0 -0.362857,0.22329 -0.334945,0.19539 -0.9211,0.39077 -0.586154,0.19539 -1.367692,0.19539 -0.669891,0 -1.256045,-0.27912 -0.558242,-0.27912 -0.921099,-0.78154 -0.334945,-0.50242 -0.334945,-1.17231 v -11.83473 h -2.093408 v -0.55824 h 2.093408 v -5.05209 h 0.558242 v 5.05209 h 3.489012 v 0.55824 h -3.489012 v 11.83473 q 0.05582,0.80945 0.641978,1.25604 0.586154,0.41869 1.311869,0.41869 0.976923,0 1.646813,-0.33495 0.669891,-0.33495 0.697803,-0.36286 z m 2.595828,0.66989 v -14.48638 h 0.558242 v 14.48638 z m 0,-18.2266 v -2.14924 h 0.558242 v 2.14924 z m 10.885711,17.55671 q 0,0 -0.362858,0.22329 -0.334945,0.19539 -0.921099,0.39077 -0.586154,0.19539 -1.367693,0.19539 -0.66989,0 -1.256044,-0.27912 -0.558242,-0.27912 -0.921099,-0.78154 -0.334946,-0.50242 -0.334946,-1.17231 v -11.83473 h -2.093407 v -0.55824 h 2.093407 v -5.05209 h 0.558242 v 5.05209 h 3.489013 v 0.55824 h -3.489013 v 11.83473 q 0.05582,0.80945 0.641979,1.25604 0.586154,0.41869 1.311868,0.41869 0.976924,0 1.646814,-0.33495 0.669891,-0.33495 0.697803,-0.36286 z m 2.7633,-19.70595 h 0.558242 v 18.2266 q 0,0.80946 0.502418,1.28396 0.502418,0.47451 1.339781,0.47451 0.307033,0 0.725714,-0.0558 0.446594,-0.0837 0.809451,-0.19538 l 0.195385,0.44659 q -0.362858,0.11165 -0.949012,0.2233 -0.586154,0.11165 -0.976923,0.11165 -0.976924,0 -1.59099,-0.61407 -0.614066,-0.64198 -0.614066,-1.67473 z m 5.219587,16.21693 q 0,-1.22813 0.753627,-2.14923 0.781539,-0.9211 2.12132,-1.45143 1.33978,-0.53033 3.098243,-0.53033 1.228132,0 2.512089,0.2233 1.311868,0.19538 2.344616,0.58615 v -1.64681 q 0,-2.26088 -1.311869,-3.62857 -1.283956,-1.39561 -3.433188,-1.39561 -1.032748,0 -2.26088,0.47451 -1.20022,0.44659 -2.428353,1.31187 l -0.334945,-0.4466 q 1.395605,-0.94901 2.65165,-1.42351 1.256044,-0.47451 2.372528,-0.47451 2.428353,0 3.85187,1.50725 1.451429,1.50726 1.451429,4.07517 v 8.01077 q 0,0.27912 0.111649,0.41868 0.13956,0.13956 0.334945,0.13956 v 0.55825 q -0.167473,0 -0.251209,0 -0.08374,-0.0279 -0.139561,-0.0558 -0.279121,-0.11165 -0.446593,-0.39077 -0.167473,-0.30703 -0.167473,-0.66989 v -1.33978 q -1.004835,1.28396 -2.623737,2.00967 -1.618902,0.72572 -3.516925,0.72572 -1.311869,0 -2.372528,-0.58616 -1.06066,-0.58615 -1.702638,-1.59099 -0.614067,-1.03274 -0.614067,-2.26088 z m 10.411214,1.31187 q 0.223296,-0.30703 0.307033,-0.58615 0.111648,-0.30703 0.111648,-0.55824 v -2.87495 q -1.116484,-0.44659 -2.344616,-0.64198 -1.200221,-0.22329 -2.512089,-0.22329 -2.428353,0 -3.935606,0.97692 -1.479342,0.97692 -1.479342,2.59582 0,1.08858 0.53033,1.98176 0.558242,0.86528 1.507254,1.39561 0.949011,0.50242 2.093407,0.50242 1.870111,0 3.405276,-0.69781 1.563078,-0.6978 2.316705,-1.87011 z m 16.719353,2.84704 h -0.558242 v -8.0666 q 0,-3.15407 -0.893187,-4.6055 -0.865275,-1.47934 -2.819122,-1.47934 -1.395605,0 -2.735386,0.66989 -1.311869,0.64198 -2.288792,1.78638 -0.976924,1.11648 -1.395605,2.54 v 9.15517 h -0.558242 v -14.48638 h 0.558242 v 3.74022 q 0.614066,-1.17231 1.618902,-2.0655 1.004835,-0.89318 2.232968,-1.3956 1.256044,-0.50242 2.540001,-0.50242 1.116484,0 1.925935,0.41868 0.809451,0.39077 1.33978,1.20022 0.53033,0.80945 0.781539,2.0655 0.251209,1.25604 0.251209,2.95868 z"
             id="text72"
             style="font-weight:100;font-size:27.9121px;line-height:1;font-family:Raleway;-inkscape-font-specification:'Raleway Thin';letter-spacing:0px;word-spacing:0px;stroke-linecap:square"
             transform="scale(0.99266345,1.0073908)"
             aria-label="titlan" /><path
             d="m -117.52189,139.1077 4.37396,-8.99092 h 0.39763 l 4.35187,8.99092 h -0.50809 l -4.0426,-8.35029 -4.10887,8.35029 z"
             id="text71"
             style="font-weight:100;font-size:22.0907px;line-height:1;font-family:Raleway;-inkscape-font-specification:'Raleway Thin';letter-spacing:0px;word-spacing:0px;stroke-linecap:square"
             transform="scale(0.99166241,1.0084077)"
             aria-label="^" /></g><path
           style="font-size:8.8953px;line-height:1;font-family:'Raleway Dots';-inkscape-font-specification:'Raleway Dots';letter-spacing:0px;word-spacing:0px;stroke:#000000;stroke-width:0.0529166;stroke-linecap:square"
           d="m 11.419047,21.553603 q -0.08895,0 -0.08895,-0.08895 0,-0.08895 0.08895,-0.08895 0.08895,0 0.08895,0.08895 0,0.08895 -0.08895,0.08895 z m -0.204592,0.311335 q -0.08895,0 -0.08895,-0.08895 0,-0.08895 0.08895,-0.08895 0.08895,0 0.08895,0.08895 0,0.08895 -0.08895,0.08895 z m -0.240173,0.257964 q -0.08895,0 -0.08895,-0.08895 0,-0.08895 0.08895,-0.08895 0.08895,0 0.08895,0.08895 0,0.08895 -0.08895,0.08895 z m -0.275754,0.249068 q -0.08895,0 -0.08895,-0.08895 0,-0.08895 0.08895,-0.08895 0.08895,0 0.08895,0.08895 0,0.08895 -0.08895,0.08895 z m -0.311336,0.195697 q -0.08895,0 -0.08895,-0.08895 0,-0.08895 0.08895,-0.08895 0.08895,0 0.08895,0.08895 0,0.08895 -0.08895,0.08895 z m -0.346917,0.15122 q -0.088952,0 -0.088952,-0.08895 0,-0.08895 0.088952,-0.08895 0.08895,0 0.08895,0.08895 0,0.08895 -0.08895,0.08895 z m -0.3647068,0.106744 q -0.088953,0 -0.088953,-0.08895 0,-0.08895 0.088953,-0.08895 0.088953,0 0.088953,0.08895 0,0.08895 -0.088953,0.08895 z m -0.3736026,0.05337 q -0.088953,0 -0.088953,-0.08895 0,-0.08895 0.088953,-0.08895 0.088953,0 0.088953,0.08895 0,0.08895 -0.088953,0.08895 z m -0.3736026,0.0089 q -0.088953,0 -0.088953,-0.08895 0,-0.08895 0.088953,-0.08895 0.088953,0 0.088953,0.08895 0,0.08895 -0.088953,0.08895 z m -0.3736026,-0.05337 q -0.088953,0 -0.088953,-0.08895 0,-0.08895 0.088953,-0.08895 0.088953,0 0.088953,0.08895 0,0.08895 -0.088953,0.08895 z m -0.355812,-0.115639 q -0.088953,0 -0.088953,-0.08895 0,-0.08895 0.088953,-0.08895 0.088953,0 0.088953,0.08895 0,0.08895 -0.088953,0.08895 z M 7.8520317,22.549876 q -0.088953,0 -0.088953,-0.08895 0,-0.08895 0.088953,-0.08895 0.088953,0 0.088953,0.08895 0,0.08895 -0.088953,0.08895 z M 6.2152965,19.819019 q -0.088953,0 -0.088953,-0.08895 0,-0.08895 0.088953,-0.08895 0.088953,0 0.088953,0.08895 0,0.08895 -0.088953,0.08895 z m 0.026686,0.373603 q -0.088953,0 -0.088953,-0.08895 0,-0.08895 0.088953,-0.08895 0.088953,0 0.088953,0.08895 0,0.08895 -0.088953,0.08895 z m 0.080058,0.364707 q -0.088953,0 -0.088953,-0.08895 0,-0.08895 0.088953,-0.08895 0.088953,0 0.088953,0.08895 0,0.08895 -0.088953,0.08895 z m 0.1156389,0.373603 q -0.088953,0 -0.088953,-0.08895 0,-0.08895 0.088953,-0.08895 0.088953,0 0.088953,0.08895 0,0.08895 -0.088953,0.08895 z m 0.1601154,0.329126 q -0.088953,0 -0.088953,-0.08895 0,-0.08895 0.088953,-0.08895 0.088953,0 0.088953,0.08895 0,0.08895 -0.088953,0.08895 z m 0.1601154,0.30244 q -0.088953,0 -0.088953,-0.08895 0,-0.08895 0.088953,-0.08895 0.088953,0 0.088953,0.08895 0,0.08895 -0.088953,0.08895 z m 0.2401731,0.293545 q -0.088953,0 -0.088953,-0.08895 0,-0.08895 0.088953,-0.08895 0.088953,0 0.088953,0.08895 0,0.08895 -0.088953,0.08895 z m 0.2579637,0.257964 q -0.088953,0 -0.088953,-0.08895 0,-0.08895 0.088953,-0.08895 0.088953,0 0.088953,0.08895 0,0.08895 -0.088953,0.08895 z m 0.2935449,0.231278 q -0.088953,0 -0.088953,-0.08895 0,-0.08895 0.088953,-0.08895 0.088953,0 0.088953,0.08895 0,0.08895 -0.088953,0.08895 z m 3.7449211,-4.527708 q 0.08895,0 0.08895,0.08895 0,0.08895 -0.08895,0.08895 -0.08895,0 -0.08895,-0.08895 0,-0.08895 0.08895,-0.08895 z m -0.195697,-0.30244 q 0.08895,0 0.08895,0.08895 0,0.08895 -0.08895,0.08895 -0.08895,0 -0.08895,-0.08895 0,-0.08895 0.08895,-0.08895 z m -0.240173,-0.28465 q 0.08895,0 0.08895,0.08895 0,0.08895 -0.08895,0.08895 -0.08895,0 -0.08895,-0.08895 0,-0.08895 0.08895,-0.08895 z m -0.275754,-0.249068 q 0.08895,0 0.08895,0.08895 0,0.08895 -0.08895,0.08895 -0.08895,0 -0.08895,-0.08895 0,-0.08895 0.08895,-0.08895 z m -0.329126,-0.186802 q 0.08895,0 0.08895,0.08895 0,0.08895 -0.08895,0.08895 -0.08895,0 -0.08895,-0.08895 0,-0.08895 0.08895,-0.08895 z M 9.9157413,16.652293 q 0.088953,0 0.088953,0.08895 0,0.08895 -0.088953,0.08895 -0.088953,0 -0.088953,-0.08895 0,-0.08895 0.088953,-0.08895 z M 9.5688246,16.545549 q 0.088953,0 0.088953,0.08895 0,0.08895 -0.088953,0.08895 -0.088953,0 -0.088953,-0.08895 0,-0.08895 0.088953,-0.08895 z m -0.355812,-0.04448 q 0.088953,0 0.088953,0.08895 0,0.08895 -0.088953,0.08895 -0.088953,0 -0.088953,-0.08895 0,-0.08895 0.088953,-0.08895 z m -0.3647073,0 q 0.088953,0 0.088953,0.08895 0,0.08895 -0.088953,0.08895 -0.088953,0 -0.088953,-0.08895 0,-0.08895 0.088953,-0.08895 z m -0.355812,0.05337 q 0.088953,0 0.088953,0.08895 0,0.08895 -0.088953,0.08895 -0.088953,0 -0.088953,-0.08895 0,-0.08895 0.088953,-0.08895 z M 8.127786,16.661188 q 0.088953,0 0.088953,0.08895 0,0.08895 -0.088953,0.08895 -0.088953,0 -0.088953,-0.08895 0,-0.08895 0.088953,-0.08895 z m -0.3380214,0.142325 q 0.088953,0 0.088953,0.08895 0,0.08895 -0.088953,0.08895 -0.088953,0 -0.088953,-0.08895 0,-0.08895 0.088953,-0.08895 z m -1.5655728,2.455102 q 0.088953,0 0.088953,0.08895 0,0.08895 -0.088953,0.08895 -0.088953,0 -0.088953,-0.08895 0,-0.08895 0.088953,-0.08895 z m 0.053372,-0.364707 q 0.088953,0 0.088953,0.08895 0,0.08895 -0.088953,0.08895 -0.088953,0 -0.088953,-0.08895 0,-0.08895 0.088953,-0.08895 z m 0.097848,-0.355812 q 0.088953,0 0.088953,0.08895 0,0.08895 -0.088953,0.08895 -0.088953,0 -0.088953,-0.08895 0,-0.08895 0.088953,-0.08895 z m 0.1334295,-0.355812 q 0.088953,0 0.088953,0.08895 0,0.08895 -0.088953,0.08895 -0.088953,0 -0.088953,-0.08895 0,-0.08895 0.088953,-0.08895 z m 0.177906,-0.320231 q 0.088953,0 0.088953,0.08895 0,0.08895 -0.088953,0.08895 -0.088953,0 -0.088953,-0.08895 0,-0.08895 0.088953,-0.08895 z m 0.2134872,-0.30244 q 0.088953,0 0.088953,0.08895 0,0.08895 -0.088953,0.08895 -0.088953,0 -0.088953,-0.08895 0,-0.08895 0.088953,-0.08895 z m 0.266859,-0.30244 q 0.088953,0 0.088953,0.08895 0,0.08895 -0.088953,0.08895 -0.088953,0 -0.088953,-0.08895 0,-0.08895 0.088953,-0.08895 z m 0.2935449,-0.249068 q 0.088953,0 0.088953,0.08895 0,0.08895 -0.088953,0.08895 -0.088953,0 -0.088953,-0.08895 0,-0.08895 0.088953,-0.08895 z m 7.0450816,1.34319 q -0.08895,0 -0.08895,-0.08895 0,-0.08895 0.08895,-0.08895 0.08895,0 0.08895,0.08895 0,0.08895 -0.08895,0.08895 z m 0.409184,0.06227 q -0.08895,0 -0.08895,-0.08895 0,-0.08895 0.08895,-0.08895 0.08895,0 0.08895,0.08895 0,0.08895 -0.08895,0.08895 z m 0.355812,0.115639 q -0.08895,0 -0.08895,-0.08895 0,-0.08895 0.08895,-0.08895 0.08895,0 0.08895,0.08895 0,0.08895 -0.08895,0.08895 z m 0.346917,0.204592 q -0.08895,0 -0.08895,-0.08895 0,-0.08895 0.08895,-0.08895 0.08895,0 0.08895,0.08895 0,0.08895 -0.08895,0.08895 z m 0.28465,0.249068 q -0.08895,0 -0.08895,-0.08895 0,-0.08895 0.08895,-0.08895 0.08895,0 0.08895,0.08895 0,0.08895 -0.08895,0.08895 z m 0.435869,0.613776 q -0.08895,0 -0.08895,-0.08895 0,-0.08895 0.08895,-0.08895 0.08895,0 0.08895,0.08895 0,0.08895 -0.08895,0.08895 z m 0.13343,0.329126 q -0.08895,0 -0.08895,-0.08895 0,-0.08895 0.08895,-0.08895 0.08895,0 0.08895,0.08895 0,0.08895 -0.08895,0.08895 z m 0.106743,0.684938 q -0.08895,0 -0.08895,-0.08895 0,-0.08895 0.08895,-0.08895 0.08895,0 0.08895,0.08895 0,0.08895 -0.08895,0.08895 z m -0.426974,-1.3254 q -0.08895,0 -0.08895,-0.08895 0,-0.08895 0.08895,-0.08895 0.08895,0 0.08895,0.08895 0,0.08895 -0.08895,0.08895 z m 0.382498,0.978483 q -0.08895,0 -0.08895,-0.08895 0,-0.08895 0.08895,-0.08895 0.08895,0 0.08895,0.08895 0,0.08895 -0.08895,0.08895 z m -2.446208,-1.850222 q -0.08895,0 -0.08895,-0.08895 0,-0.08895 0.08895,-0.08895 0.08895,0 0.08895,0.08895 0,0.08895 -0.08895,0.08895 z m -0.355812,0.115639 q -0.08895,0 -0.08895,-0.08895 0,-0.08895 0.08895,-0.08895 0.08895,0 0.08895,0.08895 0,0.08895 -0.08895,0.08895 z m -0.346916,0.204592 q -0.08895,0 -0.08895,-0.08895 0,-0.08895 0.08895,-0.08895 0.08895,0 0.08895,0.08895 0,0.08895 -0.08895,0.08895 z m -0.28465,0.249068 q -0.08895,0 -0.08895,-0.08895 0,-0.08895 0.08895,-0.08895 0.08895,0 0.08895,0.08895 0,0.08895 -0.08895,0.08895 z m -0.43587,0.613776 q -0.08895,0 -0.08895,-0.08895 0,-0.08895 0.08895,-0.08895 0.08895,0 0.08895,0.08895 0,0.08895 -0.08895,0.08895 z m -0.133429,0.329126 q -0.08895,0 -0.08895,-0.08895 0,-0.08895 0.08895,-0.08895 0.08895,0 0.08895,0.08895 0,0.08895 -0.08895,0.08895 z m -0.106744,0.684938 q -0.08895,0 -0.08895,-0.08895 0,-0.08895 0.08895,-0.08895 0.08895,0 0.08895,0.08895 0,0.08895 -0.08895,0.08895 z m 0.426975,-1.3254 q -0.08895,0 -0.08895,-0.08895 0,-0.08895 0.08895,-0.08895 0.08895,0 0.08895,0.08895 0,0.08895 -0.08895,0.08895 z m -0.391394,0.969588 q -0.08895,0 -0.08895,-0.08895 0,-0.08895 0.08895,-0.08895 0.08895,0 0.08895,0.08895 0,0.08895 -0.08895,0.08895 z m 2.045919,2.428417 q 0.08895,0 0.08895,0.08895 0,0.08895 -0.08895,0.08895 -0.08895,0 -0.08895,-0.08895 0,-0.08895 0.08895,-0.08895 z m 0.409184,-0.06227 q 0.08895,0 0.08895,0.08895 0,0.08895 -0.08895,0.08895 -0.08895,0 -0.08895,-0.08895 0,-0.08895 0.08895,-0.08895 z M 15.270716,22.5054 q 0.08895,0 0.08895,0.08895 0,0.08895 -0.08895,0.08895 -0.08895,0 -0.08895,-0.08895 0,-0.08895 0.08895,-0.08895 z m 0.346917,-0.204592 q 0.08895,0 0.08895,0.08895 0,0.08895 -0.08895,0.08895 -0.08895,0 -0.08895,-0.08895 0,-0.08895 0.08895,-0.08895 z m 0.28465,-0.249068 q 0.08895,0 0.08895,0.08895 0,0.08895 -0.08895,0.08895 -0.08895,0 -0.08895,-0.08895 0,-0.08895 0.08895,-0.08895 z m 0.435869,-0.613776 q 0.08895,0 0.08895,0.08895 0,0.08895 -0.08895,0.08895 -0.08895,0 -0.08895,-0.08895 0,-0.08895 0.08895,-0.08895 z m 0.13343,-0.329126 q 0.08895,0 0.08895,0.08895 0,0.08895 -0.08895,0.08895 -0.08895,0 -0.08895,-0.08895 0,-0.08895 0.08895,-0.08895 z m -0.320231,0.640461 q 0.08895,0 0.08895,0.08895 0,0.08895 -0.08895,0.08895 -0.08895,0 -0.08895,-0.08895 0,-0.08895 0.08895,-0.08895 z m 0.391393,-0.969587 q 0.08895,0 0.08895,0.08895 0,0.08895 -0.08895,0.08895 -0.08895,0 -0.08895,-0.08895 0,-0.08895 0.08895,-0.08895 z m -2.455103,1.841327 q 0.08895,0 0.08895,0.08895 0,0.08895 -0.08895,0.08895 -0.08895,0 -0.08895,-0.08895 0,-0.08895 0.08895,-0.08895 z M 13.731829,22.5054 q 0.08895,0 0.08895,0.08895 0,0.08895 -0.08895,0.08895 -0.08895,0 -0.08895,-0.08895 0,-0.08895 0.08895,-0.08895 z m -0.346916,-0.204592 q 0.08895,0 0.08895,0.08895 0,0.08895 -0.08895,0.08895 -0.08895,0 -0.08895,-0.08895 0,-0.08895 0.08895,-0.08895 z m -0.28465,-0.249068 q 0.08895,0 0.08895,0.08895 0,0.08895 -0.08895,0.08895 -0.08895,0 -0.08895,-0.08895 0,-0.08895 0.08895,-0.08895 z m -0.43587,-0.613776 q 0.08895,0 0.08895,0.08895 0,0.08895 -0.08895,0.08895 -0.08895,0 -0.08895,-0.08895 0,-0.08895 0.08895,-0.08895 z m -0.133429,-0.329126 q 0.08895,0 0.08895,0.08895 0,0.08895 -0.08895,0.08895 -0.08895,0 -0.08895,-0.08895 0,-0.08895 0.08895,-0.08895 z m 0.320231,0.640461 q 0.08895,0 0.08895,0.08895 0,0.08895 -0.08895,0.08895 -0.08895,0 -0.08895,-0.08895 0,-0.08895 0.08895,-0.08895 z m -0.391394,-0.969587 q 0.08895,0 0.08895,0.08895 0,0.08895 -0.08895,0.08895 -0.08895,0 -0.08895,-0.08895 0,-0.08895 0.08895,-0.08895 z m 5.515088,0 q -0.08895,0 -0.08895,-0.08895 0,-0.08895 0.08895,-0.08895 0.08895,0 0.08895,0.08895 0,0.08895 -0.08895,0.08895 z m 0,0.355812 q -0.08895,0 -0.08895,-0.08895 0,-0.08895 0.08895,-0.08895 0.08895,0 0.08895,0.08895 0,0.08895 -0.08895,0.08895 z m 0,0.355812 q -0.08895,0 -0.08895,-0.08895 0,-0.08895 0.08895,-0.08895 0.08895,0 0.08895,0.08895 0,0.08895 -0.08895,0.08895 z m 0,0.338021 q -0.08895,0 -0.08895,-0.08895 0,-0.08895 0.08895,-0.08895 0.08895,0 0.08895,0.08895 0,0.08895 -0.08895,0.08895 z m 0,0.373603 q -0.08895,0 -0.08895,-0.08895 0,-0.08895 0.08895,-0.08895 0.08895,0 0.08895,0.08895 0,0.08895 -0.08895,0.08895 z m 0,0.320231 q -0.08895,0 -0.08895,-0.08895 0,-0.08895 0.08895,-0.08895 0.08895,0 0.08895,0.08895 0,0.08895 -0.08895,0.08895 z m 0,0.311335 q -0.08895,0 -0.08895,-0.08895 0,-0.08895 0.08895,-0.08895 0.08895,0 0.08895,0.08895 0,0.08895 -0.08895,0.08895 z m 0,-4.44765 q -0.08895,0 -0.08895,-0.08895 0,-0.08895 0.08895,-0.08895 0.08895,0 0.08895,0.08895 0,0.08895 -0.08895,0.08895 z m 0,1.005169 q -0.08895,0 -0.08895,-0.08895 0,-0.08895 0.08895,-0.08895 0.08895,0 0.08895,0.08895 0,0.08895 -0.08895,0.08895 z m 0,0.329126 q -0.08895,0 -0.08895,-0.08895 0,-0.08895 0.08895,-0.08895 0.08895,0 0.08895,0.08895 0,0.08895 -0.08895,0.08895 z m 0,0.338021 q -0.08895,0 -0.08895,-0.08895 0,-0.08895 0.08895,-0.08895 0.08895,0 0.08895,0.08895 0,0.08895 -0.08895,0.08895 z m 0,0.355812 q -0.08895,0 -0.08895,-0.08895 0,-0.08895 0.08895,-0.08895 0.08895,0 0.08895,0.08895 0,0.08895 -0.08895,0.08895 z m 0,-1.34319 q -0.08895,0 -0.08895,-0.08895 0,-0.08895 0.08895,-0.08895 0.08895,0 0.08895,0.08895 0,0.08895 -0.08895,0.08895 z m 0,-0.355812 q -0.08895,0 -0.08895,-0.08895 0,-0.08895 0.08895,-0.08895 0.08895,0 0.08895,0.08895 0,0.08895 -0.08895,0.08895 z m 3.389109,2.06371 q -0.08895,0 -0.08895,-0.08895 0,-0.08895 0.08895,-0.08895 0.08895,0 0.08895,0.08895 0,0.08895 -0.08895,0.08895 z m 0,0.355812 q -0.08895,0 -0.08895,-0.08895 0,-0.08895 0.08895,-0.08895 0.08895,0 0.08895,0.08895 0,0.08895 -0.08895,0.08895 z m 0,0.355812 q -0.08895,0 -0.08895,-0.08895 0,-0.08895 0.08895,-0.08895 0.08895,0 0.08895,0.08895 0,0.08895 -0.08895,0.08895 z m 0,0.338021 q -0.08895,0 -0.08895,-0.08895 0,-0.08895 0.08895,-0.08895 0.08895,0 0.08895,0.08895 0,0.08895 -0.08895,0.08895 z m 0,0.373603 q -0.08895,0 -0.08895,-0.08895 0,-0.08895 0.08895,-0.08895 0.08895,0 0.08895,0.08895 0,0.08895 -0.08895,0.08895 z m 0,0.320231 q -0.08895,0 -0.08895,-0.08895 0,-0.08895 0.08895,-0.08895 0.08895,0 0.08895,0.08895 0,0.08895 -0.08895,0.08895 z m 0,0.311335 q -0.08895,0 -0.08895,-0.08895 0,-0.08895 0.08895,-0.08895 0.08895,0 0.08895,0.08895 0,0.08895 -0.08895,0.08895 z m -1.610049,-4.438755 q -0.08895,0 -0.08895,-0.08895 0,-0.08895 0.08895,-0.08895 0.08895,0 0.08895,0.08895 0,0.08895 -0.08895,0.08895 z m 0.400288,-0.03558 q -0.08895,0 -0.08895,-0.08895 0,-0.08895 0.08895,-0.08895 0.08895,0 0.08895,0.08895 0,0.08895 -0.08895,0.08895 z m 0.382498,0.08006 q -0.08895,0 -0.08895,-0.08895 0,-0.08895 0.08895,-0.08895 0.08895,0 0.08895,0.08895 0,0.08895 -0.08895,0.08895 z m 0.346917,0.204592 q -0.08895,0 -0.08895,-0.08895 0,-0.08895 0.08895,-0.08895 0.08895,0 0.08895,0.08895 0,0.08895 -0.08895,0.08895 z m 0.195696,0.249068 q -0.08895,0 -0.08895,-0.08895 0,-0.08895 0.08895,-0.08895 0.08895,0 0.08895,0.08895 0,0.08895 -0.08895,0.08895 z m 0.195697,0.613776 q -0.08895,0 -0.08895,-0.08895 0,-0.08895 0.08895,-0.08895 0.08895,0 0.08895,0.08895 0,0.08895 -0.08895,0.08895 z m 0.04448,0.329126 q -0.08895,0 -0.08895,-0.08895 0,-0.08895 0.08895,-0.08895 0.08895,0 0.08895,0.08895 0,0.08895 -0.08895,0.08895 z m -0.115639,-0.640462 q -0.08895,0 -0.08895,-0.08895 0,-0.08895 0.08895,-0.08895 0.08895,0 0.08895,0.08895 0,0.08895 -0.08895,0.08895 z m 0.160116,0.978483 q -0.08895,0 -0.08895,-0.08895 0,-0.08895 0.08895,-0.08895 0.08895,0 0.08895,0.08895 0,0.08895 -0.08895,0.08895 z m -1.992547,-1.64563 q -0.08895,0 -0.08895,-0.08895 0,-0.08895 0.08895,-0.08895 0.08895,0 0.08895,0.08895 0,0.08895 -0.08895,0.08895 z m 1.992547,1.921385 q -0.08895,0 -0.08895,-0.08895 0,-0.08895 0.08895,-0.08895 0.08895,0 0.08895,0.08895 0,0.08895 -0.08895,0.08895 z m -2.339464,-1.76127 q -0.08895,0 -0.08895,-0.08895 0,-0.08895 0.08895,-0.08895 0.08895,0 0.08895,0.08895 0,0.08895 -0.08895,0.08895 z m -0.30244,0.231278 q -0.08895,0 -0.08895,-0.08895 0,-0.08895 0.08895,-0.08895 0.08895,0 0.08895,0.08895 0,0.08895 -0.08895,0.08895 z m -0.249069,0.28465 q -0.08895,0 -0.08895,-0.08895 0,-0.08895 0.08895,-0.08895 0.08895,0 0.08895,0.08895 0,0.08895 -0.08895,0.08895 z m -0.222382,0.311335 q -0.08895,0 -0.08895,-0.08895 0,-0.08895 0.08895,-0.08895 0.08895,0 0.08895,0.08895 0,0.08895 -0.08895,0.08895 z M 24.219396,18.3424 q -0.08895,0 -0.08895,-0.08895 0,-0.08895 0.08895,-0.08895 0.08895,0 0.08895,0.08895 0,0.08895 -0.08895,0.08895 z m 0.373602,0.0089 q -0.08895,0 -0.08895,-0.08895 0,-0.08895 0.08895,-0.08895 0.08895,0 0.08895,0.08895 0,0.08895 -0.08895,0.08895 z m 0.338022,0.06227 q -0.08895,0 -0.08895,-0.08895 0,-0.08895 0.08895,-0.08895 0.08895,0 0.08895,0.08895 0,0.08895 -0.08895,0.08895 z m 0.30244,0.115639 q -0.08895,0 -0.08895,-0.08895 0,-0.08895 0.08895,-0.08895 0.08895,0 0.08895,0.08895 0,0.08895 -0.08895,0.08895 z m 0.524823,0.355812 q -0.08895,0 -0.08895,-0.08895 0,-0.08895 0.08895,-0.08895 0.08895,0 0.08895,0.08895 0,0.08895 -0.08895,0.08895 z m -1.91249,-0.480346 q -0.08895,0 -0.08895,-0.08895 0,-0.08895 0.08895,-0.08895 0.08895,0 0.08895,0.08895 0,0.08895 -0.08895,0.08895 z m -0.355812,0.124534 q -0.08895,0 -0.08895,-0.08895 0,-0.08895 0.08895,-0.08895 0.08895,0 0.08895,0.08895 0,0.08895 -0.08895,0.08895 z m -0.293545,0.186801 q -0.08895,0 -0.08895,-0.08895 0,-0.08895 0.08895,-0.08895 0.08895,0 0.08895,0.08895 0,0.08895 -0.08895,0.08895 z m -0.213487,0.28465 q -0.08895,0 -0.08895,-0.08895 0,-0.08895 0.08895,-0.08895 0.08895,0 0.08895,0.08895 0,0.08895 -0.08895,0.08895 z m -0.124534,0.338021 q -0.08895,0 -0.08895,-0.08895 0,-0.08895 0.08895,-0.08895 0.08895,0 0.08895,0.08895 0,0.08895 -0.08895,0.08895 z M 24.299453,22.71 q 0.08895,0 0.08895,0.08895 0,0.08895 -0.08895,0.08895 -0.08895,0 -0.08895,-0.08895 0,-0.08895 0.08895,-0.08895 z m 0.382498,-0.02669 q 0.08895,0 0.08895,0.08895 0,0.08895 -0.08895,0.08895 -0.08895,0 -0.08895,-0.08895 0,-0.08895 0.08895,-0.08895 z m 0.346917,-0.09785 q 0.08895,0 0.08895,0.08895 0,0.08895 -0.08895,0.08895 -0.08895,0 -0.08895,-0.08895 0,-0.08895 0.08895,-0.08895 z m 0.30244,-0.13343 q 0.08895,0 0.08895,0.08895 0,0.08895 -0.08895,0.08895 -0.08895,0 -0.08895,-0.08895 0,-0.08895 0.08895,-0.08895 z m 0.275754,-0.231278 q 0.08895,0 0.08895,0.08895 0,0.08895 -0.08895,0.08895 -0.08895,0 -0.08895,-0.08895 0,-0.08895 0.08895,-0.08895 z m 0.275755,-0.649357 q 0.08895,0 0.08895,0.08895 0,0.08895 -0.08895,0.08895 -0.08895,0 -0.08895,-0.08895 0,-0.08895 0.08895,-0.08895 z m -0.04448,-0.373602 q 0.08895,0 0.08895,0.08895 0,0.08895 -0.08895,0.08895 -0.08895,0 -0.08895,-0.08895 0,-0.08895 0.08895,-0.08895 z m -0.02669,0.729414 q 0.08895,0 0.08895,0.08895 0,0.08895 -0.08895,0.08895 -0.08895,0 -0.08895,-0.08895 0,-0.08895 0.08895,-0.08895 z m -0.16901,-1.022959 q 0.08895,0 0.08895,0.08895 0,0.08895 -0.08895,0.08895 -0.08895,0 -0.08895,-0.08895 0,-0.08895 0.08895,-0.08895 z m -1.743479,1.77906 q 0.08895,0 0.08895,0.08895 0,0.08895 -0.08895,0.08895 -0.08895,0 -0.08895,-0.08895 0,-0.08895 0.08895,-0.08895 z m -0.373603,-0.08895 q 0.08895,0 0.08895,0.08895 0,0.08895 -0.08895,0.08895 -0.08895,0 -0.08895,-0.08895 0,-0.08895 0.08895,-0.08895 z m -0.329126,-0.13343 q 0.08895,0 0.08895,0.08895 0,0.08895 -0.08895,0.08895 -0.08895,0 -0.08895,-0.08895 0,-0.08895 0.08895,-0.08895 z m -0.30244,-0.186801 q 0.08895,0 0.08895,0.08895 0,0.08895 -0.08895,0.08895 -0.08895,0 -0.08895,-0.08895 0,-0.08895 0.08895,-0.08895 z M 22.636032,22.05174 q 0.08895,0 0.08895,0.08895 0,0.08895 -0.08895,0.08895 -0.08895,0 -0.08895,-0.08895 0,-0.08895 0.08895,-0.08895 z m 2.713067,-1.343191 q 0.08895,0 0.08895,0.08895 0,0.08895 -0.08895,0.08895 -0.08895,0 -0.08895,-0.08895 0,-0.08895 0.08895,-0.08895 z m -0.311336,-0.124534 q 0.08895,0 0.08895,0.08895 0,0.08895 -0.08895,0.08895 -0.08895,0 -0.08895,-0.08895 0,-0.08895 0.08895,-0.08895 z m -0.320231,-0.09785 q 0.08895,0 0.08895,0.08895 0,0.08895 -0.08895,0.08895 -0.08895,0 -0.08895,-0.08895 0,-0.08895 0.08895,-0.08895 z m -0.329126,-0.08006 q 0.08895,0 0.08895,0.08895 0,0.08895 -0.08895,0.08895 -0.08895,0 -0.08895,-0.08895 0,-0.08895 0.08895,-0.08895 z m -0.329126,-0.08006 q 0.08895,0 0.08895,0.08895 0,0.08895 -0.08895,0.08895 -0.08895,0 -0.08895,-0.08895 0,-0.08895 0.08895,-0.08895 z m -0.320231,-0.08006 q 0.08895,0 0.08895,0.08895 0,0.08895 -0.08895,0.08895 -0.08895,0 -0.08895,-0.08895 0,-0.08895 0.08895,-0.08895 z m -0.30244,-0.09785 q 0.08895,0 0.08895,0.08895 0,0.08895 -0.08895,0.08895 -0.08895,0 -0.08895,-0.08895 0,-0.08895 0.08895,-0.08895 z M 23.15196,20.014716 q 0.08895,0 0.08895,0.08895 0,0.08895 -0.08895,0.08895 -0.08895,0 -0.08895,-0.08895 0,-0.08895 0.08895,-0.08895 z m -0.302441,-0.515927 q 0.08895,0 0.08895,0.08895 0,0.08895 -0.08895,0.08895 -0.08895,0 -0.08895,-0.08895 0,-0.08895 0.08895,-0.08895 z m 0.08895,0.293544 q 0.08895,0 0.08895,0.08895 0,0.08895 -0.08895,0.08895 -0.08895,0 -0.08895,-0.08895 0,-0.08895 0.08895,-0.08895 z m 2.588533,-1.120807 q -0.08895,0 -0.08895,-0.08895 0,-0.08895 0.08895,-0.08895 0.08895,0 0.08895,0.08895 0,0.08895 -0.08895,0.08895 z m 5.141482,1.592258 q 0.08895,0 0.08895,0.08895 0,0.08895 -0.08895,0.08895 -0.08895,0 -0.08895,-0.08895 0,-0.08895 0.08895,-0.08895 z m 0,-0.355812 q 0.08895,0 0.08895,0.08895 0,0.08895 -0.08895,0.08895 -0.08895,0 -0.08895,-0.08895 0,-0.08895 0.08895,-0.08895 z m 0,-0.355812 q 0.08895,0 0.08895,0.08895 0,0.08895 -0.08895,0.08895 -0.08895,0 -0.08895,-0.08895 0,-0.08895 0.08895,-0.08895 z m 0,-0.338021 q 0.08895,0 0.08895,0.08895 0,0.08895 -0.08895,0.08895 -0.08895,0 -0.08895,-0.08895 0,-0.08895 0.08895,-0.08895 z m 0,-0.373603 q 0.08895,0 0.08895,0.08895 0,0.08895 -0.08895,0.08895 -0.08895,0 -0.08895,-0.08895 0,-0.08895 0.08895,-0.08895 z m 0,-0.32023 q 0.08895,0 0.08895,0.08895 0,0.08895 -0.08895,0.08895 -0.08895,0 -0.08895,-0.08895 0,-0.08895 0.08895,-0.08895 z m 0,-0.311336 q 0.08895,0 0.08895,0.08895 0,0.08895 -0.08895,0.08895 -0.08895,0 -0.08895,-0.08895 0,-0.08895 0.08895,-0.08895 z m 0.177906,4.44765 q 0.08895,0 0.08895,0.08895 0,0.08895 -0.08895,0.08895 -0.08895,0 -0.08895,-0.08895 0,-0.08895 0.08895,-0.08895 z m -0.177906,-1.005169 q 0.08895,0 0.08895,0.08895 0,0.08895 -0.08895,0.08895 -0.08895,0 -0.08895,-0.08895 0,-0.08895 0.08895,-0.08895 z m 0,-0.329126 q 0.08895,0 0.08895,0.08895 0,0.08895 -0.08895,0.08895 -0.08895,0 -0.08895,-0.08895 0,-0.08895 0.08895,-0.08895 z m 0,-0.338021 q 0.08895,0 0.08895,0.08895 0,0.08895 -0.08895,0.08895 -0.08895,0 -0.08895,-0.08895 0,-0.08895 0.08895,-0.08895 z m 0,-0.355812 q 0.08895,0 0.08895,0.08895 0,0.08895 -0.08895,0.08895 -0.08895,0 -0.08895,-0.08895 0,-0.08895 0.08895,-0.08895 z m 0.02669,1.378771 q 0.08895,0 0.08895,0.08895 0,0.08895 -0.08895,0.08895 -0.08895,0 -0.08895,-0.08895 0,-0.08895 0.08895,-0.08895 z m 0.05337,0.338022 q 0.08895,0 0.08895,0.08895 0,0.08895 -0.08895,0.08895 -0.08895,0 -0.08895,-0.08895 0,-0.08895 0.08895,-0.08895 z m -3.522538,-2.081501 q 0.08895,0 0.08895,0.08895 0,0.08895 -0.08895,0.08895 -0.08895,0 -0.08895,-0.08895 0,-0.08895 0.08895,-0.08895 z m 0,-0.355812 q 0.08895,0 0.08895,0.08895 0,0.08895 -0.08895,0.08895 -0.08895,0 -0.08895,-0.08895 0,-0.08895 0.08895,-0.08895 z m 0,-0.355812 q 0.08895,0 0.08895,0.08895 0,0.08895 -0.08895,0.08895 -0.08895,0 -0.08895,-0.08895 0,-0.08895 0.08895,-0.08895 z m 0,-0.338021 q 0.08895,0 0.08895,0.08895 0,0.08895 -0.08895,0.08895 -0.08895,0 -0.08895,-0.08895 0,-0.08895 0.08895,-0.08895 z m 0,-0.373603 q 0.08895,0 0.08895,0.08895 0,0.08895 -0.08895,0.08895 -0.08895,0 -0.08895,-0.08895 0,-0.08895 0.08895,-0.08895 z m 0,-0.32023 q 0.08895,0 0.08895,0.08895 0,0.08895 -0.08895,0.08895 -0.08895,0 -0.08895,-0.08895 0,-0.08895 0.08895,-0.08895 z m 0,-0.311336 q 0.08895,0 0.08895,0.08895 0,0.08895 -0.08895,0.08895 -0.08895,0 -0.08895,-0.08895 0,-0.08895 0.08895,-0.08895 z m 1.610049,4.438755 q 0.08895,0 0.08895,0.08895 0,0.08895 -0.08895,0.08895 -0.08895,0 -0.08895,-0.08895 0,-0.08895 0.08895,-0.08895 z m -0.400289,0.03558 q 0.08895,0 0.08895,0.08895 0,0.08895 -0.08895,0.08895 -0.08895,0 -0.08895,-0.08895 0,-0.08895 0.08895,-0.08895 z m -0.382497,-0.08006 q 0.08895,0 0.08895,0.08895 0,0.08895 -0.08895,0.08895 -0.08895,0 -0.08895,-0.08895 0,-0.08895 0.08895,-0.08895 z m -0.346917,-0.204592 q 0.08895,0 0.08895,0.08895 0,0.08895 -0.08895,0.08895 -0.08895,0 -0.08895,-0.08895 0,-0.08895 0.08895,-0.08895 z m -0.195697,-0.249068 q 0.08895,0 0.08895,0.08895 0,0.08895 -0.08895,0.08895 -0.08895,0 -0.08895,-0.08895 0,-0.08895 0.08895,-0.08895 z m -0.195696,-0.613776 q 0.08895,0 0.08895,0.08895 0,0.08895 -0.08895,0.08895 -0.08895,0 -0.08895,-0.08895 0,-0.08895 0.08895,-0.08895 z m -0.04448,-0.329126 q 0.08895,0 0.08895,0.08895 0,0.08895 -0.08895,0.08895 -0.08895,0 -0.08895,-0.08895 0,-0.08895 0.08895,-0.08895 z m 0.115639,0.640462 q 0.08895,0 0.08895,0.08895 0,0.08895 -0.08895,0.08895 -0.08895,0 -0.08895,-0.08895 0,-0.08895 0.08895,-0.08895 z m -0.160115,-0.978483 q 0.08895,0 0.08895,0.08895 0,0.08895 -0.08895,0.08895 -0.08895,0 -0.08895,-0.08895 0,-0.08895 0.08895,-0.08895 z m 1.992547,1.64563 q 0.08895,0 0.08895,0.08895 0,0.08895 -0.08895,0.08895 -0.08895,0 -0.08895,-0.08895 0,-0.08895 0.08895,-0.08895 z M 27.226006,20.59291 q 0.08895,0 0.08895,0.08895 0,0.08895 -0.08895,0.08895 -0.08895,0 -0.08895,-0.08895 0,-0.08895 0.08895,-0.08895 z m 2.339464,1.76127 q 0.08895,0 0.08895,0.08895 0,0.08895 -0.08895,0.08895 -0.08895,0 -0.08895,-0.08895 0,-0.08895 0.08895,-0.08895 z m 0.311335,-0.213487 q 0.08895,0 0.08895,0.08895 0,0.08895 -0.08895,0.08895 -0.08895,0 -0.08895,-0.08895 0,-0.08895 0.08895,-0.08895 z m 0.28465,-0.28465 q 0.08895,0 0.08895,0.08895 0,0.08895 -0.08895,0.08895 -0.08895,0 -0.08895,-0.08895 0,-0.08895 0.08895,-0.08895 z m 0.222382,-0.30244 q 0.08895,0 0.08895,0.08895 0,0.08895 -0.08895,0.08895 -0.08895,0 -0.08895,-0.08895 0,-0.08895 0.08895,-0.08895 z m 3.246784,1.19197 q -0.08895,0 -0.08895,-0.08895 0,-0.08895 0.08895,-0.08895 0.08895,0 0.08895,0.08895 0,0.08895 -0.08895,0.08895 z m -1.165284,-2.054814 q -0.08895,0 -0.08895,-0.08895 0,-0.08895 0.08895,-0.08895 0.08895,0 0.08895,0.08895 0,0.08895 -0.08895,0.08895 z m 0,0.355812 q -0.08895,0 -0.08895,-0.08895 0,-0.08895 0.08895,-0.08895 0.08895,0 0.08895,0.08895 0,0.08895 -0.08895,0.08895 z m 0,0.355812 q -0.08895,0 -0.08895,-0.08895 0,-0.08895 0.08895,-0.08895 0.08895,0 0.08895,0.08895 0,0.08895 -0.08895,0.08895 z m 0,0.355812 q -0.08895,0 -0.08895,-0.08895 0,-0.08895 0.08895,-0.08895 0.08895,0 0.08895,0.08895 0,0.08895 -0.08895,0.08895 z m 0,0.355812 q -0.08895,0 -0.08895,-0.08895 0,-0.08895 0.08895,-0.08895 0.08895,0 0.08895,0.08895 0,0.08895 -0.08895,0.08895 z m 0.05337,0.338021 q -0.08895,0 -0.08895,-0.08895 0,-0.08895 0.08895,-0.08895 0.08895,0 0.08895,0.08895 0,0.08895 -0.08895,0.08895 z m 0.195697,0.257964 q -0.08895,0 -0.08895,-0.08895 0,-0.08895 0.08895,-0.08895 0.08895,0 0.08895,0.08895 0,0.08895 -0.08895,0.08895 z m -0.249068,-4.847939 q -0.08895,0 -0.08895,-0.08895 0,-0.08895 0.08895,-0.08895 0.08895,0 0.08895,0.08895 0,0.08895 -0.08895,0.08895 z m 0,0.346917 q -0.08895,0 -0.08895,-0.08895 0,-0.08895 0.08895,-0.08895 0.08895,0 0.08895,0.08895 0,0.08895 -0.08895,0.08895 z m 0,0.382498 q -0.08895,0 -0.08895,-0.08895 0,-0.08895 0.08895,-0.08895 0.08895,0 0.08895,0.08895 0,0.08895 -0.08895,0.08895 z m 0,0.711624 q -0.08895,0 -0.08895,-0.08895 0,-0.08895 0.08895,-0.08895 0.08895,0 0.08895,0.08895 0,0.08895 -0.08895,0.08895 z m 0,0.329126 q -0.08895,0 -0.08895,-0.08895 0,-0.08895 0.08895,-0.08895 0.08895,0 0.08895,0.08895 0,0.08895 -0.08895,0.08895 z m 0,0.355812 q -0.08895,0 -0.08895,-0.08895 0,-0.08895 0.08895,-0.08895 0.08895,0 0.08895,0.08895 0,0.08895 -0.08895,0.08895 z m 0,0.355812 q -0.08895,0 -0.08895,-0.08895 0,-0.08895 0.08895,-0.08895 0.08895,0 0.08895,0.08895 0,0.08895 -0.08895,0.08895 z m 0,-3.824979 q -0.08895,0 -0.08895,-0.08895 0,-0.08895 0.08895,-0.08895 0.08895,0 0.08895,0.08895 0,0.08895 -0.08895,0.08895 z m 0,0.329126 q -0.08895,0 -0.08895,-0.08895 0,-0.08895 0.08895,-0.08895 0.08895,0 0.08895,0.08895 0,0.08895 -0.08895,0.08895 z m 0,0.338022 q -0.08895,0 -0.08895,-0.08895 0,-0.08895 0.08895,-0.08895 0.08895,0 0.08895,0.08895 0,0.08895 -0.08895,0.08895 z m 0,0.32023 q -0.08895,0 -0.08895,-0.08895 0,-0.08895 0.08895,-0.08895 0.08895,0 0.08895,0.08895 0,0.08895 -0.08895,0.08895 z m 0,1.441039 q -0.08895,0 -0.08895,-0.08895 0,-0.08895 0.08895,-0.08895 0.08895,0 0.08895,0.08895 0,0.08895 -0.08895,0.08895 z m 0.533718,3.896141 q -0.08895,0 -0.08895,-0.08895 0,-0.08895 0.08895,-0.08895 0.08895,0 0.08895,0.08895 0,0.08895 -0.08895,0.08895 z m 0.329126,-0.01779 q -0.08895,0 -0.08895,-0.08895 0,-0.08895 0.08895,-0.08895 0.08895,0 0.08895,0.08895 0,0.08895 -0.08895,0.08895 z m 2.552944,-0.08006 q -0.08895,0 -0.08895,-0.08895 0,-0.08895 0.08895,-0.08895 0.08895,0 0.08895,0.08895 0,0.08895 -0.08895,0.08895 z M 34.69805,20.690759 q -0.08895,0 -0.08895,-0.08895 0,-0.08895 0.08895,-0.08895 0.08895,0 0.08895,0.08895 0,0.08895 -0.08895,0.08895 z m 0,0.355812 q -0.08895,0 -0.08895,-0.08895 0,-0.08895 0.08895,-0.08895 0.08895,0 0.08895,0.08895 0,0.08895 -0.08895,0.08895 z m 0,0.355812 q -0.08895,0 -0.08895,-0.08895 0,-0.08895 0.08895,-0.08895 0.08895,0 0.08895,0.08895 0,0.08895 -0.08895,0.08895 z m 0,0.355812 q -0.08895,0 -0.08895,-0.08895 0,-0.08895 0.08895,-0.08895 0.08895,0 0.08895,0.08895 0,0.08895 -0.08895,0.08895 z m 0,0.355812 q -0.08895,0 -0.08895,-0.08895 0,-0.08895 0.08895,-0.08895 0.08895,0 0.08895,0.08895 0,0.08895 -0.08895,0.08895 z m 0.05337,0.338021 q -0.08895,0 -0.08895,-0.08895 0,-0.08895 0.08895,-0.08895 0.08895,0 0.08895,0.08895 0,0.08895 -0.08895,0.08895 z m 0.195696,0.257964 q -0.08895,0 -0.08895,-0.08895 0,-0.08895 0.08895,-0.08895 0.08895,0 0.08895,0.08895 0,0.08895 -0.08895,0.08895 z M 34.69805,17.879844 q -0.08895,0 -0.08895,-0.08895 0,-0.08895 0.08895,-0.08895 0.08895,0 0.08895,0.08895 0,0.08895 -0.08895,0.08895 z m 0,0.373603 q -0.08895,0 -0.08895,-0.08895 0,-0.08895 0.08895,-0.08895 0.08895,0 0.08895,0.08895 0,0.08895 -0.08895,0.08895 z m 0,0.338021 q -0.08895,0 -0.08895,-0.08895 0,-0.08895 0.08895,-0.08895 0.08895,0 0.08895,0.08895 0,0.08895 -0.08895,0.08895 z m 0,0.711624 q -0.08895,0 -0.08895,-0.08895 0,-0.08895 0.08895,-0.08895 0.08895,0 0.08895,0.08895 0,0.08895 -0.08895,0.08895 z m 0,0.329126 q -0.08895,0 -0.08895,-0.08895 0,-0.08895 0.08895,-0.08895 0.08895,0 0.08895,0.08895 0,0.08895 -0.08895,0.08895 z m 0,0.355812 q -0.08895,0 -0.08895,-0.08895 0,-0.08895 0.08895,-0.08895 0.08895,0 0.08895,0.08895 0,0.08895 -0.08895,0.08895 z m 0,0.355812 q -0.08895,0 -0.08895,-0.08895 0,-0.08895 0.08895,-0.08895 0.08895,0 0.08895,0.08895 0,0.08895 -0.08895,0.08895 z m 0,-3.495853 q -0.08895,0 -0.08895,-0.08895 0,-0.08895 0.08895,-0.08895 0.08895,0 0.08895,0.08895 0,0.08895 -0.08895,0.08895 z m 0,0.338022 q -0.08895,0 -0.08895,-0.08895 0,-0.08895 0.08895,-0.08895 0.08895,0 0.08895,0.08895 0,0.08895 -0.08895,0.08895 z m 0,0.338021 q -0.08895,0 -0.08895,-0.08895 0,-0.08895 0.08895,-0.08895 0.08895,0 0.08895,0.08895 0,0.08895 -0.08895,0.08895 z m 0,1.423248 q -0.08895,0 -0.08895,-0.08895 0,-0.08895 0.08895,-0.08895 0.08895,0 0.08895,0.08895 0,0.08895 -0.08895,0.08895 z m 0.551509,3.878351 q -0.08895,0 -0.08895,-0.08895 0,-0.08895 0.08895,-0.08895 0.08895,0 0.08895,0.08895 0,0.08895 -0.08895,0.08895 z m 0.32023,0 q -0.08895,0 -0.08895,-0.08895 0,-0.08895 0.08895,-0.08895 0.08895,0 0.08895,0.08895 0,0.08895 -0.08895,0.08895 z m 0.595985,-0.204592 q -0.08895,0 -0.08895,-0.08895 0,-0.08895 0.08895,-0.08895 0.08895,0 0.08895,0.08895 0,0.08895 -0.08895,0.08895 z m -1.850222,-4.207477 q -0.08895,0 -0.08895,-0.08895 0,-0.08895 0.08895,-0.08895 0.08895,0 0.08895,0.08895 0,0.08895 -0.08895,0.08895 z m -0.329126,0 q -0.08895,0 -0.08895,-0.08895 0,-0.08895 0.08895,-0.08895 0.08895,0 0.08895,0.08895 0,0.08895 -0.08895,0.08895 z m 1.049645,0 q -0.08895,0 -0.08895,-0.08895 0,-0.08895 0.08895,-0.08895 0.08895,0 0.08895,0.08895 0,0.08895 -0.08895,0.08895 z m 0.338022,0 q -0.08895,0 -0.08895,-0.08895 0,-0.08895 0.08895,-0.08895 0.08895,0 0.08895,0.08895 0,0.08895 -0.08895,0.08895 z m 0.355812,0 q -0.08895,0 -0.08895,-0.08895 0,-0.08895 0.08895,-0.08895 0.08895,0 0.08895,0.08895 0,0.08895 -0.08895,0.08895 z m 1.494408,2.36615 q -0.08895,0 -0.08895,-0.08895 0,-0.08895 0.08895,-0.08895 0.08895,0 0.08895,0.08895 0,0.08895 -0.08895,0.08895 z m 0,0.355812 q -0.08895,0 -0.08895,-0.08895 0,-0.08895 0.08895,-0.08895 0.08895,0 0.08895,0.08895 0,0.08895 -0.08895,0.08895 z m 0,0.355812 q -0.08895,0 -0.08895,-0.08895 0,-0.08895 0.08895,-0.08895 0.08895,0 0.08895,0.08895 0,0.08895 -0.08895,0.08895 z m 0,0.338021 q -0.08895,0 -0.08895,-0.08895 0,-0.08895 0.08895,-0.08895 0.08895,0 0.08895,0.08895 0,0.08895 -0.08895,0.08895 z m 0,0.373603 q -0.08895,0 -0.08895,-0.08895 0,-0.08895 0.08895,-0.08895 0.08895,0 0.08895,0.08895 0,0.08895 -0.08895,0.08895 z m 0,0.320231 q -0.08895,0 -0.08895,-0.08895 0,-0.08895 0.08895,-0.08895 0.08895,0 0.08895,0.08895 0,0.08895 -0.08895,0.08895 z m 0,0.311335 q -0.08895,0 -0.08895,-0.08895 0,-0.08895 0.08895,-0.08895 0.08895,0 0.08895,0.08895 0,0.08895 -0.08895,0.08895 z m 0,-4.44765 q -0.08895,0 -0.08895,-0.08895 0,-0.08895 0.08895,-0.08895 0.08895,0 0.08895,0.08895 0,0.08895 -0.08895,0.08895 z m 0,1.005169 q -0.08895,0 -0.08895,-0.08895 0,-0.08895 0.08895,-0.08895 0.08895,0 0.08895,0.08895 0,0.08895 -0.08895,0.08895 z m 0,0.329126 q -0.08895,0 -0.08895,-0.08895 0,-0.08895 0.08895,-0.08895 0.08895,0 0.08895,0.08895 0,0.08895 -0.08895,0.08895 z m 0,0.338021 q -0.08895,0 -0.08895,-0.08895 0,-0.08895 0.08895,-0.08895 0.08895,0 0.08895,0.08895 0,0.08895 -0.08895,0.08895 z m 0,0.355812 q -0.08895,0 -0.08895,-0.08895 0,-0.08895 0.08895,-0.08895 0.08895,0 0.08895,0.08895 0,0.08895 -0.08895,0.08895 z m 0,-1.34319 q -0.08895,0 -0.08895,-0.08895 0,-0.08895 0.08895,-0.08895 0.08895,0 0.08895,0.08895 0,0.08895 -0.08895,0.08895 z m 0,-0.355812 q -0.08895,0 -0.08895,-0.08895 0,-0.08895 0.08895,-0.08895 0.08895,0 0.08895,0.08895 0,0.08895 -0.08895,0.08895 z m 0,-2.197139 q -0.08895,0 -0.08895,-0.08895 0,-0.08895 0.08895,-0.08895 0.08895,0 0.08895,0.08895 0,0.08895 -0.08895,0.08895 z m 0,0.640462 q -0.08895,0 -0.08895,-0.08895 0,-0.08895 0.08895,-0.08895 0.08895,0 0.08895,0.08895 0,0.08895 -0.08895,0.08895 z m 0,-0.311336 q -0.08895,0 -0.08895,-0.08895 0,-0.08895 0.08895,-0.08895 0.08895,0 0.08895,0.08895 0,0.08895 -0.08895,0.08895 z m 1.725689,3.931723 q -0.08895,0 -0.08895,-0.08895 0,-0.08895 0.08895,-0.08895 0.08895,0 0.08895,0.08895 0,0.08895 -0.08895,0.08895 z m 0,0.355812 q -0.08895,0 -0.08895,-0.08895 0,-0.08895 0.08895,-0.08895 0.08895,0 0.08895,0.08895 0,0.08895 -0.08895,0.08895 z m 0,0.355812 q -0.08895,0 -0.08895,-0.08895 0,-0.08895 0.08895,-0.08895 0.08895,0 0.08895,0.08895 0,0.08895 -0.08895,0.08895 z m 0,0.338021 q -0.08895,0 -0.08895,-0.08895 0,-0.08895 0.08895,-0.08895 0.08895,0 0.08895,0.08895 0,0.08895 -0.08895,0.08895 z m 0,0.373603 q -0.08895,0 -0.08895,-0.08895 0,-0.08895 0.08895,-0.08895 0.08895,0 0.08895,0.08895 0,0.08895 -0.08895,0.08895 z m 0,0.320231 q -0.08895,0 -0.08895,-0.08895 0,-0.08895 0.08895,-0.08895 0.08895,0 0.08895,0.08895 0,0.08895 -0.08895,0.08895 z m 0,0.311335 q -0.08895,0 -0.08895,-0.08895 0,-0.08895 0.08895,-0.08895 0.08895,0 0.08895,0.08895 0,0.08895 -0.08895,0.08895 z m 0,-4.44765 q -0.08895,0 -0.08895,-0.08895 0,-0.08895 0.08895,-0.08895 0.08895,0 0.08895,0.08895 0,0.08895 -0.08895,0.08895 z m 0,1.005169 q -0.08895,0 -0.08895,-0.08895 0,-0.08895 0.08895,-0.08895 0.08895,0 0.08895,0.08895 0,0.08895 -0.08895,0.08895 z m 0,0.329126 q -0.08895,0 -0.08895,-0.08895 0,-0.08895 0.08895,-0.08895 0.08895,0 0.08895,0.08895 0,0.08895 -0.08895,0.08895 z m 0,0.338021 q -0.08895,0 -0.08895,-0.08895 0,-0.08895 0.08895,-0.08895 0.08895,0 0.08895,0.08895 0,0.08895 -0.08895,0.08895 z m 0,0.355812 q -0.08895,0 -0.08895,-0.08895 0,-0.08895 0.08895,-0.08895 0.08895,0 0.08895,0.08895 0,0.08895 -0.08895,0.08895 z m 0,-1.34319 q -0.08895,0 -0.08895,-0.08895 0,-0.08895 0.08895,-0.08895 0.08895,0 0.08895,0.08895 0,0.08895 -0.08895,0.08895 z m 0,-0.355812 q -0.08895,0 -0.08895,-0.08895 0,-0.08895 0.08895,-0.08895 0.08895,0 0.08895,0.08895 0,0.08895 -0.08895,0.08895 z m 3.38911,2.06371 q -0.08895,0 -0.08895,-0.08895 0,-0.08895 0.08895,-0.08895 0.08895,0 0.08895,0.08895 0,0.08895 -0.08895,0.08895 z m 0,0.355812 q -0.08895,0 -0.08895,-0.08895 0,-0.08895 0.08895,-0.08895 0.08895,0 0.08895,0.08895 0,0.08895 -0.08895,0.08895 z m 0,0.355812 q -0.08895,0 -0.08895,-0.08895 0,-0.08895 0.08895,-0.08895 0.08895,0 0.08895,0.08895 0,0.08895 -0.08895,0.08895 z m 0,0.338021 q -0.08895,0 -0.08895,-0.08895 0,-0.08895 0.08895,-0.08895 0.08895,0 0.08895,0.08895 0,0.08895 -0.08895,0.08895 z m 0,0.373603 q -0.08895,0 -0.08895,-0.08895 0,-0.08895 0.08895,-0.08895 0.08895,0 0.08895,0.08895 0,0.08895 -0.08895,0.08895 z m 0,0.320231 q -0.08895,0 -0.08895,-0.08895 0,-0.08895 0.08895,-0.08895 0.08895,0 0.08895,0.08895 0,0.08895 -0.08895,0.08895 z m 0,0.311335 q -0.08895,0 -0.08895,-0.08895 0,-0.08895 0.08895,-0.08895 0.08895,0 0.08895,0.08895 0,0.08895 -0.08895,0.08895 z m -1.61005,-4.438755 q -0.08895,0 -0.08895,-0.08895 0,-0.08895 0.08895,-0.08895 0.08895,0 0.08895,0.08895 0,0.08895 -0.08895,0.08895 z m 0.400289,-0.03558 q -0.08895,0 -0.08895,-0.08895 0,-0.08895 0.08895,-0.08895 0.08895,0 0.08895,0.08895 0,0.08895 -0.08895,0.08895 z m 0.382498,0.08006 q -0.08895,0 -0.08895,-0.08895 0,-0.08895 0.08895,-0.08895 0.08895,0 0.08895,0.08895 0,0.08895 -0.08895,0.08895 z m 0.346916,0.204592 q -0.08895,0 -0.08895,-0.08895 0,-0.08895 0.08895,-0.08895 0.08895,0 0.08895,0.08895 0,0.08895 -0.08895,0.08895 z m 0.195697,0.249068 q -0.08895,0 -0.08895,-0.08895 0,-0.08895 0.08895,-0.08895 0.08895,0 0.08895,0.08895 0,0.08895 -0.08895,0.08895 z m 0.195697,0.613776 q -0.08895,0 -0.08895,-0.08895 0,-0.08895 0.08895,-0.08895 0.08895,0 0.08895,0.08895 0,0.08895 -0.08895,0.08895 z m 0.04448,0.329126 q -0.08895,0 -0.08895,-0.08895 0,-0.08895 0.08895,-0.08895 0.08895,0 0.08895,0.08895 0,0.08895 -0.08895,0.08895 z M 42.179,19.196351 q -0.08895,0 -0.08895,-0.08895 0,-0.08895 0.08895,-0.08895 0.08895,0 0.08895,0.08895 0,0.08895 -0.08895,0.08895 z m 0.160116,0.978483 q -0.08895,0 -0.08895,-0.08895 0,-0.08895 0.08895,-0.08895 0.08895,0 0.08895,0.08895 0,0.08895 -0.08895,0.08895 z m -1.992548,-1.64563 q -0.08895,0 -0.08895,-0.08895 0,-0.08895 0.08895,-0.08895 0.08895,0 0.08895,0.08895 0,0.08895 -0.08895,0.08895 z m 1.992548,1.921385 q -0.08895,0 -0.08895,-0.08895 0,-0.08895 0.08895,-0.08895 0.08895,0 0.08895,0.08895 0,0.08895 -0.08895,0.08895 z m -2.339464,-1.76127 q -0.08895,0 -0.08895,-0.08895 0,-0.08895 0.08895,-0.08895 0.08895,0 0.08895,0.08895 0,0.08895 -0.08895,0.08895 z m -0.30244,0.231278 q -0.08895,0 -0.08895,-0.08895 0,-0.08895 0.08895,-0.08895 0.08895,0 0.08895,0.08895 0,0.08895 -0.08895,0.08895 z m -0.249069,0.28465 q -0.08895,0 -0.08895,-0.08895 0,-0.08895 0.08895,-0.08895 0.08895,0 0.08895,0.08895 0,0.08895 -0.08895,0.08895 z m -0.222382,0.311335 q -0.08895,0 -0.08895,-0.08895 0,-0.08895 0.08895,-0.08895 0.08895,0 0.08895,0.08895 0,0.08895 -0.08895,0.08895 z m 7.178516,3.006612 q 0.08895,0 0.08895,0.08895 0,0.08895 -0.08895,0.08895 -0.08895,0 -0.08895,-0.08895 0,-0.08895 0.08895,-0.08895 z m -0.355812,0.124534 q 0.08895,0 0.08895,0.08895 0,0.08895 -0.08895,0.08895 -0.08895,0 -0.08895,-0.08895 0,-0.08895 0.08895,-0.08895 z m -0.355812,0.03558 q 0.08895,0 0.08895,0.08895 0,0.08895 -0.08895,0.08895 -0.08895,0 -0.08895,-0.08895 0,-0.08895 0.08895,-0.08895 z m -0.355812,-0.04448 q 0.08895,0 0.08895,0.08895 0,0.08895 -0.08895,0.08895 -0.08895,0 -0.08895,-0.08895 0,-0.08895 0.08895,-0.08895 z M 44.981029,22.52319 q 0.08895,0 0.08895,0.08895 0,0.08895 -0.08895,0.08895 -0.08895,0 -0.08895,-0.08895 0,-0.08895 0.08895,-0.08895 z m 1.734584,-0.177906 q 0.08895,0 0.08895,0.08895 0,0.08895 -0.08895,0.08895 -0.08895,0 -0.08895,-0.08895 0,-0.08895 0.08895,-0.08895 z m -2.072605,-0.01779 q 0.08895,0 0.08895,0.08895 0,0.08895 -0.08895,0.08895 -0.08895,0 -0.08895,-0.08895 0,-0.08895 0.08895,-0.08895 z m 2.339464,-0.195697 q 0.08895,0 0.08895,0.08895 0,0.08895 -0.08895,0.08895 -0.08895,0 -0.08895,-0.08895 0,-0.08895 0.08895,-0.08895 z m -2.633009,-0.06227 q 0.08895,0 0.08895,0.08895 0,0.08895 -0.08895,0.08895 -0.08895,0 -0.08895,-0.08895 0,-0.08895 0.08895,-0.08895 z m -0.409184,-0.595985 q 0.08895,0 0.08895,0.08895 0,0.08895 -0.08895,0.08895 -0.08895,0 -0.08895,-0.08895 0,-0.08895 0.08895,-0.08895 z m -0.124534,-0.320231 q 0.08895,0 0.08895,0.08895 0,0.08895 -0.08895,0.08895 -0.08895,0 -0.08895,-0.08895 0,-0.08895 0.08895,-0.08895 z m -0.115639,-0.676042 q 0.08895,0 0.08895,0.08895 0,0.08895 -0.08895,0.08895 -0.08895,0 -0.08895,-0.08895 0,-0.08895 0.08895,-0.08895 z m 0.01779,-0.355812 q 0.08895,0 0.08895,0.08895 0,0.08895 -0.08895,0.08895 -0.08895,0 -0.08895,-0.08895 0,-0.08895 0.08895,-0.08895 z m 0.06227,-0.320231 q 0.08895,0 0.08895,0.08895 0,0.08895 -0.08895,0.08895 -0.08895,0 -0.08895,-0.08895 0,-0.08895 0.08895,-0.08895 z m 0.115639,-0.338022 q 0.08895,0 0.08895,0.08895 0,0.08895 -0.08895,0.08895 -0.08895,0 -0.08895,-0.08895 0,-0.08895 0.08895,-0.08895 z m 0.160115,-0.311335 q 0.08895,0 0.08895,0.08895 0,0.08895 -0.08895,0.08895 -0.08895,0 -0.08895,-0.08895 0,-0.08895 0.08895,-0.08895 z m 3.157831,-0.338021 q 0.08895,0 0.08895,0.08895 0,0.08895 -0.08895,0.08895 -0.08895,0 -0.08895,-0.08895 0,-0.08895 0.08895,-0.08895 z m -2.962134,0.06227 q 0.08895,0 0.08895,0.08895 0,0.08895 -0.08895,0.08895 -0.08895,0 -0.08895,-0.08895 0,-0.08895 0.08895,-0.08895 z m 2.446207,-0.471451 q 0.08895,0 0.08895,0.08895 0,0.08895 -0.08895,0.08895 -0.08895,0 -0.08895,-0.08895 0,-0.08895 0.08895,-0.08895 z m -0.293545,-0.115639 q 0.08895,0 0.08895,0.08895 0,0.08895 -0.08895,0.08895 -0.08895,0 -0.08895,-0.08895 0,-0.08895 0.08895,-0.08895 z m -1.34319,0 q 0.08895,0 0.08895,0.08895 0,0.08895 -0.08895,0.08895 -0.08895,0 -0.08895,-0.08895 0,-0.08895 0.08895,-0.08895 z m -0.30244,0.15122 q 0.08895,0 0.08895,0.08895 0,0.08895 -0.08895,0.08895 -0.08895,0 -0.08895,-0.08895 0,-0.08895 0.08895,-0.08895 z m 2.926553,1.903594 q 0.08895,0 0.08895,0.08895 0,0.08895 -0.08895,0.08895 -0.08895,0 -0.08895,-0.08895 0,-0.08895 0.08895,-0.08895 z m 0,-0.355812 q 0.08895,0 0.08895,0.08895 0,0.08895 -0.08895,0.08895 -0.08895,0 -0.08895,-0.08895 0,-0.08895 0.08895,-0.08895 z m 0,-0.355812 q 0.08895,0 0.08895,0.08895 0,0.08895 -0.08895,0.08895 -0.08895,0 -0.08895,-0.08895 0,-0.08895 0.08895,-0.08895 z m 0,-0.355812 q 0.08895,0 0.08895,0.08895 0,0.08895 -0.08895,0.08895 -0.08895,0 -0.08895,-0.08895 0,-0.08895 0.08895,-0.08895 z m 0,-0.355812 q 0.08895,0 0.08895,0.08895 0,0.08895 -0.08895,0.08895 -0.08895,0 -0.08895,-0.08895 0,-0.08895 0.08895,-0.08895 z m 0,-0.355812 q 0.08895,0 0.08895,0.08895 0,0.08895 -0.08895,0.08895 -0.08895,0 -0.08895,-0.08895 0,-0.08895 0.08895,-0.08895 z m 0,-0.355812 q 0.08895,0 0.08895,0.08895 0,0.08895 -0.08895,0.08895 -0.08895,0 -0.08895,-0.08895 0,-0.08895 0.08895,-0.08895 z m -0.01779,4.963577 q 0.08895,0 0.08895,0.08895 0,0.08895 -0.08895,0.08895 -0.08895,0 -0.08895,-0.08895 0,-0.08895 0.08895,-0.08895 z m 0.01779,-0.346916 q 0.08895,0 0.08895,0.08895 0,0.08895 -0.08895,0.08895 -0.08895,0 -0.08895,-0.08895 0,-0.08895 0.08895,-0.08895 z m 0,-0.382498 q 0.08895,0 0.08895,0.08895 0,0.08895 -0.08895,0.08895 -0.08895,0 -0.08895,-0.08895 0,-0.08895 0.08895,-0.08895 z m 0,-0.711624 q 0.08895,0 0.08895,0.08895 0,0.08895 -0.08895,0.08895 -0.08895,0 -0.08895,-0.08895 0,-0.08895 0.08895,-0.08895 z m 0,-0.329126 q 0.08895,0 0.08895,0.08895 0,0.08895 -0.08895,0.08895 -0.08895,0 -0.08895,-0.08895 0,-0.08895 0.08895,-0.08895 z m 0,-0.355812 q 0.08895,0 0.08895,0.08895 0,0.08895 -0.08895,0.08895 -0.08895,0 -0.08895,-0.08895 0,-0.08895 0.08895,-0.08895 z m 0,-0.355812 q 0.08895,0 0.08895,0.08895 0,0.08895 -0.08895,0.08895 -0.08895,0 -0.08895,-0.08895 0,-0.08895 0.08895,-0.08895 z m -0.676042,3.55812 q 0.08895,0 0.08895,0.08895 0,0.08895 -0.08895,0.08895 -0.08895,0 -0.08895,-0.08895 0,-0.08895 0.08895,-0.08895 z m 0.257963,-0.204592 q 0.08895,0 0.08895,0.08895 0,0.08895 -0.08895,0.08895 -0.08895,0 -0.08895,-0.08895 0,-0.08895 0.08895,-0.08895 z m 0.177906,-0.257964 q 0.08895,0 0.08895,0.08895 0,0.08895 -0.08895,0.08895 -0.08895,0 -0.08895,-0.08895 0,-0.08895 0.08895,-0.08895 z m 0.15122,-0.30244 q 0.08895,0 0.08895,0.08895 0,0.08895 -0.08895,0.08895 -0.08895,0 -0.08895,-0.08895 0,-0.08895 0.08895,-0.08895 z m 0.08895,-1.396562 q 0.08895,0 0.08895,0.08895 0,0.08895 -0.08895,0.08895 -0.08895,0 -0.08895,-0.08895 0,-0.08895 0.08895,-0.08895 z m -3.584805,-0.311336 q 0.08895,0 0.08895,0.08895 0,0.08895 -0.08895,0.08895 -0.08895,0 -0.08895,-0.08895 0,-0.08895 0.08895,-0.08895 z m -0.364708,-0.951797 q 0.08895,0 0.08895,0.08895 0,0.08895 -0.08895,0.08895 -0.08895,0 -0.08895,-0.08895 0,-0.08895 0.08895,-0.08895 z m 3.478062,1.031855 q 0.08895,0 0.08895,0.08895 0,0.08895 -0.08895,0.08895 -0.08895,0 -0.08895,-0.08895 0,-0.08895 0.08895,-0.08895 z m 0.222383,-0.275754 q 0.08895,0 0.08895,0.08895 0,0.08895 -0.08895,0.08895 -0.08895,0 -0.08895,-0.08895 0,-0.08895 0.08895,-0.08895 z m -0.0089,-2.508475 q 0.08895,0 0.08895,0.08895 0,0.08895 -0.08895,0.08895 -0.08895,0 -0.08895,-0.08895 0,-0.08895 0.08895,-0.08895 z M 45.76381,18.146703 q 0.08895,0 0.08895,0.08895 0,0.08895 -0.08895,0.08895 -0.08895,0 -0.08895,-0.08895 0,-0.08895 0.08895,-0.08895 z m 0.338021,0.03558 q 0.08895,0 0.08895,0.08895 0,0.08895 -0.08895,0.08895 -0.08895,0 -0.08895,-0.08895 0,-0.08895 0.08895,-0.08895 z m 0.853949,0.409184 q 0.08895,0 0.08895,0.08895 0,0.08895 -0.08895,0.08895 -0.08895,0 -0.08895,-0.08895 0,-0.08895 0.08895,-0.08895 z M 45.408,18.182284 q 0.08895,0 0.08895,0.08895 0,0.08895 -0.08895,0.08895 -0.08895,0 -0.08895,-0.08895 0,-0.08895 0.08895,-0.08895 z m -0.925112,0.453661 q 0.08895,0 0.08895,0.08895 0,0.08895 -0.08895,0.08895 -0.08895,0 -0.08895,-0.08895 0,-0.08895 0.08895,-0.08895 z m 2.241616,5.764154 q 0.08895,0 0.08895,0.08895 0,0.08895 -0.08895,0.08895 -0.08895,0 -0.08895,-0.08895 0,-0.08895 0.08895,-0.08895 z m -0.311336,0.115639 q 0.08895,0 0.08895,0.08895 0,0.08895 -0.08895,0.08895 -0.08895,0 -0.08895,-0.08895 0,-0.08895 0.08895,-0.08895 z m -0.311335,0.06227 q 0.08895,0 0.08895,0.08895 0,0.08895 -0.08895,0.08895 -0.08895,0 -0.08895,-0.08895 0,-0.08895 0.08895,-0.08895 z m -0.338021,0.01779 q 0.08895,0 0.08895,0.08895 0,0.08895 -0.08895,0.08895 -0.08895,0 -0.08895,-0.08895 0,-0.08895 0.08895,-0.08895 z m -0.338022,-0.01779 q 0.08895,0 0.08895,0.08895 0,0.08895 -0.08895,0.08895 -0.08895,0 -0.08895,-0.08895 0,-0.08895 0.08895,-0.08895 z m -0.329126,-0.04448 q 0.08895,0 0.08895,0.08895 0,0.08895 -0.08895,0.08895 -0.08895,0 -0.08895,-0.08895 0,-0.08895 0.08895,-0.08895 z m -0.293545,-0.08895 q 0.08895,0 0.08895,0.08895 0,0.08895 -0.08895,0.08895 -0.08895,0 -0.08895,-0.08895 0,-0.08895 0.08895,-0.08895 z m -0.275754,-0.142324 q 0.08895,0 0.08895,0.08895 0,0.08895 -0.08895,0.08895 -0.08895,0 -0.08895,-0.08895 0,-0.08895 0.08895,-0.08895 z m -0.28465,-0.195697 q 0.08895,0 0.08895,0.08895 0,0.08895 -0.08895,0.08895 -0.08895,0 -0.08895,-0.08895 0,-0.08895 0.08895,-0.08895 z m -0.222382,-0.222383 q 0.08895,0 0.08895,0.08895 0,0.08895 -0.08895,0.08895 -0.08895,0 -0.08895,-0.08895 0,-0.08895 0.08895,-0.08895 z m -0.195697,-0.266859 q 0.08895,0 0.08895,0.08895 0,0.08895 -0.08895,0.08895 -0.08895,0 -0.08895,-0.08895 0,-0.08895 0.08895,-0.08895 z"
           id="text6"
           transform="scale(0.99391041,1.0061269)"
           aria-label="Consulting" /></g></g></g></svg>
